<?xml version="1.0" encoding="utf-8" standalone="no"?>
<!DOCTYPE svg PUBLIC "-//W3C//DTD SVG 1.1//EN"
  "http://www.w3.org/Graphics/SVG/1.1/DTD/svg11.dtd">
<svg xmlns:xlink="http://www.w3.org/1999/xlink" width="720pt" height="432pt" viewBox="0 0 720 432" xmlns="http://www.w3.org/2000/svg" version="1.1">
 <metadata>
  <rdf:RDF xmlns:dc="http://purl.org/dc/elements/1.1/" xmlns:cc="http://creativecommons.org/ns#" xmlns:rdf="http://www.w3.org/1999/02/22-rdf-syntax-ns#">
   <cc:Work>
    <dc:type rdf:resource="http://purl.org/dc/dcmitype/StillImage"/>
    <dc:date>2022-06-29T22:59:40.044502</dc:date>
    <dc:format>image/svg+xml</dc:format>
    <dc:creator>
     <cc:Agent>
      <dc:title>Matplotlib v3.5.2, https://matplotlib.org/</dc:title>
     </cc:Agent>
    </dc:creator>
   </cc:Work>
  </rdf:RDF>
 </metadata>
 <defs>
  <style type="text/css">*{stroke-linejoin: round; stroke-linecap: butt}</style>
 </defs>
 <g id="figure_1">
  <g id="patch_1">
   <path d="M 0 432 
L 720 432 
L 720 0 
L 0 0 
z
" style="fill: #ffffff"/>
  </g>
  <g id="axes_1">
   <g id="patch_2">
    <path d="M 90 384.48 
L 648 384.48 
L 648 51.84 
L 90 51.84 
z
" style="fill: #ffffff"/>
   </g>
   <g id="matplotlib.axis_1">
    <g id="xtick_1">
     <g id="line2d_1">
      <path d="M 115.363636 384.48 
L 115.363636 51.84 
" clip-path="url(#p6fc7db95a3)" style="fill: none; stroke: #cccccc; stroke-width: 0.8; stroke-linecap: round"/>
     </g>
     <g id="text_1">
      <!-- 0 -->
      <g style="fill: #262626" transform="translate(112.182386 399.078438)scale(0.1 -0.1)">
       <defs>
        <path id="DejaVuSans-30" d="M 2034 4250 
Q 1547 4250 1301 3770 
Q 1056 3291 1056 2328 
Q 1056 1369 1301 889 
Q 1547 409 2034 409 
Q 2525 409 2770 889 
Q 3016 1369 3016 2328 
Q 3016 3291 2770 3770 
Q 2525 4250 2034 4250 
z
M 2034 4750 
Q 2819 4750 3233 4129 
Q 3647 3509 3647 2328 
Q 3647 1150 3233 529 
Q 2819 -91 2034 -91 
Q 1250 -91 836 529 
Q 422 1150 422 2328 
Q 422 3509 836 4129 
Q 1250 4750 2034 4750 
z
" transform="scale(0.015625)"/>
       </defs>
       <use xlink:href="#DejaVuSans-30"/>
      </g>
     </g>
    </g>
    <g id="xtick_2">
     <g id="line2d_2">
      <path d="M 217.021498 384.48 
L 217.021498 51.84 
" clip-path="url(#p6fc7db95a3)" style="fill: none; stroke: #cccccc; stroke-width: 0.8; stroke-linecap: round"/>
     </g>
     <g id="text_2">
      <!-- 100 -->
      <g style="fill: #262626" transform="translate(207.477748 399.078438)scale(0.1 -0.1)">
       <defs>
        <path id="DejaVuSans-31" d="M 794 531 
L 1825 531 
L 1825 4091 
L 703 3866 
L 703 4441 
L 1819 4666 
L 2450 4666 
L 2450 531 
L 3481 531 
L 3481 0 
L 794 0 
L 794 531 
z
" transform="scale(0.015625)"/>
       </defs>
       <use xlink:href="#DejaVuSans-31"/>
       <use xlink:href="#DejaVuSans-30" x="63.623047"/>
       <use xlink:href="#DejaVuSans-30" x="127.246094"/>
      </g>
     </g>
    </g>
    <g id="xtick_3">
     <g id="line2d_3">
      <path d="M 318.679359 384.48 
L 318.679359 51.84 
" clip-path="url(#p6fc7db95a3)" style="fill: none; stroke: #cccccc; stroke-width: 0.8; stroke-linecap: round"/>
     </g>
     <g id="text_3">
      <!-- 200 -->
      <g style="fill: #262626" transform="translate(309.135609 399.078438)scale(0.1 -0.1)">
       <defs>
        <path id="DejaVuSans-32" d="M 1228 531 
L 3431 531 
L 3431 0 
L 469 0 
L 469 531 
Q 828 903 1448 1529 
Q 2069 2156 2228 2338 
Q 2531 2678 2651 2914 
Q 2772 3150 2772 3378 
Q 2772 3750 2511 3984 
Q 2250 4219 1831 4219 
Q 1534 4219 1204 4116 
Q 875 4013 500 3803 
L 500 4441 
Q 881 4594 1212 4672 
Q 1544 4750 1819 4750 
Q 2544 4750 2975 4387 
Q 3406 4025 3406 3419 
Q 3406 3131 3298 2873 
Q 3191 2616 2906 2266 
Q 2828 2175 2409 1742 
Q 1991 1309 1228 531 
z
" transform="scale(0.015625)"/>
       </defs>
       <use xlink:href="#DejaVuSans-32"/>
       <use xlink:href="#DejaVuSans-30" x="63.623047"/>
       <use xlink:href="#DejaVuSans-30" x="127.246094"/>
      </g>
     </g>
    </g>
    <g id="xtick_4">
     <g id="line2d_4">
      <path d="M 420.33722 384.48 
L 420.33722 51.84 
" clip-path="url(#p6fc7db95a3)" style="fill: none; stroke: #cccccc; stroke-width: 0.8; stroke-linecap: round"/>
     </g>
     <g id="text_4">
      <!-- 300 -->
      <g style="fill: #262626" transform="translate(410.79347 399.078438)scale(0.1 -0.1)">
       <defs>
        <path id="DejaVuSans-33" d="M 2597 2516 
Q 3050 2419 3304 2112 
Q 3559 1806 3559 1356 
Q 3559 666 3084 287 
Q 2609 -91 1734 -91 
Q 1441 -91 1130 -33 
Q 819 25 488 141 
L 488 750 
Q 750 597 1062 519 
Q 1375 441 1716 441 
Q 2309 441 2620 675 
Q 2931 909 2931 1356 
Q 2931 1769 2642 2001 
Q 2353 2234 1838 2234 
L 1294 2234 
L 1294 2753 
L 1863 2753 
Q 2328 2753 2575 2939 
Q 2822 3125 2822 3475 
Q 2822 3834 2567 4026 
Q 2313 4219 1838 4219 
Q 1578 4219 1281 4162 
Q 984 4106 628 3988 
L 628 4550 
Q 988 4650 1302 4700 
Q 1616 4750 1894 4750 
Q 2613 4750 3031 4423 
Q 3450 4097 3450 3541 
Q 3450 3153 3228 2886 
Q 3006 2619 2597 2516 
z
" transform="scale(0.015625)"/>
       </defs>
       <use xlink:href="#DejaVuSans-33"/>
       <use xlink:href="#DejaVuSans-30" x="63.623047"/>
       <use xlink:href="#DejaVuSans-30" x="127.246094"/>
      </g>
     </g>
    </g>
    <g id="xtick_5">
     <g id="line2d_5">
      <path d="M 521.995081 384.48 
L 521.995081 51.84 
" clip-path="url(#p6fc7db95a3)" style="fill: none; stroke: #cccccc; stroke-width: 0.8; stroke-linecap: round"/>
     </g>
     <g id="text_5">
      <!-- 400 -->
      <g style="fill: #262626" transform="translate(512.451331 399.078438)scale(0.1 -0.1)">
       <defs>
        <path id="DejaVuSans-34" d="M 2419 4116 
L 825 1625 
L 2419 1625 
L 2419 4116 
z
M 2253 4666 
L 3047 4666 
L 3047 1625 
L 3713 1625 
L 3713 1100 
L 3047 1100 
L 3047 0 
L 2419 0 
L 2419 1100 
L 313 1100 
L 313 1709 
L 2253 4666 
z
" transform="scale(0.015625)"/>
       </defs>
       <use xlink:href="#DejaVuSans-34"/>
       <use xlink:href="#DejaVuSans-30" x="63.623047"/>
       <use xlink:href="#DejaVuSans-30" x="127.246094"/>
      </g>
     </g>
    </g>
    <g id="xtick_6">
     <g id="line2d_6">
      <path d="M 623.652942 384.48 
L 623.652942 51.84 
" clip-path="url(#p6fc7db95a3)" style="fill: none; stroke: #cccccc; stroke-width: 0.8; stroke-linecap: round"/>
     </g>
     <g id="text_6">
      <!-- 500 -->
      <g style="fill: #262626" transform="translate(614.109192 399.078438)scale(0.1 -0.1)">
       <defs>
        <path id="DejaVuSans-35" d="M 691 4666 
L 3169 4666 
L 3169 4134 
L 1269 4134 
L 1269 2991 
Q 1406 3038 1543 3061 
Q 1681 3084 1819 3084 
Q 2600 3084 3056 2656 
Q 3513 2228 3513 1497 
Q 3513 744 3044 326 
Q 2575 -91 1722 -91 
Q 1428 -91 1123 -41 
Q 819 9 494 109 
L 494 744 
Q 775 591 1075 516 
Q 1375 441 1709 441 
Q 2250 441 2565 725 
Q 2881 1009 2881 1497 
Q 2881 1984 2565 2268 
Q 2250 2553 1709 2553 
Q 1456 2553 1204 2497 
Q 953 2441 691 2322 
L 691 4666 
z
" transform="scale(0.015625)"/>
       </defs>
       <use xlink:href="#DejaVuSans-35"/>
       <use xlink:href="#DejaVuSans-30" x="63.623047"/>
       <use xlink:href="#DejaVuSans-30" x="127.246094"/>
      </g>
     </g>
    </g>
    <g id="text_7">
     <!-- Epochs -->
     <g style="fill: #262626" transform="translate(351.084375 412.756563)scale(0.1 -0.1)">
      <defs>
       <path id="DejaVuSans-45" d="M 628 4666 
L 3578 4666 
L 3578 4134 
L 1259 4134 
L 1259 2753 
L 3481 2753 
L 3481 2222 
L 1259 2222 
L 1259 531 
L 3634 531 
L 3634 0 
L 628 0 
L 628 4666 
z
" transform="scale(0.015625)"/>
       <path id="DejaVuSans-70" d="M 1159 525 
L 1159 -1331 
L 581 -1331 
L 581 3500 
L 1159 3500 
L 1159 2969 
Q 1341 3281 1617 3432 
Q 1894 3584 2278 3584 
Q 2916 3584 3314 3078 
Q 3713 2572 3713 1747 
Q 3713 922 3314 415 
Q 2916 -91 2278 -91 
Q 1894 -91 1617 61 
Q 1341 213 1159 525 
z
M 3116 1747 
Q 3116 2381 2855 2742 
Q 2594 3103 2138 3103 
Q 1681 3103 1420 2742 
Q 1159 2381 1159 1747 
Q 1159 1113 1420 752 
Q 1681 391 2138 391 
Q 2594 391 2855 752 
Q 3116 1113 3116 1747 
z
" transform="scale(0.015625)"/>
       <path id="DejaVuSans-6f" d="M 1959 3097 
Q 1497 3097 1228 2736 
Q 959 2375 959 1747 
Q 959 1119 1226 758 
Q 1494 397 1959 397 
Q 2419 397 2687 759 
Q 2956 1122 2956 1747 
Q 2956 2369 2687 2733 
Q 2419 3097 1959 3097 
z
M 1959 3584 
Q 2709 3584 3137 3096 
Q 3566 2609 3566 1747 
Q 3566 888 3137 398 
Q 2709 -91 1959 -91 
Q 1206 -91 779 398 
Q 353 888 353 1747 
Q 353 2609 779 3096 
Q 1206 3584 1959 3584 
z
" transform="scale(0.015625)"/>
       <path id="DejaVuSans-63" d="M 3122 3366 
L 3122 2828 
Q 2878 2963 2633 3030 
Q 2388 3097 2138 3097 
Q 1578 3097 1268 2742 
Q 959 2388 959 1747 
Q 959 1106 1268 751 
Q 1578 397 2138 397 
Q 2388 397 2633 464 
Q 2878 531 3122 666 
L 3122 134 
Q 2881 22 2623 -34 
Q 2366 -91 2075 -91 
Q 1284 -91 818 406 
Q 353 903 353 1747 
Q 353 2603 823 3093 
Q 1294 3584 2113 3584 
Q 2378 3584 2631 3529 
Q 2884 3475 3122 3366 
z
" transform="scale(0.015625)"/>
       <path id="DejaVuSans-68" d="M 3513 2113 
L 3513 0 
L 2938 0 
L 2938 2094 
Q 2938 2591 2744 2837 
Q 2550 3084 2163 3084 
Q 1697 3084 1428 2787 
Q 1159 2491 1159 1978 
L 1159 0 
L 581 0 
L 581 4863 
L 1159 4863 
L 1159 2956 
Q 1366 3272 1645 3428 
Q 1925 3584 2291 3584 
Q 2894 3584 3203 3211 
Q 3513 2838 3513 2113 
z
" transform="scale(0.015625)"/>
       <path id="DejaVuSans-73" d="M 2834 3397 
L 2834 2853 
Q 2591 2978 2328 3040 
Q 2066 3103 1784 3103 
Q 1356 3103 1142 2972 
Q 928 2841 928 2578 
Q 928 2378 1081 2264 
Q 1234 2150 1697 2047 
L 1894 2003 
Q 2506 1872 2764 1633 
Q 3022 1394 3022 966 
Q 3022 478 2636 193 
Q 2250 -91 1575 -91 
Q 1294 -91 989 -36 
Q 684 19 347 128 
L 347 722 
Q 666 556 975 473 
Q 1284 391 1588 391 
Q 1994 391 2212 530 
Q 2431 669 2431 922 
Q 2431 1156 2273 1281 
Q 2116 1406 1581 1522 
L 1381 1569 
Q 847 1681 609 1914 
Q 372 2147 372 2553 
Q 372 3047 722 3315 
Q 1072 3584 1716 3584 
Q 2034 3584 2315 3537 
Q 2597 3491 2834 3397 
z
" transform="scale(0.015625)"/>
      </defs>
      <use xlink:href="#DejaVuSans-45"/>
      <use xlink:href="#DejaVuSans-70" x="63.183594"/>
      <use xlink:href="#DejaVuSans-6f" x="126.660156"/>
      <use xlink:href="#DejaVuSans-63" x="187.841797"/>
      <use xlink:href="#DejaVuSans-68" x="242.822266"/>
      <use xlink:href="#DejaVuSans-73" x="306.201172"/>
     </g>
    </g>
   </g>
   <g id="matplotlib.axis_2">
    <g id="ytick_1">
     <g id="line2d_7">
      <path d="M 90 352.101733 
L 648 352.101733 
" clip-path="url(#p6fc7db95a3)" style="fill: none; stroke: #cccccc; stroke-width: 0.8; stroke-linecap: round"/>
     </g>
     <g id="text_8">
      <!-- 10 -->
      <g style="fill: #262626" transform="translate(70.275 355.900952)scale(0.1 -0.1)">
       <use xlink:href="#DejaVuSans-31"/>
       <use xlink:href="#DejaVuSans-30" x="63.623047"/>
      </g>
     </g>
    </g>
    <g id="ytick_2">
     <g id="line2d_8">
      <path d="M 90 287.737481 
L 648 287.737481 
" clip-path="url(#p6fc7db95a3)" style="fill: none; stroke: #cccccc; stroke-width: 0.8; stroke-linecap: round"/>
     </g>
     <g id="text_9">
      <!-- 20 -->
      <g style="fill: #262626" transform="translate(70.275 291.5367)scale(0.1 -0.1)">
       <use xlink:href="#DejaVuSans-32"/>
       <use xlink:href="#DejaVuSans-30" x="63.623047"/>
      </g>
     </g>
    </g>
    <g id="ytick_3">
     <g id="line2d_9">
      <path d="M 90 223.373229 
L 648 223.373229 
" clip-path="url(#p6fc7db95a3)" style="fill: none; stroke: #cccccc; stroke-width: 0.8; stroke-linecap: round"/>
     </g>
     <g id="text_10">
      <!-- 30 -->
      <g style="fill: #262626" transform="translate(70.275 227.172448)scale(0.1 -0.1)">
       <use xlink:href="#DejaVuSans-33"/>
       <use xlink:href="#DejaVuSans-30" x="63.623047"/>
      </g>
     </g>
    </g>
    <g id="ytick_4">
     <g id="line2d_10">
      <path d="M 90 159.008978 
L 648 159.008978 
" clip-path="url(#p6fc7db95a3)" style="fill: none; stroke: #cccccc; stroke-width: 0.8; stroke-linecap: round"/>
     </g>
     <g id="text_11">
      <!-- 40 -->
      <g style="fill: #262626" transform="translate(70.275 162.808196)scale(0.1 -0.1)">
       <use xlink:href="#DejaVuSans-34"/>
       <use xlink:href="#DejaVuSans-30" x="63.623047"/>
      </g>
     </g>
    </g>
    <g id="ytick_5">
     <g id="line2d_11">
      <path d="M 90 94.644726 
L 648 94.644726 
" clip-path="url(#p6fc7db95a3)" style="fill: none; stroke: #cccccc; stroke-width: 0.8; stroke-linecap: round"/>
     </g>
     <g id="text_12">
      <!-- 50 -->
      <g style="fill: #262626" transform="translate(70.275 98.443945)scale(0.1 -0.1)">
       <use xlink:href="#DejaVuSans-35"/>
       <use xlink:href="#DejaVuSans-30" x="63.623047"/>
      </g>
     </g>
    </g>
    <g id="text_13">
     <!-- Loss -->
     <g style="fill: #262626" transform="translate(64.195312 229.127187)rotate(-90)scale(0.1 -0.1)">
      <defs>
       <path id="DejaVuSans-4c" d="M 628 4666 
L 1259 4666 
L 1259 531 
L 3531 531 
L 3531 0 
L 628 0 
L 628 4666 
z
" transform="scale(0.015625)"/>
      </defs>
      <use xlink:href="#DejaVuSans-4c"/>
      <use xlink:href="#DejaVuSans-6f" x="53.962891"/>
      <use xlink:href="#DejaVuSans-73" x="115.144531"/>
      <use xlink:href="#DejaVuSans-73" x="167.244141"/>
     </g>
    </g>
   </g>
   <g id="line2d_12">
    <path d="M 115.363636 66.96 
L 117.396794 69.123734 
L 118.413372 70.706667 
L 119.429951 71.575083 
L 120.446529 73.097934 
L 121.463108 73.845082 
L 123.496265 76.972449 
L 124.512844 77.767402 
L 125.529422 79.241417 
L 126.546001 80.062347 
L 128.579158 82.477554 
L 129.595737 83.835335 
L 130.612316 84.618748 
L 131.628894 85.658323 
L 133.662051 88.399151 
L 134.67863 89.219271 
L 136.711787 91.532484 
L 137.728366 92.306641 
L 138.744944 93.445974 
L 139.761523 94.789957 
L 140.778102 95.561093 
L 141.79468 97.067568 
L 144.844416 100.213104 
L 145.860995 101.390715 
L 146.877573 102.127551 
L 149.927309 105.875225 
L 150.943888 106.558904 
L 152.977045 108.598915 
L 153.993624 110.005165 
L 155.010202 110.514885 
L 161.109674 117.035896 
L 162.126253 117.807769 
L 163.142831 118.778497 
L 164.15941 119.973443 
L 166.192567 121.770576 
L 167.209146 122.968788 
L 168.225724 123.761113 
L 173.308617 128.80413 
L 174.325196 129.622311 
L 178.39151 133.66273 
L 179.408089 134.387412 
L 180.424668 135.757568 
L 182.457825 137.289848 
L 183.474403 138.411504 
L 184.490982 139.326423 
L 185.507561 140.533375 
L 186.524139 141.278633 
L 187.540718 142.510286 
L 188.557296 143.127254 
L 189.573875 143.896229 
L 192.623611 147.069117 
L 193.640189 147.658488 
L 195.673347 149.8001 
L 196.689925 150.353426 
L 197.706504 151.567278 
L 199.739661 153.333229 
L 200.75624 154.144314 
L 202.789397 156.258819 
L 203.805976 156.83029 
L 205.839133 158.997462 
L 206.855711 159.464829 
L 207.87229 160.170826 
L 208.888869 161.513802 
L 210.922026 163.307302 
L 211.938604 164.055064 
L 212.955183 165.033207 
L 213.971762 165.714651 
L 220.071233 171.185775 
L 221.087812 171.642289 
L 222.104391 172.825425 
L 223.120969 173.30497 
L 224.137548 174.390655 
L 227.187284 176.656382 
L 230.237019 179.44671 
L 232.270177 181.000989 
L 233.286755 181.506757 
L 234.303334 182.721934 
L 236.336491 184.204224 
L 240.402806 187.249264 
L 242.435963 189.379705 
L 243.452541 189.946438 
L 244.46912 190.785979 
L 245.485699 191.339183 
L 247.518856 193.016743 
L 248.535435 194.060933 
L 249.552013 194.538858 
L 251.58517 196.260147 
L 252.601749 197.058071 
L 253.618328 197.679949 
L 257.684642 200.845545 
L 258.701221 201.442895 
L 259.717799 202.460568 
L 260.734378 202.726797 
L 261.750956 203.894243 
L 263.784114 205.244635 
L 265.817271 206.840458 
L 266.83385 207.331886 
L 267.850428 208.368294 
L 268.867007 209.061499 
L 271.916743 211.588605 
L 272.933321 212.198257 
L 273.9499 212.677986 
L 274.966478 213.758834 
L 275.983057 214.128394 
L 276.999636 215.167318 
L 278.016214 215.71593 
L 279.032793 216.484243 
L 280.049371 216.94099 
L 281.06595 217.858058 
L 282.082529 218.48961 
L 283.099107 219.329287 
L 285.132265 220.697209 
L 287.165422 222.33751 
L 288.182 222.742413 
L 289.198579 223.708206 
L 290.215158 224.384887 
L 291.231736 224.908591 
L 293.264893 226.351817 
L 296.314629 228.231657 
L 297.331208 229.308454 
L 298.347786 229.739433 
L 299.364365 230.696239 
L 302.414101 232.383571 
L 303.43068 233.270733 
L 304.447258 233.628728 
L 305.463837 234.64774 
L 306.480415 235.050581 
L 308.513573 236.745807 
L 309.530151 236.97965 
L 310.54673 238.052666 
L 316.646201 241.74787 
L 317.66278 242.511739 
L 320.712516 244.126725 
L 321.729095 245.037581 
L 324.77883 246.940648 
L 325.795409 247.26093 
L 326.811988 247.947457 
L 327.828566 248.966824 
L 330.878302 250.581271 
L 331.894881 251.265686 
L 332.911459 251.751111 
L 335.961195 253.702057 
L 337.994352 255.057997 
L 339.010931 255.917537 
L 340.02751 256.11568 
L 341.044088 256.902898 
L 342.060667 257.328377 
L 343.077245 258.109065 
L 344.093824 258.584141 
L 346.126981 259.951879 
L 347.14356 260.227916 
L 350.193296 262.224457 
L 351.209874 262.71963 
L 352.226453 263.389608 
L 354.25961 264.530513 
L 356.292767 265.640641 
L 357.309346 266.144346 
L 358.325925 266.794988 
L 359.342503 267.284416 
L 360.359082 268.237662 
L 361.37566 268.472278 
L 363.408818 269.647373 
L 365.441975 271.077341 
L 367.475132 271.83242 
L 368.491711 272.585497 
L 370.524868 273.616368 
L 371.541447 274.418024 
L 373.574604 275.313104 
L 374.591182 276.044943 
L 375.607761 276.120689 
L 376.62434 276.982831 
L 377.640918 277.615084 
L 379.674075 278.423651 
L 380.690654 279.364228 
L 381.707233 279.60378 
L 383.74039 280.921822 
L 384.756968 281.283734 
L 385.773547 282.040249 
L 386.790126 282.223009 
L 387.806704 283.123233 
L 388.823283 283.484666 
L 389.839862 283.667033 
L 391.873019 285.096596 
L 392.889597 285.470931 
L 394.922755 286.598737 
L 395.939333 287.332528 
L 396.955912 287.734891 
L 397.97249 287.877605 
L 398.989069 288.493689 
L 400.005648 289.33447 
L 401.022226 289.570867 
L 402.038805 289.974776 
L 403.055383 290.552877 
L 404.071962 290.939133 
L 405.088541 291.507854 
L 406.105119 291.898284 
L 408.138277 293.129446 
L 409.154855 293.57868 
L 410.171434 294.172568 
L 411.188012 294.543626 
L 412.204591 295.28574 
L 413.22117 295.626229 
L 414.237748 296.219762 
L 415.254327 296.659837 
L 416.270905 297.234513 
L 417.287484 297.536049 
L 418.304063 298.072532 
L 420.33722 298.931188 
L 421.353799 299.412022 
L 422.370377 300.156641 
L 424.403534 300.960003 
L 425.420113 301.256591 
L 426.436692 301.95316 
L 430.503006 303.608623 
L 434.56932 305.721802 
L 435.585899 305.749019 
L 436.602478 306.710491 
L 438.635635 307.345198 
L 439.652214 307.665738 
L 440.668792 308.447371 
L 442.701949 309.282701 
L 444.735107 310.100415 
L 445.751685 310.766636 
L 447.784842 311.398545 
L 448.801421 312.013365 
L 455.917471 314.749651 
L 456.93405 315.476052 
L 457.950629 315.598455 
L 458.967207 316.435602 
L 459.983786 316.693568 
L 463.033522 317.842674 
L 464.0501 318.489916 
L 465.066679 318.746875 
L 466.083257 319.285464 
L 467.099836 319.332489 
L 468.116415 320.219369 
L 470.149572 320.978959 
L 471.16615 321.190925 
L 472.182729 321.788895 
L 473.199308 322.006632 
L 475.232465 323.044138 
L 476.249044 323.346545 
L 477.265622 323.511627 
L 478.282201 323.790488 
L 479.298779 324.644945 
L 480.315358 324.665741 
L 481.331937 325.380823 
L 482.348515 325.501636 
L 483.365094 326.209414 
L 485.398251 326.841249 
L 486.41483 327.356175 
L 487.431408 327.601484 
L 489.464565 328.294094 
L 490.481144 328.455075 
L 491.497723 329.269757 
L 493.53088 330.06676 
L 495.564037 330.767675 
L 496.580616 331.180951 
L 497.597194 331.332124 
L 498.613773 331.935005 
L 499.630352 332.300881 
L 500.64693 332.810492 
L 502.680087 333.270406 
L 503.696666 333.783337 
L 504.713245 334.053752 
L 505.729823 334.441536 
L 506.746402 334.958414 
L 508.779559 335.585295 
L 509.796138 335.884559 
L 510.812716 336.321026 
L 511.829295 336.504106 
L 512.845874 337.10423 
L 514.879031 337.574482 
L 515.895609 338.151779 
L 521.995081 340.245359 
L 523.01166 340.495124 
L 524.028238 340.87003 
L 525.044817 341.529432 
L 526.061396 341.412026 
L 527.077974 341.930819 
L 528.094553 342.20337 
L 529.111131 342.812407 
L 530.12771 342.919022 
L 532.160867 343.684162 
L 533.177446 343.789691 
L 534.194024 344.44234 
L 535.210603 344.752144 
L 536.227182 344.787273 
L 537.24376 345.353122 
L 538.260339 345.766061 
L 540.293496 346.264266 
L 541.310075 346.724862 
L 542.326653 347.060434 
L 543.343232 347.039939 
L 544.359811 347.606297 
L 545.376389 347.888055 
L 546.392968 348.420438 
L 547.409546 348.427853 
L 548.426125 348.95368 
L 549.442704 349.154831 
L 550.459282 349.484977 
L 551.475861 349.945334 
L 553.509018 350.564334 
L 554.525597 350.439543 
L 555.542175 351.065522 
L 557.575332 351.787614 
L 558.591911 352.122517 
L 559.60849 352.293756 
L 563.674804 353.469612 
L 564.691383 354.188592 
L 565.707961 354.097696 
L 566.72454 354.523145 
L 567.741119 354.70275 
L 568.757697 355.086336 
L 569.774276 355.187899 
L 570.790854 355.522661 
L 571.807433 356.071955 
L 573.84059 356.367623 
L 574.857169 356.753713 
L 575.873747 356.769371 
L 576.890326 357.658264 
L 577.906905 357.633447 
L 578.923483 357.77141 
L 579.940062 358.241067 
L 580.956641 358.236917 
L 584.006376 359.522083 
L 585.022955 359.465746 
L 586.039534 359.892576 
L 587.056112 360.151395 
L 588.072691 360.257403 
L 589.089269 360.968397 
L 590.105848 360.740833 
L 591.122427 361.23926 
L 594.172163 362.17751 
L 595.188741 362.283622 
L 597.221898 362.97439 
L 598.238477 362.991577 
L 600.271634 363.704088 
L 601.288213 363.864861 
L 602.304791 364.268469 
L 604.337949 364.487433 
L 605.354527 365.153114 
L 606.371106 365.109511 
L 609.420842 366.04941 
L 610.43742 366.015941 
L 611.453999 366.46082 
L 612.470578 367.050046 
L 613.487156 367.016832 
L 614.503735 367.122914 
L 615.520313 367.513874 
L 616.536892 367.518453 
L 618.570049 368.404925 
L 619.586628 368.359673 
L 620.603206 368.66631 
L 621.619785 368.707958 
L 622.636364 369.254247 
L 622.636364 369.254247 
" clip-path="url(#p6fc7db95a3)" style="fill: none; stroke: #1f77b4; stroke-width: 1.5; stroke-linecap: round"/>
   </g>
   <g id="line2d_13">
    <path d="M 115.363636 69.214875 
L 116.380215 71.181154 
L 117.396794 72.710733 
L 119.429951 75.082947 
L 122.479687 78.101568 
L 128.579158 83.953362 
L 132.645473 87.999502 
L 145.860995 101.240746 
L 155.010202 110.75467 
L 164.15941 119.802185 
L 172.292039 127.575178 
L 174.325196 129.429766 
L 179.408089 134.289004 
L 183.474403 138.14417 
L 193.640189 147.380523 
L 196.689925 150.207753 
L 200.75624 153.882014 
L 203.805976 156.567942 
L 208.888869 161.09974 
L 218.038076 168.815058 
L 220.071233 170.418198 
L 227.187284 176.427401 
L 230.237019 178.967729 
L 235.319913 183.119398 
L 239.386227 186.446725 
L 247.518856 192.987746 
L 252.601749 196.793536 
L 259.717799 202.185796 
L 262.767535 204.508535 
L 278.016214 216.03232 
L 283.099107 219.623174 
L 287.165422 222.62888 
L 293.264893 226.798056 
L 299.364365 230.920556 
L 305.463837 234.939 
L 314.613044 240.828089 
L 318.679359 243.426277 
L 324.77883 247.397211 
L 329.861723 250.562365 
L 337.994352 255.567681 
L 351.209874 263.204368 
L 362.392239 269.547627 
L 385.773547 282.201194 
L 389.839862 284.245883 
L 402.038805 290.525672 
L 408.138277 293.509416 
L 414.237748 296.515699 
L 421.353799 299.97485 
L 437.619056 307.443288 
L 470.149572 321.328772 
L 484.381672 326.937804 
L 498.613773 332.264801 
L 511.829295 337.066204 
L 530.12771 343.314989 
L 539.276917 346.299322 
L 548.426125 349.235371 
L 561.641647 353.236849 
L 577.906905 357.901228 
L 598.238477 363.356171 
L 612.470578 366.927993 
L 622.636364 369.36 
L 622.636364 369.36 
" clip-path="url(#p6fc7db95a3)" style="fill: none; stroke-dasharray: 6,2.25; stroke-dashoffset: 0; stroke: #ff7f0e; stroke-width: 1.5"/>
   </g>
   <g id="line2d_14"/>
   <g id="line2d_15"/>
   <g id="patch_3">
    <path d="M 90 384.48 
L 90 51.84 
" style="fill: none; stroke: #cccccc; stroke-width: 0.8; stroke-linejoin: miter; stroke-linecap: square"/>
   </g>
   <g id="patch_4">
    <path d="M 648 384.48 
L 648 51.84 
" style="fill: none; stroke: #cccccc; stroke-width: 0.8; stroke-linejoin: miter; stroke-linecap: square"/>
   </g>
   <g id="patch_5">
    <path d="M 90 384.48 
L 648 384.48 
" style="fill: none; stroke: #cccccc; stroke-width: 0.8; stroke-linejoin: miter; stroke-linecap: square"/>
   </g>
   <g id="patch_6">
    <path d="M 90 51.84 
L 648 51.84 
" style="fill: none; stroke: #cccccc; stroke-width: 0.8; stroke-linejoin: miter; stroke-linecap: square"/>
   </g>
   <g id="legend_1">
    <g id="patch_7">
     <path d="M 559.61875 89.19625 
L 641 89.19625 
Q 643 89.19625 643 87.19625 
L 643 58.84 
Q 643 56.84 641 56.84 
L 559.61875 56.84 
Q 557.61875 56.84 557.61875 58.84 
L 557.61875 87.19625 
Q 557.61875 89.19625 559.61875 89.19625 
z
" style="fill: #ffffff; opacity: 0.8; stroke: #cccccc; stroke-linejoin: miter"/>
    </g>
    <g id="line2d_16">
     <path d="M 561.61875 64.938437 
L 571.61875 64.938437 
L 581.61875 64.938437 
" style="fill: none; stroke: #1f77b4; stroke-width: 1.5; stroke-linecap: round"/>
    </g>
    <g id="text_14">
     <!-- Training -->
     <g style="fill: #262626" transform="translate(589.61875 68.438437)scale(0.1 -0.1)">
      <defs>
       <path id="DejaVuSans-54" d="M -19 4666 
L 3928 4666 
L 3928 4134 
L 2272 4134 
L 2272 0 
L 1638 0 
L 1638 4134 
L -19 4134 
L -19 4666 
z
" transform="scale(0.015625)"/>
       <path id="DejaVuSans-72" d="M 2631 2963 
Q 2534 3019 2420 3045 
Q 2306 3072 2169 3072 
Q 1681 3072 1420 2755 
Q 1159 2438 1159 1844 
L 1159 0 
L 581 0 
L 581 3500 
L 1159 3500 
L 1159 2956 
Q 1341 3275 1631 3429 
Q 1922 3584 2338 3584 
Q 2397 3584 2469 3576 
Q 2541 3569 2628 3553 
L 2631 2963 
z
" transform="scale(0.015625)"/>
       <path id="DejaVuSans-61" d="M 2194 1759 
Q 1497 1759 1228 1600 
Q 959 1441 959 1056 
Q 959 750 1161 570 
Q 1363 391 1709 391 
Q 2188 391 2477 730 
Q 2766 1069 2766 1631 
L 2766 1759 
L 2194 1759 
z
M 3341 1997 
L 3341 0 
L 2766 0 
L 2766 531 
Q 2569 213 2275 61 
Q 1981 -91 1556 -91 
Q 1019 -91 701 211 
Q 384 513 384 1019 
Q 384 1609 779 1909 
Q 1175 2209 1959 2209 
L 2766 2209 
L 2766 2266 
Q 2766 2663 2505 2880 
Q 2244 3097 1772 3097 
Q 1472 3097 1187 3025 
Q 903 2953 641 2809 
L 641 3341 
Q 956 3463 1253 3523 
Q 1550 3584 1831 3584 
Q 2591 3584 2966 3190 
Q 3341 2797 3341 1997 
z
" transform="scale(0.015625)"/>
       <path id="DejaVuSans-69" d="M 603 3500 
L 1178 3500 
L 1178 0 
L 603 0 
L 603 3500 
z
M 603 4863 
L 1178 4863 
L 1178 4134 
L 603 4134 
L 603 4863 
z
" transform="scale(0.015625)"/>
       <path id="DejaVuSans-6e" d="M 3513 2113 
L 3513 0 
L 2938 0 
L 2938 2094 
Q 2938 2591 2744 2837 
Q 2550 3084 2163 3084 
Q 1697 3084 1428 2787 
Q 1159 2491 1159 1978 
L 1159 0 
L 581 0 
L 581 3500 
L 1159 3500 
L 1159 2956 
Q 1366 3272 1645 3428 
Q 1925 3584 2291 3584 
Q 2894 3584 3203 3211 
Q 3513 2838 3513 2113 
z
" transform="scale(0.015625)"/>
       <path id="DejaVuSans-67" d="M 2906 1791 
Q 2906 2416 2648 2759 
Q 2391 3103 1925 3103 
Q 1463 3103 1205 2759 
Q 947 2416 947 1791 
Q 947 1169 1205 825 
Q 1463 481 1925 481 
Q 2391 481 2648 825 
Q 2906 1169 2906 1791 
z
M 3481 434 
Q 3481 -459 3084 -895 
Q 2688 -1331 1869 -1331 
Q 1566 -1331 1297 -1286 
Q 1028 -1241 775 -1147 
L 775 -588 
Q 1028 -725 1275 -790 
Q 1522 -856 1778 -856 
Q 2344 -856 2625 -561 
Q 2906 -266 2906 331 
L 2906 616 
Q 2728 306 2450 153 
Q 2172 0 1784 0 
Q 1141 0 747 490 
Q 353 981 353 1791 
Q 353 2603 747 3093 
Q 1141 3584 1784 3584 
Q 2172 3584 2450 3431 
Q 2728 3278 2906 2969 
L 2906 3500 
L 3481 3500 
L 3481 434 
z
" transform="scale(0.015625)"/>
      </defs>
      <use xlink:href="#DejaVuSans-54"/>
      <use xlink:href="#DejaVuSans-72" x="46.333984"/>
      <use xlink:href="#DejaVuSans-61" x="87.447266"/>
      <use xlink:href="#DejaVuSans-69" x="148.726562"/>
      <use xlink:href="#DejaVuSans-6e" x="176.509766"/>
      <use xlink:href="#DejaVuSans-69" x="239.888672"/>
      <use xlink:href="#DejaVuSans-6e" x="267.671875"/>
      <use xlink:href="#DejaVuSans-67" x="331.050781"/>
     </g>
    </g>
    <g id="line2d_17">
     <path d="M 561.61875 79.616562 
L 571.61875 79.616562 
L 581.61875 79.616562 
" style="fill: none; stroke-dasharray: 6,2.25; stroke-dashoffset: 0; stroke: #ff7f0e; stroke-width: 1.5"/>
    </g>
    <g id="text_15">
     <!-- Validation -->
     <g style="fill: #262626" transform="translate(589.61875 83.116562)scale(0.1 -0.1)">
      <defs>
       <path id="DejaVuSans-56" d="M 1831 0 
L 50 4666 
L 709 4666 
L 2188 738 
L 3669 4666 
L 4325 4666 
L 2547 0 
L 1831 0 
z
" transform="scale(0.015625)"/>
       <path id="DejaVuSans-6c" d="M 603 4863 
L 1178 4863 
L 1178 0 
L 603 0 
L 603 4863 
z
" transform="scale(0.015625)"/>
       <path id="DejaVuSans-64" d="M 2906 2969 
L 2906 4863 
L 3481 4863 
L 3481 0 
L 2906 0 
L 2906 525 
Q 2725 213 2448 61 
Q 2172 -91 1784 -91 
Q 1150 -91 751 415 
Q 353 922 353 1747 
Q 353 2572 751 3078 
Q 1150 3584 1784 3584 
Q 2172 3584 2448 3432 
Q 2725 3281 2906 2969 
z
M 947 1747 
Q 947 1113 1208 752 
Q 1469 391 1925 391 
Q 2381 391 2643 752 
Q 2906 1113 2906 1747 
Q 2906 2381 2643 2742 
Q 2381 3103 1925 3103 
Q 1469 3103 1208 2742 
Q 947 2381 947 1747 
z
" transform="scale(0.015625)"/>
       <path id="DejaVuSans-74" d="M 1172 4494 
L 1172 3500 
L 2356 3500 
L 2356 3053 
L 1172 3053 
L 1172 1153 
Q 1172 725 1289 603 
Q 1406 481 1766 481 
L 2356 481 
L 2356 0 
L 1766 0 
Q 1100 0 847 248 
Q 594 497 594 1153 
L 594 3053 
L 172 3053 
L 172 3500 
L 594 3500 
L 594 4494 
L 1172 4494 
z
" transform="scale(0.015625)"/>
      </defs>
      <use xlink:href="#DejaVuSans-56"/>
      <use xlink:href="#DejaVuSans-61" x="60.658203"/>
      <use xlink:href="#DejaVuSans-6c" x="121.9375"/>
      <use xlink:href="#DejaVuSans-69" x="149.720703"/>
      <use xlink:href="#DejaVuSans-64" x="177.503906"/>
      <use xlink:href="#DejaVuSans-61" x="240.980469"/>
      <use xlink:href="#DejaVuSans-74" x="302.259766"/>
      <use xlink:href="#DejaVuSans-69" x="341.46875"/>
      <use xlink:href="#DejaVuSans-6f" x="369.251953"/>
      <use xlink:href="#DejaVuSans-6e" x="430.433594"/>
     </g>
    </g>
   </g>
  </g>
 </g>
 <defs>
  <clipPath id="p6fc7db95a3">
   <rect x="90" y="51.84" width="558" height="332.64"/>
  </clipPath>
 </defs>
</svg>
