<?xml version="1.0" encoding="utf-8" standalone="no"?>
<!DOCTYPE svg PUBLIC "-//W3C//DTD SVG 1.1//EN"
  "http://www.w3.org/Graphics/SVG/1.1/DTD/svg11.dtd">
<svg xmlns:xlink="http://www.w3.org/1999/xlink" width="720pt" height="432pt" viewBox="0 0 720 432" xmlns="http://www.w3.org/2000/svg" version="1.1">
 <metadata>
  <rdf:RDF xmlns:dc="http://purl.org/dc/elements/1.1/" xmlns:cc="http://creativecommons.org/ns#" xmlns:rdf="http://www.w3.org/1999/02/22-rdf-syntax-ns#">
   <cc:Work>
    <dc:type rdf:resource="http://purl.org/dc/dcmitype/StillImage"/>
    <dc:date>2022-06-30T00:21:46.222886</dc:date>
    <dc:format>image/svg+xml</dc:format>
    <dc:creator>
     <cc:Agent>
      <dc:title>Matplotlib v3.5.2, https://matplotlib.org/</dc:title>
     </cc:Agent>
    </dc:creator>
   </cc:Work>
  </rdf:RDF>
 </metadata>
 <defs>
  <style type="text/css">*{stroke-linejoin: round; stroke-linecap: butt}</style>
 </defs>
 <g id="figure_1">
  <g id="patch_1">
   <path d="M 0 432 
L 720 432 
L 720 0 
L 0 0 
z
" style="fill: #ffffff"/>
  </g>
  <g id="axes_1">
   <g id="patch_2">
    <path d="M 90 384.48 
L 648 384.48 
L 648 51.84 
L 90 51.84 
z
" style="fill: #ffffff"/>
   </g>
   <g id="matplotlib.axis_1">
    <g id="xtick_1">
     <g id="line2d_1">
      <path d="M 115.363636 384.48 
L 115.363636 51.84 
" clip-path="url(#pcbb0c0db77)" style="fill: none; stroke: #cccccc; stroke-width: 0.8; stroke-linecap: round"/>
     </g>
     <g id="text_1">
      <!-- 0 -->
      <g style="fill: #262626" transform="translate(112.182386 399.078438)scale(0.1 -0.1)">
       <defs>
        <path id="DejaVuSans-30" d="M 2034 4250 
Q 1547 4250 1301 3770 
Q 1056 3291 1056 2328 
Q 1056 1369 1301 889 
Q 1547 409 2034 409 
Q 2525 409 2770 889 
Q 3016 1369 3016 2328 
Q 3016 3291 2770 3770 
Q 2525 4250 2034 4250 
z
M 2034 4750 
Q 2819 4750 3233 4129 
Q 3647 3509 3647 2328 
Q 3647 1150 3233 529 
Q 2819 -91 2034 -91 
Q 1250 -91 836 529 
Q 422 1150 422 2328 
Q 422 3509 836 4129 
Q 1250 4750 2034 4750 
z
" transform="scale(0.015625)"/>
       </defs>
       <use xlink:href="#DejaVuSans-30"/>
      </g>
     </g>
    </g>
    <g id="xtick_2">
     <g id="line2d_2">
      <path d="M 235.286267 384.48 
L 235.286267 51.84 
" clip-path="url(#pcbb0c0db77)" style="fill: none; stroke: #cccccc; stroke-width: 0.8; stroke-linecap: round"/>
     </g>
     <g id="text_2">
      <!-- 100 -->
      <g style="fill: #262626" transform="translate(225.742517 399.078438)scale(0.1 -0.1)">
       <defs>
        <path id="DejaVuSans-31" d="M 794 531 
L 1825 531 
L 1825 4091 
L 703 3866 
L 703 4441 
L 1819 4666 
L 2450 4666 
L 2450 531 
L 3481 531 
L 3481 0 
L 794 0 
L 794 531 
z
" transform="scale(0.015625)"/>
       </defs>
       <use xlink:href="#DejaVuSans-31"/>
       <use xlink:href="#DejaVuSans-30" x="63.623047"/>
       <use xlink:href="#DejaVuSans-30" x="127.246094"/>
      </g>
     </g>
    </g>
    <g id="xtick_3">
     <g id="line2d_3">
      <path d="M 355.208897 384.48 
L 355.208897 51.84 
" clip-path="url(#pcbb0c0db77)" style="fill: none; stroke: #cccccc; stroke-width: 0.8; stroke-linecap: round"/>
     </g>
     <g id="text_3">
      <!-- 200 -->
      <g style="fill: #262626" transform="translate(345.665147 399.078438)scale(0.1 -0.1)">
       <defs>
        <path id="DejaVuSans-32" d="M 1228 531 
L 3431 531 
L 3431 0 
L 469 0 
L 469 531 
Q 828 903 1448 1529 
Q 2069 2156 2228 2338 
Q 2531 2678 2651 2914 
Q 2772 3150 2772 3378 
Q 2772 3750 2511 3984 
Q 2250 4219 1831 4219 
Q 1534 4219 1204 4116 
Q 875 4013 500 3803 
L 500 4441 
Q 881 4594 1212 4672 
Q 1544 4750 1819 4750 
Q 2544 4750 2975 4387 
Q 3406 4025 3406 3419 
Q 3406 3131 3298 2873 
Q 3191 2616 2906 2266 
Q 2828 2175 2409 1742 
Q 1991 1309 1228 531 
z
" transform="scale(0.015625)"/>
       </defs>
       <use xlink:href="#DejaVuSans-32"/>
       <use xlink:href="#DejaVuSans-30" x="63.623047"/>
       <use xlink:href="#DejaVuSans-30" x="127.246094"/>
      </g>
     </g>
    </g>
    <g id="xtick_4">
     <g id="line2d_4">
      <path d="M 475.131528 384.48 
L 475.131528 51.84 
" clip-path="url(#pcbb0c0db77)" style="fill: none; stroke: #cccccc; stroke-width: 0.8; stroke-linecap: round"/>
     </g>
     <g id="text_4">
      <!-- 300 -->
      <g style="fill: #262626" transform="translate(465.587778 399.078438)scale(0.1 -0.1)">
       <defs>
        <path id="DejaVuSans-33" d="M 2597 2516 
Q 3050 2419 3304 2112 
Q 3559 1806 3559 1356 
Q 3559 666 3084 287 
Q 2609 -91 1734 -91 
Q 1441 -91 1130 -33 
Q 819 25 488 141 
L 488 750 
Q 750 597 1062 519 
Q 1375 441 1716 441 
Q 2309 441 2620 675 
Q 2931 909 2931 1356 
Q 2931 1769 2642 2001 
Q 2353 2234 1838 2234 
L 1294 2234 
L 1294 2753 
L 1863 2753 
Q 2328 2753 2575 2939 
Q 2822 3125 2822 3475 
Q 2822 3834 2567 4026 
Q 2313 4219 1838 4219 
Q 1578 4219 1281 4162 
Q 984 4106 628 3988 
L 628 4550 
Q 988 4650 1302 4700 
Q 1616 4750 1894 4750 
Q 2613 4750 3031 4423 
Q 3450 4097 3450 3541 
Q 3450 3153 3228 2886 
Q 3006 2619 2597 2516 
z
" transform="scale(0.015625)"/>
       </defs>
       <use xlink:href="#DejaVuSans-33"/>
       <use xlink:href="#DejaVuSans-30" x="63.623047"/>
       <use xlink:href="#DejaVuSans-30" x="127.246094"/>
      </g>
     </g>
    </g>
    <g id="xtick_5">
     <g id="line2d_5">
      <path d="M 595.054159 384.48 
L 595.054159 51.84 
" clip-path="url(#pcbb0c0db77)" style="fill: none; stroke: #cccccc; stroke-width: 0.8; stroke-linecap: round"/>
     </g>
     <g id="text_5">
      <!-- 400 -->
      <g style="fill: #262626" transform="translate(585.510409 399.078438)scale(0.1 -0.1)">
       <defs>
        <path id="DejaVuSans-34" d="M 2419 4116 
L 825 1625 
L 2419 1625 
L 2419 4116 
z
M 2253 4666 
L 3047 4666 
L 3047 1625 
L 3713 1625 
L 3713 1100 
L 3047 1100 
L 3047 0 
L 2419 0 
L 2419 1100 
L 313 1100 
L 313 1709 
L 2253 4666 
z
" transform="scale(0.015625)"/>
       </defs>
       <use xlink:href="#DejaVuSans-34"/>
       <use xlink:href="#DejaVuSans-30" x="63.623047"/>
       <use xlink:href="#DejaVuSans-30" x="127.246094"/>
      </g>
     </g>
    </g>
    <g id="text_6">
     <!-- Epochs -->
     <g style="fill: #262626" transform="translate(351.084375 412.756563)scale(0.1 -0.1)">
      <defs>
       <path id="DejaVuSans-45" d="M 628 4666 
L 3578 4666 
L 3578 4134 
L 1259 4134 
L 1259 2753 
L 3481 2753 
L 3481 2222 
L 1259 2222 
L 1259 531 
L 3634 531 
L 3634 0 
L 628 0 
L 628 4666 
z
" transform="scale(0.015625)"/>
       <path id="DejaVuSans-70" d="M 1159 525 
L 1159 -1331 
L 581 -1331 
L 581 3500 
L 1159 3500 
L 1159 2969 
Q 1341 3281 1617 3432 
Q 1894 3584 2278 3584 
Q 2916 3584 3314 3078 
Q 3713 2572 3713 1747 
Q 3713 922 3314 415 
Q 2916 -91 2278 -91 
Q 1894 -91 1617 61 
Q 1341 213 1159 525 
z
M 3116 1747 
Q 3116 2381 2855 2742 
Q 2594 3103 2138 3103 
Q 1681 3103 1420 2742 
Q 1159 2381 1159 1747 
Q 1159 1113 1420 752 
Q 1681 391 2138 391 
Q 2594 391 2855 752 
Q 3116 1113 3116 1747 
z
" transform="scale(0.015625)"/>
       <path id="DejaVuSans-6f" d="M 1959 3097 
Q 1497 3097 1228 2736 
Q 959 2375 959 1747 
Q 959 1119 1226 758 
Q 1494 397 1959 397 
Q 2419 397 2687 759 
Q 2956 1122 2956 1747 
Q 2956 2369 2687 2733 
Q 2419 3097 1959 3097 
z
M 1959 3584 
Q 2709 3584 3137 3096 
Q 3566 2609 3566 1747 
Q 3566 888 3137 398 
Q 2709 -91 1959 -91 
Q 1206 -91 779 398 
Q 353 888 353 1747 
Q 353 2609 779 3096 
Q 1206 3584 1959 3584 
z
" transform="scale(0.015625)"/>
       <path id="DejaVuSans-63" d="M 3122 3366 
L 3122 2828 
Q 2878 2963 2633 3030 
Q 2388 3097 2138 3097 
Q 1578 3097 1268 2742 
Q 959 2388 959 1747 
Q 959 1106 1268 751 
Q 1578 397 2138 397 
Q 2388 397 2633 464 
Q 2878 531 3122 666 
L 3122 134 
Q 2881 22 2623 -34 
Q 2366 -91 2075 -91 
Q 1284 -91 818 406 
Q 353 903 353 1747 
Q 353 2603 823 3093 
Q 1294 3584 2113 3584 
Q 2378 3584 2631 3529 
Q 2884 3475 3122 3366 
z
" transform="scale(0.015625)"/>
       <path id="DejaVuSans-68" d="M 3513 2113 
L 3513 0 
L 2938 0 
L 2938 2094 
Q 2938 2591 2744 2837 
Q 2550 3084 2163 3084 
Q 1697 3084 1428 2787 
Q 1159 2491 1159 1978 
L 1159 0 
L 581 0 
L 581 4863 
L 1159 4863 
L 1159 2956 
Q 1366 3272 1645 3428 
Q 1925 3584 2291 3584 
Q 2894 3584 3203 3211 
Q 3513 2838 3513 2113 
z
" transform="scale(0.015625)"/>
       <path id="DejaVuSans-73" d="M 2834 3397 
L 2834 2853 
Q 2591 2978 2328 3040 
Q 2066 3103 1784 3103 
Q 1356 3103 1142 2972 
Q 928 2841 928 2578 
Q 928 2378 1081 2264 
Q 1234 2150 1697 2047 
L 1894 2003 
Q 2506 1872 2764 1633 
Q 3022 1394 3022 966 
Q 3022 478 2636 193 
Q 2250 -91 1575 -91 
Q 1294 -91 989 -36 
Q 684 19 347 128 
L 347 722 
Q 666 556 975 473 
Q 1284 391 1588 391 
Q 1994 391 2212 530 
Q 2431 669 2431 922 
Q 2431 1156 2273 1281 
Q 2116 1406 1581 1522 
L 1381 1569 
Q 847 1681 609 1914 
Q 372 2147 372 2553 
Q 372 3047 722 3315 
Q 1072 3584 1716 3584 
Q 2034 3584 2315 3537 
Q 2597 3491 2834 3397 
z
" transform="scale(0.015625)"/>
      </defs>
      <use xlink:href="#DejaVuSans-45"/>
      <use xlink:href="#DejaVuSans-70" x="63.183594"/>
      <use xlink:href="#DejaVuSans-6f" x="126.660156"/>
      <use xlink:href="#DejaVuSans-63" x="187.841797"/>
      <use xlink:href="#DejaVuSans-68" x="242.822266"/>
      <use xlink:href="#DejaVuSans-73" x="306.201172"/>
     </g>
    </g>
   </g>
   <g id="matplotlib.axis_2">
    <g id="ytick_1">
     <g id="line2d_6">
      <path d="M 90 374.103231 
L 648 374.103231 
" clip-path="url(#pcbb0c0db77)" style="fill: none; stroke: #cccccc; stroke-width: 0.8; stroke-linecap: round"/>
     </g>
     <g id="text_7">
      <!-- 0 -->
      <g style="fill: #262626" transform="translate(76.6375 377.90245)scale(0.1 -0.1)">
       <use xlink:href="#DejaVuSans-30"/>
      </g>
     </g>
    </g>
    <g id="ytick_2">
     <g id="line2d_7">
      <path d="M 90 317.310751 
L 648 317.310751 
" clip-path="url(#pcbb0c0db77)" style="fill: none; stroke: #cccccc; stroke-width: 0.8; stroke-linecap: round"/>
     </g>
     <g id="text_8">
      <!-- 10 -->
      <g style="fill: #262626" transform="translate(70.275 321.10997)scale(0.1 -0.1)">
       <use xlink:href="#DejaVuSans-31"/>
       <use xlink:href="#DejaVuSans-30" x="63.623047"/>
      </g>
     </g>
    </g>
    <g id="ytick_3">
     <g id="line2d_8">
      <path d="M 90 260.518271 
L 648 260.518271 
" clip-path="url(#pcbb0c0db77)" style="fill: none; stroke: #cccccc; stroke-width: 0.8; stroke-linecap: round"/>
     </g>
     <g id="text_9">
      <!-- 20 -->
      <g style="fill: #262626" transform="translate(70.275 264.31749)scale(0.1 -0.1)">
       <use xlink:href="#DejaVuSans-32"/>
       <use xlink:href="#DejaVuSans-30" x="63.623047"/>
      </g>
     </g>
    </g>
    <g id="ytick_4">
     <g id="line2d_9">
      <path d="M 90 203.725791 
L 648 203.725791 
" clip-path="url(#pcbb0c0db77)" style="fill: none; stroke: #cccccc; stroke-width: 0.8; stroke-linecap: round"/>
     </g>
     <g id="text_10">
      <!-- 30 -->
      <g style="fill: #262626" transform="translate(70.275 207.52501)scale(0.1 -0.1)">
       <use xlink:href="#DejaVuSans-33"/>
       <use xlink:href="#DejaVuSans-30" x="63.623047"/>
      </g>
     </g>
    </g>
    <g id="ytick_5">
     <g id="line2d_10">
      <path d="M 90 146.933311 
L 648 146.933311 
" clip-path="url(#pcbb0c0db77)" style="fill: none; stroke: #cccccc; stroke-width: 0.8; stroke-linecap: round"/>
     </g>
     <g id="text_11">
      <!-- 40 -->
      <g style="fill: #262626" transform="translate(70.275 150.73253)scale(0.1 -0.1)">
       <use xlink:href="#DejaVuSans-34"/>
       <use xlink:href="#DejaVuSans-30" x="63.623047"/>
      </g>
     </g>
    </g>
    <g id="ytick_6">
     <g id="line2d_11">
      <path d="M 90 90.140831 
L 648 90.140831 
" clip-path="url(#pcbb0c0db77)" style="fill: none; stroke: #cccccc; stroke-width: 0.8; stroke-linecap: round"/>
     </g>
     <g id="text_12">
      <!-- 50 -->
      <g style="fill: #262626" transform="translate(70.275 93.94005)scale(0.1 -0.1)">
       <defs>
        <path id="DejaVuSans-35" d="M 691 4666 
L 3169 4666 
L 3169 4134 
L 1269 4134 
L 1269 2991 
Q 1406 3038 1543 3061 
Q 1681 3084 1819 3084 
Q 2600 3084 3056 2656 
Q 3513 2228 3513 1497 
Q 3513 744 3044 326 
Q 2575 -91 1722 -91 
Q 1428 -91 1123 -41 
Q 819 9 494 109 
L 494 744 
Q 775 591 1075 516 
Q 1375 441 1709 441 
Q 2250 441 2565 725 
Q 2881 1009 2881 1497 
Q 2881 1984 2565 2268 
Q 2250 2553 1709 2553 
Q 1456 2553 1204 2497 
Q 953 2441 691 2322 
L 691 4666 
z
" transform="scale(0.015625)"/>
       </defs>
       <use xlink:href="#DejaVuSans-35"/>
       <use xlink:href="#DejaVuSans-30" x="63.623047"/>
      </g>
     </g>
    </g>
    <g id="text_13">
     <!-- Loss -->
     <g style="fill: #262626" transform="translate(64.195312 229.127187)rotate(-90)scale(0.1 -0.1)">
      <defs>
       <path id="DejaVuSans-4c" d="M 628 4666 
L 1259 4666 
L 1259 531 
L 3531 531 
L 3531 0 
L 628 0 
L 628 4666 
z
" transform="scale(0.015625)"/>
      </defs>
      <use xlink:href="#DejaVuSans-4c"/>
      <use xlink:href="#DejaVuSans-6f" x="53.962891"/>
      <use xlink:href="#DejaVuSans-73" x="115.144531"/>
      <use xlink:href="#DejaVuSans-73" x="167.244141"/>
     </g>
    </g>
   </g>
   <g id="line2d_12">
    <path d="M 115.363636 66.96 
L 116.562863 69.507433 
L 117.762089 71.468276 
L 118.961315 73.722479 
L 120.160542 75.657648 
L 122.558994 79.989141 
L 126.156673 86.106317 
L 132.152805 96.14663 
L 134.551257 99.958713 
L 141.746615 111.418491 
L 142.945841 113.09856 
L 144.145068 115.104379 
L 145.344294 116.638796 
L 151.340426 125.898316 
L 152.539652 127.330716 
L 154.938104 131.285634 
L 156.137331 132.543914 
L 157.336557 134.453477 
L 162.133462 141.186708 
L 164.531915 144.610345 
L 165.731141 145.763444 
L 166.930368 147.794805 
L 169.32882 150.997766 
L 170.528046 152.758362 
L 171.727273 154.122344 
L 172.926499 155.959872 
L 176.524178 160.260991 
L 177.723404 162.187191 
L 178.922631 163.368064 
L 180.121857 165.112044 
L 181.321083 166.495026 
L 182.520309 168.221305 
L 186.117988 172.375711 
L 187.317215 173.999409 
L 188.516441 175.365146 
L 189.715667 177.077409 
L 190.914894 178.188218 
L 192.11412 180.010342 
L 195.711799 184.144687 
L 196.911025 185.715804 
L 199.309478 188.224263 
L 201.70793 190.996164 
L 202.907157 192.198853 
L 204.106383 193.861699 
L 205.305609 194.939448 
L 212.500967 203.014672 
L 213.700193 204.302557 
L 214.89942 205.289781 
L 220.895551 211.764207 
L 222.094778 212.880119 
L 223.294004 214.181848 
L 225.692456 216.507208 
L 226.891683 217.943529 
L 229.290135 220.096796 
L 230.489362 221.535066 
L 231.688588 222.416415 
L 232.887814 223.852963 
L 235.286267 226.095261 
L 240.083172 230.619081 
L 241.282398 231.562456 
L 242.481625 232.855757 
L 244.880077 235.093116 
L 246.079304 236.151606 
L 247.27853 237.452652 
L 248.477756 238.303205 
L 250.876209 240.284986 
L 252.075435 241.561649 
L 253.274662 242.482049 
L 255.673114 244.908225 
L 256.87234 245.750924 
L 259.270793 247.683744 
L 260.470019 249.046653 
L 261.669246 249.767608 
L 265.266925 252.879979 
L 266.466151 253.657576 
L 267.665377 254.80605 
L 268.864603 255.724521 
L 270.06383 256.798587 
L 273.661509 259.565537 
L 276.059961 261.491413 
L 278.458414 263.289121 
L 279.65764 264.337558 
L 280.856867 265.102243 
L 284.454545 267.91301 
L 285.653772 268.695297 
L 286.852998 269.789858 
L 288.052224 270.420082 
L 289.251451 271.586851 
L 290.450677 272.345676 
L 291.649903 273.338836 
L 294.048356 274.949448 
L 295.247582 275.647894 
L 298.845261 278.361668 
L 313.235977 287.969235 
L 315.634429 289.384617 
L 316.833656 290.152162 
L 318.032882 290.784525 
L 319.232108 291.722922 
L 322.829787 293.924025 
L 324.029014 294.517397 
L 326.427466 295.991511 
L 328.825919 297.439536 
L 330.025145 298.403541 
L 331.224371 298.882226 
L 333.622824 300.303852 
L 337.220503 302.280667 
L 338.419729 303.073884 
L 339.618956 303.733382 
L 340.818182 304.186779 
L 342.017408 305.112405 
L 343.216634 305.700285 
L 344.415861 306.515086 
L 345.615087 306.955841 
L 349.212766 308.875987 
L 350.411992 309.37138 
L 351.611219 310.14836 
L 352.810445 310.70006 
L 354.009671 311.114781 
L 355.208897 311.931201 
L 356.408124 312.594289 
L 357.60735 313.047453 
L 358.806576 313.83468 
L 361.205029 314.644054 
L 363.603482 316.044021 
L 364.802708 316.596978 
L 366.001934 317.325266 
L 369.599613 318.691507 
L 373.197292 320.459345 
L 375.595745 321.422429 
L 376.794971 322.221891 
L 382.791103 324.49725 
L 383.990329 325.12216 
L 385.189555 325.591069 
L 386.388781 326.205791 
L 391.185687 328.130714 
L 395.982592 330.160298 
L 397.181818 330.412842 
L 401.978723 332.340611 
L 405.576402 333.695605 
L 412.77176 336.19409 
L 413.970986 336.785756 
L 416.369439 337.321717 
L 417.568665 337.916329 
L 418.767892 338.031815 
L 419.967118 338.67179 
L 421.166344 338.918166 
L 422.365571 339.484484 
L 424.764023 340.130834 
L 425.96325 340.638279 
L 428.361702 341.246202 
L 429.560928 341.745698 
L 430.760155 341.90359 
L 431.959381 342.378175 
L 436.756286 343.748061 
L 439.154739 344.598502 
L 440.353965 344.802751 
L 442.752418 345.530008 
L 449.947776 347.383843 
L 451.147002 347.860481 
L 453.545455 348.332463 
L 454.744681 348.755727 
L 455.943907 349.007102 
L 457.143133 349.124684 
L 458.34236 349.748175 
L 459.541586 349.690304 
L 460.740812 350.143516 
L 461.940039 350.254052 
L 466.736944 351.645955 
L 469.135397 352.169664 
L 470.334623 352.549326 
L 473.932302 353.101478 
L 475.131528 353.29829 
L 478.729207 354.126665 
L 484.725338 355.41238 
L 485.924565 355.467524 
L 488.323017 356.182377 
L 489.522244 356.161829 
L 494.319149 357.024968 
L 495.518375 357.42244 
L 499.116054 357.95206 
L 500.31528 358.331242 
L 501.514507 358.317485 
L 502.713733 358.435777 
L 511.108317 360.038247 
L 513.50677 360.105766 
L 514.705996 360.543677 
L 515.905222 360.523473 
L 518.303675 360.952548 
L 520.702128 361.211967 
L 521.901354 361.488876 
L 523.10058 361.619291 
L 524.299807 361.888367 
L 526.698259 361.951484 
L 529.096712 362.322709 
L 530.295938 362.337095 
L 531.495164 362.501773 
L 532.694391 362.888502 
L 537.491296 363.221877 
L 538.690522 363.568815 
L 542.288201 363.945298 
L 544.686654 364.229428 
L 545.88588 364.164264 
L 547.085106 364.505221 
L 553.081238 364.973677 
L 555.479691 365.29603 
L 556.678917 365.295803 
L 557.878143 365.520113 
L 560.276596 365.565646 
L 561.475822 365.779725 
L 565.073501 366.000231 
L 566.272727 366.223286 
L 568.67118 366.134819 
L 572.268859 366.588624 
L 579.464217 367.076437 
L 581.862669 367.264824 
L 583.061896 367.452928 
L 586.659574 367.41345 
L 587.858801 367.716019 
L 596.253385 368.055485 
L 597.452611 368.278237 
L 599.851064 368.31076 
L 601.05029 368.491317 
L 602.249516 368.404156 
L 603.448743 368.525769 
L 604.647969 368.455071 
L 605.847195 368.703392 
L 607.046422 368.644565 
L 614.241779 368.974178 
L 615.441006 368.901269 
L 617.839458 369.129074 
L 621.437137 369.20489 
L 622.636364 369.36 
L 622.636364 369.36 
" clip-path="url(#pcbb0c0db77)" style="fill: none; stroke: #1f77b4; stroke-width: 1.5; stroke-linecap: round"/>
   </g>
   <g id="line2d_13">
    <path d="M 115.363636 71.25111 
L 116.562863 73.154541 
L 117.762089 74.816325 
L 120.160542 76.956983 
L 121.359768 78.116885 
L 122.558994 79.11818 
L 123.758221 80.474428 
L 124.957447 82.222372 
L 128.555126 86.72456 
L 129.754352 88.534379 
L 132.152805 91.7311 
L 134.551257 95.265877 
L 139.348162 101.728084 
L 141.746615 105.470971 
L 142.945841 107.227819 
L 144.145068 109.252009 
L 154.938104 124.68824 
L 157.336557 128.582475 
L 159.73501 132.162249 
L 165.731141 141.071734 
L 168.129594 144.148065 
L 170.528046 147.578657 
L 175.324952 154.044655 
L 180.121857 160.667375 
L 182.520309 163.95368 
L 190.914894 174.963896 
L 195.711799 180.976367 
L 201.70793 188.662777 
L 208.903288 196.934185 
L 213.700193 201.809253 
L 217.297872 205.752657 
L 226.891683 216.14841 
L 229.290135 218.494958 
L 242.481625 230.924812 
L 244.880077 233.041976 
L 253.274662 240.810039 
L 259.270793 245.713661 
L 264.067698 249.871804 
L 280.856867 263.236021 
L 283.255319 265.025724 
L 285.653772 267.08527 
L 288.052224 268.959021 
L 292.84913 272.865692 
L 294.048356 273.854205 
L 296.446809 275.454559 
L 301.243714 278.999333 
L 324.029014 294.298595 
L 326.427466 295.70907 
L 338.419729 302.281398 
L 340.818182 303.57418 
L 344.415861 305.542491 
L 348.01354 307.638986 
L 350.411992 308.839834 
L 355.208897 311.28716 
L 360.005803 313.928846 
L 369.599613 318.376482 
L 389.98646 327.268663 
L 399.580271 330.846549 
L 401.978723 331.639609 
L 407.974855 333.879337 
L 413.970986 336.064116 
L 418.767892 337.619323 
L 423.564797 339.079684 
L 425.96325 339.777877 
L 429.560928 340.869746 
L 435.55706 342.899498 
L 442.752418 344.973812 
L 447.549323 346.289634 
L 457.143133 348.809978 
L 467.93617 351.152651 
L 478.729207 353.609816 
L 495.518375 356.668173 
L 502.713733 357.909748 
L 505.112186 358.338784 
L 509.909091 359.101756 
L 511.108317 359.382807 
L 513.50677 359.407281 
L 530.295938 361.914312 
L 531.495164 361.947709 
L 533.893617 362.329276 
L 535.092843 362.382686 
L 538.690522 362.913543 
L 542.288201 363.239611 
L 544.686654 363.595695 
L 548.284333 364.016092 
L 549.483559 364.087571 
L 551.882012 364.390706 
L 553.081238 364.527713 
L 554.280464 364.497146 
L 556.678917 364.817127 
L 560.276596 364.926695 
L 562.675048 365.035293 
L 563.874275 365.198804 
L 566.272727 365.257849 
L 567.471954 365.457633 
L 572.268859 365.636052 
L 573.468085 365.815458 
L 577.065764 366.098163 
L 578.26499 365.946648 
L 590.257253 366.887203 
L 595.054159 367.35644 
L 599.851064 367.941937 
L 601.05029 367.929706 
L 604.647969 368.338122 
L 607.046422 368.395947 
L 616.640232 369.020573 
L 617.839458 368.88092 
L 619.038685 369.207368 
L 620.237911 368.958742 
L 621.437137 369.138717 
L 622.636364 369.191216 
L 622.636364 369.191216 
" clip-path="url(#pcbb0c0db77)" style="fill: none; stroke-dasharray: 6,2.25; stroke-dashoffset: 0; stroke: #ff7f0e; stroke-width: 1.5"/>
   </g>
   <g id="line2d_14"/>
   <g id="line2d_15"/>
   <g id="patch_3">
    <path d="M 90 384.48 
L 90 51.84 
" style="fill: none; stroke: #cccccc; stroke-width: 0.8; stroke-linejoin: miter; stroke-linecap: square"/>
   </g>
   <g id="patch_4">
    <path d="M 648 384.48 
L 648 51.84 
" style="fill: none; stroke: #cccccc; stroke-width: 0.8; stroke-linejoin: miter; stroke-linecap: square"/>
   </g>
   <g id="patch_5">
    <path d="M 90 384.48 
L 648 384.48 
" style="fill: none; stroke: #cccccc; stroke-width: 0.8; stroke-linejoin: miter; stroke-linecap: square"/>
   </g>
   <g id="patch_6">
    <path d="M 90 51.84 
L 648 51.84 
" style="fill: none; stroke: #cccccc; stroke-width: 0.8; stroke-linejoin: miter; stroke-linecap: square"/>
   </g>
   <g id="legend_1">
    <g id="patch_7">
     <path d="M 559.61875 89.19625 
L 641 89.19625 
Q 643 89.19625 643 87.19625 
L 643 58.84 
Q 643 56.84 641 56.84 
L 559.61875 56.84 
Q 557.61875 56.84 557.61875 58.84 
L 557.61875 87.19625 
Q 557.61875 89.19625 559.61875 89.19625 
z
" style="fill: #ffffff; opacity: 0.8; stroke: #cccccc; stroke-linejoin: miter"/>
    </g>
    <g id="line2d_16">
     <path d="M 561.61875 64.938437 
L 571.61875 64.938437 
L 581.61875 64.938437 
" style="fill: none; stroke: #1f77b4; stroke-width: 1.5; stroke-linecap: round"/>
    </g>
    <g id="text_14">
     <!-- Training -->
     <g style="fill: #262626" transform="translate(589.61875 68.438437)scale(0.1 -0.1)">
      <defs>
       <path id="DejaVuSans-54" d="M -19 4666 
L 3928 4666 
L 3928 4134 
L 2272 4134 
L 2272 0 
L 1638 0 
L 1638 4134 
L -19 4134 
L -19 4666 
z
" transform="scale(0.015625)"/>
       <path id="DejaVuSans-72" d="M 2631 2963 
Q 2534 3019 2420 3045 
Q 2306 3072 2169 3072 
Q 1681 3072 1420 2755 
Q 1159 2438 1159 1844 
L 1159 0 
L 581 0 
L 581 3500 
L 1159 3500 
L 1159 2956 
Q 1341 3275 1631 3429 
Q 1922 3584 2338 3584 
Q 2397 3584 2469 3576 
Q 2541 3569 2628 3553 
L 2631 2963 
z
" transform="scale(0.015625)"/>
       <path id="DejaVuSans-61" d="M 2194 1759 
Q 1497 1759 1228 1600 
Q 959 1441 959 1056 
Q 959 750 1161 570 
Q 1363 391 1709 391 
Q 2188 391 2477 730 
Q 2766 1069 2766 1631 
L 2766 1759 
L 2194 1759 
z
M 3341 1997 
L 3341 0 
L 2766 0 
L 2766 531 
Q 2569 213 2275 61 
Q 1981 -91 1556 -91 
Q 1019 -91 701 211 
Q 384 513 384 1019 
Q 384 1609 779 1909 
Q 1175 2209 1959 2209 
L 2766 2209 
L 2766 2266 
Q 2766 2663 2505 2880 
Q 2244 3097 1772 3097 
Q 1472 3097 1187 3025 
Q 903 2953 641 2809 
L 641 3341 
Q 956 3463 1253 3523 
Q 1550 3584 1831 3584 
Q 2591 3584 2966 3190 
Q 3341 2797 3341 1997 
z
" transform="scale(0.015625)"/>
       <path id="DejaVuSans-69" d="M 603 3500 
L 1178 3500 
L 1178 0 
L 603 0 
L 603 3500 
z
M 603 4863 
L 1178 4863 
L 1178 4134 
L 603 4134 
L 603 4863 
z
" transform="scale(0.015625)"/>
       <path id="DejaVuSans-6e" d="M 3513 2113 
L 3513 0 
L 2938 0 
L 2938 2094 
Q 2938 2591 2744 2837 
Q 2550 3084 2163 3084 
Q 1697 3084 1428 2787 
Q 1159 2491 1159 1978 
L 1159 0 
L 581 0 
L 581 3500 
L 1159 3500 
L 1159 2956 
Q 1366 3272 1645 3428 
Q 1925 3584 2291 3584 
Q 2894 3584 3203 3211 
Q 3513 2838 3513 2113 
z
" transform="scale(0.015625)"/>
       <path id="DejaVuSans-67" d="M 2906 1791 
Q 2906 2416 2648 2759 
Q 2391 3103 1925 3103 
Q 1463 3103 1205 2759 
Q 947 2416 947 1791 
Q 947 1169 1205 825 
Q 1463 481 1925 481 
Q 2391 481 2648 825 
Q 2906 1169 2906 1791 
z
M 3481 434 
Q 3481 -459 3084 -895 
Q 2688 -1331 1869 -1331 
Q 1566 -1331 1297 -1286 
Q 1028 -1241 775 -1147 
L 775 -588 
Q 1028 -725 1275 -790 
Q 1522 -856 1778 -856 
Q 2344 -856 2625 -561 
Q 2906 -266 2906 331 
L 2906 616 
Q 2728 306 2450 153 
Q 2172 0 1784 0 
Q 1141 0 747 490 
Q 353 981 353 1791 
Q 353 2603 747 3093 
Q 1141 3584 1784 3584 
Q 2172 3584 2450 3431 
Q 2728 3278 2906 2969 
L 2906 3500 
L 3481 3500 
L 3481 434 
z
" transform="scale(0.015625)"/>
      </defs>
      <use xlink:href="#DejaVuSans-54"/>
      <use xlink:href="#DejaVuSans-72" x="46.333984"/>
      <use xlink:href="#DejaVuSans-61" x="87.447266"/>
      <use xlink:href="#DejaVuSans-69" x="148.726562"/>
      <use xlink:href="#DejaVuSans-6e" x="176.509766"/>
      <use xlink:href="#DejaVuSans-69" x="239.888672"/>
      <use xlink:href="#DejaVuSans-6e" x="267.671875"/>
      <use xlink:href="#DejaVuSans-67" x="331.050781"/>
     </g>
    </g>
    <g id="line2d_17">
     <path d="M 561.61875 79.616562 
L 571.61875 79.616562 
L 581.61875 79.616562 
" style="fill: none; stroke-dasharray: 6,2.25; stroke-dashoffset: 0; stroke: #ff7f0e; stroke-width: 1.5"/>
    </g>
    <g id="text_15">
     <!-- Validation -->
     <g style="fill: #262626" transform="translate(589.61875 83.116562)scale(0.1 -0.1)">
      <defs>
       <path id="DejaVuSans-56" d="M 1831 0 
L 50 4666 
L 709 4666 
L 2188 738 
L 3669 4666 
L 4325 4666 
L 2547 0 
L 1831 0 
z
" transform="scale(0.015625)"/>
       <path id="DejaVuSans-6c" d="M 603 4863 
L 1178 4863 
L 1178 0 
L 603 0 
L 603 4863 
z
" transform="scale(0.015625)"/>
       <path id="DejaVuSans-64" d="M 2906 2969 
L 2906 4863 
L 3481 4863 
L 3481 0 
L 2906 0 
L 2906 525 
Q 2725 213 2448 61 
Q 2172 -91 1784 -91 
Q 1150 -91 751 415 
Q 353 922 353 1747 
Q 353 2572 751 3078 
Q 1150 3584 1784 3584 
Q 2172 3584 2448 3432 
Q 2725 3281 2906 2969 
z
M 947 1747 
Q 947 1113 1208 752 
Q 1469 391 1925 391 
Q 2381 391 2643 752 
Q 2906 1113 2906 1747 
Q 2906 2381 2643 2742 
Q 2381 3103 1925 3103 
Q 1469 3103 1208 2742 
Q 947 2381 947 1747 
z
" transform="scale(0.015625)"/>
       <path id="DejaVuSans-74" d="M 1172 4494 
L 1172 3500 
L 2356 3500 
L 2356 3053 
L 1172 3053 
L 1172 1153 
Q 1172 725 1289 603 
Q 1406 481 1766 481 
L 2356 481 
L 2356 0 
L 1766 0 
Q 1100 0 847 248 
Q 594 497 594 1153 
L 594 3053 
L 172 3053 
L 172 3500 
L 594 3500 
L 594 4494 
L 1172 4494 
z
" transform="scale(0.015625)"/>
      </defs>
      <use xlink:href="#DejaVuSans-56"/>
      <use xlink:href="#DejaVuSans-61" x="60.658203"/>
      <use xlink:href="#DejaVuSans-6c" x="121.9375"/>
      <use xlink:href="#DejaVuSans-69" x="149.720703"/>
      <use xlink:href="#DejaVuSans-64" x="177.503906"/>
      <use xlink:href="#DejaVuSans-61" x="240.980469"/>
      <use xlink:href="#DejaVuSans-74" x="302.259766"/>
      <use xlink:href="#DejaVuSans-69" x="341.46875"/>
      <use xlink:href="#DejaVuSans-6f" x="369.251953"/>
      <use xlink:href="#DejaVuSans-6e" x="430.433594"/>
     </g>
    </g>
   </g>
  </g>
 </g>
 <defs>
  <clipPath id="pcbb0c0db77">
   <rect x="90" y="51.84" width="558" height="332.64"/>
  </clipPath>
 </defs>
</svg>
