<?xml version="1.0" encoding="utf-8" standalone="no"?>
<!DOCTYPE svg PUBLIC "-//W3C//DTD SVG 1.1//EN"
  "http://www.w3.org/Graphics/SVG/1.1/DTD/svg11.dtd">
<svg xmlns:xlink="http://www.w3.org/1999/xlink" width="720pt" height="432pt" viewBox="0 0 720 432" xmlns="http://www.w3.org/2000/svg" version="1.1">
 <metadata>
  <rdf:RDF xmlns:dc="http://purl.org/dc/elements/1.1/" xmlns:cc="http://creativecommons.org/ns#" xmlns:rdf="http://www.w3.org/1999/02/22-rdf-syntax-ns#">
   <cc:Work>
    <dc:type rdf:resource="http://purl.org/dc/dcmitype/StillImage"/>
    <dc:date>2022-06-30T02:06:14.959945</dc:date>
    <dc:format>image/svg+xml</dc:format>
    <dc:creator>
     <cc:Agent>
      <dc:title>Matplotlib v3.5.2, https://matplotlib.org/</dc:title>
     </cc:Agent>
    </dc:creator>
   </cc:Work>
  </rdf:RDF>
 </metadata>
 <defs>
  <style type="text/css">*{stroke-linejoin: round; stroke-linecap: butt}</style>
 </defs>
 <g id="figure_1">
  <g id="patch_1">
   <path d="M 0 432 
L 720 432 
L 720 0 
L 0 0 
z
" style="fill: #ffffff"/>
  </g>
  <g id="axes_1">
   <g id="patch_2">
    <path d="M 90 384.48 
L 648 384.48 
L 648 51.84 
L 90 51.84 
z
" style="fill: #ffffff"/>
   </g>
   <g id="matplotlib.axis_1">
    <g id="xtick_1">
     <g id="line2d_1">
      <path d="M 115.363636 384.48 
L 115.363636 51.84 
" clip-path="url(#p748506149f)" style="fill: none; stroke: #cccccc; stroke-width: 0.8; stroke-linecap: round"/>
     </g>
     <g id="text_1">
      <!-- 0 -->
      <g style="fill: #262626" transform="translate(112.182386 399.078438)scale(0.1 -0.1)">
       <defs>
        <path id="DejaVuSans-30" d="M 2034 4250 
Q 1547 4250 1301 3770 
Q 1056 3291 1056 2328 
Q 1056 1369 1301 889 
Q 1547 409 2034 409 
Q 2525 409 2770 889 
Q 3016 1369 3016 2328 
Q 3016 3291 2770 3770 
Q 2525 4250 2034 4250 
z
M 2034 4750 
Q 2819 4750 3233 4129 
Q 3647 3509 3647 2328 
Q 3647 1150 3233 529 
Q 2819 -91 2034 -91 
Q 1250 -91 836 529 
Q 422 1150 422 2328 
Q 422 3509 836 4129 
Q 1250 4750 2034 4750 
z
" transform="scale(0.015625)"/>
       </defs>
       <use xlink:href="#DejaVuSans-30"/>
      </g>
     </g>
    </g>
    <g id="xtick_2">
     <g id="line2d_2">
      <path d="M 217.021498 384.48 
L 217.021498 51.84 
" clip-path="url(#p748506149f)" style="fill: none; stroke: #cccccc; stroke-width: 0.8; stroke-linecap: round"/>
     </g>
     <g id="text_2">
      <!-- 100 -->
      <g style="fill: #262626" transform="translate(207.477748 399.078438)scale(0.1 -0.1)">
       <defs>
        <path id="DejaVuSans-31" d="M 794 531 
L 1825 531 
L 1825 4091 
L 703 3866 
L 703 4441 
L 1819 4666 
L 2450 4666 
L 2450 531 
L 3481 531 
L 3481 0 
L 794 0 
L 794 531 
z
" transform="scale(0.015625)"/>
       </defs>
       <use xlink:href="#DejaVuSans-31"/>
       <use xlink:href="#DejaVuSans-30" x="63.623047"/>
       <use xlink:href="#DejaVuSans-30" x="127.246094"/>
      </g>
     </g>
    </g>
    <g id="xtick_3">
     <g id="line2d_3">
      <path d="M 318.679359 384.48 
L 318.679359 51.84 
" clip-path="url(#p748506149f)" style="fill: none; stroke: #cccccc; stroke-width: 0.8; stroke-linecap: round"/>
     </g>
     <g id="text_3">
      <!-- 200 -->
      <g style="fill: #262626" transform="translate(309.135609 399.078438)scale(0.1 -0.1)">
       <defs>
        <path id="DejaVuSans-32" d="M 1228 531 
L 3431 531 
L 3431 0 
L 469 0 
L 469 531 
Q 828 903 1448 1529 
Q 2069 2156 2228 2338 
Q 2531 2678 2651 2914 
Q 2772 3150 2772 3378 
Q 2772 3750 2511 3984 
Q 2250 4219 1831 4219 
Q 1534 4219 1204 4116 
Q 875 4013 500 3803 
L 500 4441 
Q 881 4594 1212 4672 
Q 1544 4750 1819 4750 
Q 2544 4750 2975 4387 
Q 3406 4025 3406 3419 
Q 3406 3131 3298 2873 
Q 3191 2616 2906 2266 
Q 2828 2175 2409 1742 
Q 1991 1309 1228 531 
z
" transform="scale(0.015625)"/>
       </defs>
       <use xlink:href="#DejaVuSans-32"/>
       <use xlink:href="#DejaVuSans-30" x="63.623047"/>
       <use xlink:href="#DejaVuSans-30" x="127.246094"/>
      </g>
     </g>
    </g>
    <g id="xtick_4">
     <g id="line2d_4">
      <path d="M 420.33722 384.48 
L 420.33722 51.84 
" clip-path="url(#p748506149f)" style="fill: none; stroke: #cccccc; stroke-width: 0.8; stroke-linecap: round"/>
     </g>
     <g id="text_4">
      <!-- 300 -->
      <g style="fill: #262626" transform="translate(410.79347 399.078438)scale(0.1 -0.1)">
       <defs>
        <path id="DejaVuSans-33" d="M 2597 2516 
Q 3050 2419 3304 2112 
Q 3559 1806 3559 1356 
Q 3559 666 3084 287 
Q 2609 -91 1734 -91 
Q 1441 -91 1130 -33 
Q 819 25 488 141 
L 488 750 
Q 750 597 1062 519 
Q 1375 441 1716 441 
Q 2309 441 2620 675 
Q 2931 909 2931 1356 
Q 2931 1769 2642 2001 
Q 2353 2234 1838 2234 
L 1294 2234 
L 1294 2753 
L 1863 2753 
Q 2328 2753 2575 2939 
Q 2822 3125 2822 3475 
Q 2822 3834 2567 4026 
Q 2313 4219 1838 4219 
Q 1578 4219 1281 4162 
Q 984 4106 628 3988 
L 628 4550 
Q 988 4650 1302 4700 
Q 1616 4750 1894 4750 
Q 2613 4750 3031 4423 
Q 3450 4097 3450 3541 
Q 3450 3153 3228 2886 
Q 3006 2619 2597 2516 
z
" transform="scale(0.015625)"/>
       </defs>
       <use xlink:href="#DejaVuSans-33"/>
       <use xlink:href="#DejaVuSans-30" x="63.623047"/>
       <use xlink:href="#DejaVuSans-30" x="127.246094"/>
      </g>
     </g>
    </g>
    <g id="xtick_5">
     <g id="line2d_5">
      <path d="M 521.995081 384.48 
L 521.995081 51.84 
" clip-path="url(#p748506149f)" style="fill: none; stroke: #cccccc; stroke-width: 0.8; stroke-linecap: round"/>
     </g>
     <g id="text_5">
      <!-- 400 -->
      <g style="fill: #262626" transform="translate(512.451331 399.078438)scale(0.1 -0.1)">
       <defs>
        <path id="DejaVuSans-34" d="M 2419 4116 
L 825 1625 
L 2419 1625 
L 2419 4116 
z
M 2253 4666 
L 3047 4666 
L 3047 1625 
L 3713 1625 
L 3713 1100 
L 3047 1100 
L 3047 0 
L 2419 0 
L 2419 1100 
L 313 1100 
L 313 1709 
L 2253 4666 
z
" transform="scale(0.015625)"/>
       </defs>
       <use xlink:href="#DejaVuSans-34"/>
       <use xlink:href="#DejaVuSans-30" x="63.623047"/>
       <use xlink:href="#DejaVuSans-30" x="127.246094"/>
      </g>
     </g>
    </g>
    <g id="xtick_6">
     <g id="line2d_6">
      <path d="M 623.652942 384.48 
L 623.652942 51.84 
" clip-path="url(#p748506149f)" style="fill: none; stroke: #cccccc; stroke-width: 0.8; stroke-linecap: round"/>
     </g>
     <g id="text_6">
      <!-- 500 -->
      <g style="fill: #262626" transform="translate(614.109192 399.078438)scale(0.1 -0.1)">
       <defs>
        <path id="DejaVuSans-35" d="M 691 4666 
L 3169 4666 
L 3169 4134 
L 1269 4134 
L 1269 2991 
Q 1406 3038 1543 3061 
Q 1681 3084 1819 3084 
Q 2600 3084 3056 2656 
Q 3513 2228 3513 1497 
Q 3513 744 3044 326 
Q 2575 -91 1722 -91 
Q 1428 -91 1123 -41 
Q 819 9 494 109 
L 494 744 
Q 775 591 1075 516 
Q 1375 441 1709 441 
Q 2250 441 2565 725 
Q 2881 1009 2881 1497 
Q 2881 1984 2565 2268 
Q 2250 2553 1709 2553 
Q 1456 2553 1204 2497 
Q 953 2441 691 2322 
L 691 4666 
z
" transform="scale(0.015625)"/>
       </defs>
       <use xlink:href="#DejaVuSans-35"/>
       <use xlink:href="#DejaVuSans-30" x="63.623047"/>
       <use xlink:href="#DejaVuSans-30" x="127.246094"/>
      </g>
     </g>
    </g>
    <g id="text_7">
     <!-- Epochs -->
     <g style="fill: #262626" transform="translate(351.084375 412.756563)scale(0.1 -0.1)">
      <defs>
       <path id="DejaVuSans-45" d="M 628 4666 
L 3578 4666 
L 3578 4134 
L 1259 4134 
L 1259 2753 
L 3481 2753 
L 3481 2222 
L 1259 2222 
L 1259 531 
L 3634 531 
L 3634 0 
L 628 0 
L 628 4666 
z
" transform="scale(0.015625)"/>
       <path id="DejaVuSans-70" d="M 1159 525 
L 1159 -1331 
L 581 -1331 
L 581 3500 
L 1159 3500 
L 1159 2969 
Q 1341 3281 1617 3432 
Q 1894 3584 2278 3584 
Q 2916 3584 3314 3078 
Q 3713 2572 3713 1747 
Q 3713 922 3314 415 
Q 2916 -91 2278 -91 
Q 1894 -91 1617 61 
Q 1341 213 1159 525 
z
M 3116 1747 
Q 3116 2381 2855 2742 
Q 2594 3103 2138 3103 
Q 1681 3103 1420 2742 
Q 1159 2381 1159 1747 
Q 1159 1113 1420 752 
Q 1681 391 2138 391 
Q 2594 391 2855 752 
Q 3116 1113 3116 1747 
z
" transform="scale(0.015625)"/>
       <path id="DejaVuSans-6f" d="M 1959 3097 
Q 1497 3097 1228 2736 
Q 959 2375 959 1747 
Q 959 1119 1226 758 
Q 1494 397 1959 397 
Q 2419 397 2687 759 
Q 2956 1122 2956 1747 
Q 2956 2369 2687 2733 
Q 2419 3097 1959 3097 
z
M 1959 3584 
Q 2709 3584 3137 3096 
Q 3566 2609 3566 1747 
Q 3566 888 3137 398 
Q 2709 -91 1959 -91 
Q 1206 -91 779 398 
Q 353 888 353 1747 
Q 353 2609 779 3096 
Q 1206 3584 1959 3584 
z
" transform="scale(0.015625)"/>
       <path id="DejaVuSans-63" d="M 3122 3366 
L 3122 2828 
Q 2878 2963 2633 3030 
Q 2388 3097 2138 3097 
Q 1578 3097 1268 2742 
Q 959 2388 959 1747 
Q 959 1106 1268 751 
Q 1578 397 2138 397 
Q 2388 397 2633 464 
Q 2878 531 3122 666 
L 3122 134 
Q 2881 22 2623 -34 
Q 2366 -91 2075 -91 
Q 1284 -91 818 406 
Q 353 903 353 1747 
Q 353 2603 823 3093 
Q 1294 3584 2113 3584 
Q 2378 3584 2631 3529 
Q 2884 3475 3122 3366 
z
" transform="scale(0.015625)"/>
       <path id="DejaVuSans-68" d="M 3513 2113 
L 3513 0 
L 2938 0 
L 2938 2094 
Q 2938 2591 2744 2837 
Q 2550 3084 2163 3084 
Q 1697 3084 1428 2787 
Q 1159 2491 1159 1978 
L 1159 0 
L 581 0 
L 581 4863 
L 1159 4863 
L 1159 2956 
Q 1366 3272 1645 3428 
Q 1925 3584 2291 3584 
Q 2894 3584 3203 3211 
Q 3513 2838 3513 2113 
z
" transform="scale(0.015625)"/>
       <path id="DejaVuSans-73" d="M 2834 3397 
L 2834 2853 
Q 2591 2978 2328 3040 
Q 2066 3103 1784 3103 
Q 1356 3103 1142 2972 
Q 928 2841 928 2578 
Q 928 2378 1081 2264 
Q 1234 2150 1697 2047 
L 1894 2003 
Q 2506 1872 2764 1633 
Q 3022 1394 3022 966 
Q 3022 478 2636 193 
Q 2250 -91 1575 -91 
Q 1294 -91 989 -36 
Q 684 19 347 128 
L 347 722 
Q 666 556 975 473 
Q 1284 391 1588 391 
Q 1994 391 2212 530 
Q 2431 669 2431 922 
Q 2431 1156 2273 1281 
Q 2116 1406 1581 1522 
L 1381 1569 
Q 847 1681 609 1914 
Q 372 2147 372 2553 
Q 372 3047 722 3315 
Q 1072 3584 1716 3584 
Q 2034 3584 2315 3537 
Q 2597 3491 2834 3397 
z
" transform="scale(0.015625)"/>
      </defs>
      <use xlink:href="#DejaVuSans-45"/>
      <use xlink:href="#DejaVuSans-70" x="63.183594"/>
      <use xlink:href="#DejaVuSans-6f" x="126.660156"/>
      <use xlink:href="#DejaVuSans-63" x="187.841797"/>
      <use xlink:href="#DejaVuSans-68" x="242.822266"/>
      <use xlink:href="#DejaVuSans-73" x="306.201172"/>
     </g>
    </g>
   </g>
   <g id="matplotlib.axis_2">
    <g id="ytick_1">
     <g id="line2d_7">
      <path d="M 90 352.900281 
L 648 352.900281 
" clip-path="url(#p748506149f)" style="fill: none; stroke: #cccccc; stroke-width: 0.8; stroke-linecap: round"/>
     </g>
     <g id="text_8">
      <!-- 10 -->
      <g style="fill: #262626" transform="translate(70.275 356.6995)scale(0.1 -0.1)">
       <use xlink:href="#DejaVuSans-31"/>
       <use xlink:href="#DejaVuSans-30" x="63.623047"/>
      </g>
     </g>
    </g>
    <g id="ytick_2">
     <g id="line2d_8">
      <path d="M 90 288.931572 
L 648 288.931572 
" clip-path="url(#p748506149f)" style="fill: none; stroke: #cccccc; stroke-width: 0.8; stroke-linecap: round"/>
     </g>
     <g id="text_9">
      <!-- 20 -->
      <g style="fill: #262626" transform="translate(70.275 292.730791)scale(0.1 -0.1)">
       <use xlink:href="#DejaVuSans-32"/>
       <use xlink:href="#DejaVuSans-30" x="63.623047"/>
      </g>
     </g>
    </g>
    <g id="ytick_3">
     <g id="line2d_9">
      <path d="M 90 224.962863 
L 648 224.962863 
" clip-path="url(#p748506149f)" style="fill: none; stroke: #cccccc; stroke-width: 0.8; stroke-linecap: round"/>
     </g>
     <g id="text_10">
      <!-- 30 -->
      <g style="fill: #262626" transform="translate(70.275 228.762082)scale(0.1 -0.1)">
       <use xlink:href="#DejaVuSans-33"/>
       <use xlink:href="#DejaVuSans-30" x="63.623047"/>
      </g>
     </g>
    </g>
    <g id="ytick_4">
     <g id="line2d_10">
      <path d="M 90 160.994154 
L 648 160.994154 
" clip-path="url(#p748506149f)" style="fill: none; stroke: #cccccc; stroke-width: 0.8; stroke-linecap: round"/>
     </g>
     <g id="text_11">
      <!-- 40 -->
      <g style="fill: #262626" transform="translate(70.275 164.793372)scale(0.1 -0.1)">
       <use xlink:href="#DejaVuSans-34"/>
       <use xlink:href="#DejaVuSans-30" x="63.623047"/>
      </g>
     </g>
    </g>
    <g id="ytick_5">
     <g id="line2d_11">
      <path d="M 90 97.025445 
L 648 97.025445 
" clip-path="url(#p748506149f)" style="fill: none; stroke: #cccccc; stroke-width: 0.8; stroke-linecap: round"/>
     </g>
     <g id="text_12">
      <!-- 50 -->
      <g style="fill: #262626" transform="translate(70.275 100.824663)scale(0.1 -0.1)">
       <use xlink:href="#DejaVuSans-35"/>
       <use xlink:href="#DejaVuSans-30" x="63.623047"/>
      </g>
     </g>
    </g>
    <g id="text_13">
     <!-- Loss -->
     <g style="fill: #262626" transform="translate(64.195312 229.127187)rotate(-90)scale(0.1 -0.1)">
      <defs>
       <path id="DejaVuSans-4c" d="M 628 4666 
L 1259 4666 
L 1259 531 
L 3531 531 
L 3531 0 
L 628 0 
L 628 4666 
z
" transform="scale(0.015625)"/>
      </defs>
      <use xlink:href="#DejaVuSans-4c"/>
      <use xlink:href="#DejaVuSans-6f" x="53.962891"/>
      <use xlink:href="#DejaVuSans-73" x="115.144531"/>
      <use xlink:href="#DejaVuSans-73" x="167.244141"/>
     </g>
    </g>
   </g>
   <g id="line2d_12">
    <path d="M 115.363636 66.96 
L 117.396794 69.767611 
L 118.413372 70.610412 
L 120.446529 73.321 
L 121.463108 74.08115 
L 122.479687 75.529539 
L 123.496265 76.599157 
L 124.512844 77.875364 
L 126.546001 79.814747 
L 128.579158 82.408498 
L 129.595737 83.247223 
L 130.612316 84.234363 
L 131.628894 85.474893 
L 138.744944 93.052461 
L 139.761523 94.433036 
L 140.778102 95.170273 
L 141.79468 96.657753 
L 142.811259 97.667343 
L 143.827837 98.453579 
L 145.860995 100.681518 
L 146.877573 101.382176 
L 147.894152 102.465118 
L 148.910731 103.81375 
L 150.943888 105.799693 
L 153.993624 109.066039 
L 155.010202 109.795199 
L 156.026781 110.912036 
L 157.043359 111.820527 
L 158.059938 113.219257 
L 159.076517 114.06972 
L 160.093095 115.206859 
L 161.109674 116.167619 
L 162.126253 116.933919 
L 164.15941 119.35544 
L 166.192567 120.996019 
L 167.209146 122.099605 
L 168.225724 122.890624 
L 169.242303 124.096504 
L 175.341774 129.75055 
L 177.374932 132.095619 
L 179.408089 133.650205 
L 181.441246 135.747958 
L 182.457825 136.50418 
L 183.474403 137.41621 
L 185.507561 139.650956 
L 190.590454 144.050952 
L 191.607032 145.142874 
L 192.623611 145.914933 
L 201.772818 154.300236 
L 202.789397 154.955238 
L 204.822554 156.787081 
L 205.839133 157.906211 
L 206.855711 158.66746 
L 207.87229 159.172511 
L 208.888869 160.301792 
L 209.905447 161.206062 
L 210.922026 161.913626 
L 211.938604 163.194933 
L 212.955183 163.729803 
L 213.971762 164.809231 
L 214.98834 165.546956 
L 217.021498 167.268794 
L 218.038076 168.154933 
L 219.054655 169.223405 
L 220.071233 169.896464 
L 221.087812 170.784043 
L 223.120969 172.238946 
L 226.170705 175.000608 
L 227.187284 175.716078 
L 228.203862 176.607195 
L 229.220441 177.268542 
L 232.270177 179.971004 
L 234.303334 181.388841 
L 235.319913 182.474125 
L 236.336491 182.97105 
L 238.369648 184.805797 
L 240.402806 186.301306 
L 241.419384 187.33803 
L 243.452541 188.693422 
L 244.46912 189.693323 
L 247.518856 191.957841 
L 248.535435 192.906815 
L 249.552013 193.51699 
L 250.568592 194.333119 
L 251.58517 194.99654 
L 252.601749 196.042098 
L 253.618328 196.631189 
L 257.684642 199.707126 
L 258.701221 200.321986 
L 260.734378 202.084406 
L 261.750956 202.66237 
L 267.850428 207.129545 
L 268.867007 208.169661 
L 269.883585 208.707972 
L 273.9499 211.56878 
L 274.966478 212.474989 
L 275.983057 213.024525 
L 278.016214 214.492216 
L 279.032793 215.016202 
L 280.049371 216.026414 
L 281.06595 216.751596 
L 282.082529 217.324924 
L 283.099107 218.338759 
L 284.115686 218.630877 
L 286.148843 220.427654 
L 289.198579 222.13351 
L 290.215158 223.194319 
L 291.231736 223.934984 
L 292.248315 224.357702 
L 293.264893 225.462728 
L 294.281472 225.825832 
L 295.298051 226.444267 
L 298.347786 228.810993 
L 299.364365 229.273462 
L 300.380944 229.897058 
L 302.414101 231.465859 
L 303.43068 231.937393 
L 309.530151 236.01217 
L 310.54673 236.895197 
L 311.563308 237.33496 
L 312.579887 238.097527 
L 313.596466 238.543488 
L 314.613044 239.311691 
L 315.629623 240.265765 
L 316.646201 240.618474 
L 318.679359 242.036286 
L 322.745673 244.396521 
L 323.762252 245.426839 
L 325.795409 246.268591 
L 326.811988 247.200154 
L 327.828566 247.671823 
L 328.845145 248.377252 
L 329.861723 248.937817 
L 330.878302 249.786938 
L 332.911459 250.67326 
L 333.928038 251.42587 
L 335.961195 252.619134 
L 339.010931 254.486873 
L 340.02751 255.38298 
L 341.044088 255.667033 
L 342.060667 256.536042 
L 343.077245 256.968972 
L 344.093824 257.626024 
L 345.110403 258.081233 
L 346.126981 258.842921 
L 347.14356 259.326608 
L 348.160138 260.057659 
L 350.193296 261.123458 
L 351.209874 261.716857 
L 352.226453 262.162184 
L 355.276189 264.246393 
L 356.292767 264.606935 
L 360.359082 266.887521 
L 361.37566 267.601222 
L 364.425396 269.183871 
L 365.441975 270.085505 
L 366.458553 270.319302 
L 372.558025 273.679938 
L 374.591182 274.796311 
L 375.607761 275.532279 
L 376.62434 275.910158 
L 380.690654 278.135742 
L 382.723811 279.371075 
L 383.74039 279.771404 
L 384.756968 280.477114 
L 386.790126 281.462581 
L 387.806704 282.024099 
L 388.823283 282.33209 
L 389.839862 283.110469 
L 390.85644 283.499646 
L 393.906176 285.403647 
L 394.922755 285.669337 
L 396.955912 286.722777 
L 397.97249 287.018701 
L 398.989069 287.765614 
L 400.005648 288.319201 
L 401.022226 288.64015 
L 403.055383 289.826654 
L 404.071962 290.070505 
L 405.088541 290.783193 
L 406.105119 291.105313 
L 408.138277 292.484851 
L 409.154855 292.644026 
L 410.171434 293.443952 
L 411.188012 293.932214 
L 412.204591 294.276345 
L 413.22117 294.965181 
L 414.237748 295.480859 
L 416.270905 296.194499 
L 417.287484 296.989508 
L 418.304063 297.15033 
L 422.370377 299.212322 
L 423.386956 299.639457 
L 424.403534 300.293909 
L 426.436692 301.328779 
L 428.469849 302.088466 
L 429.486427 302.585928 
L 430.503006 302.83095 
L 431.519585 303.554558 
L 434.56932 304.878203 
L 435.585899 305.487829 
L 436.602478 305.741159 
L 438.635635 306.762901 
L 440.668792 307.585753 
L 442.701949 308.483849 
L 443.718528 309.216169 
L 444.735107 309.360983 
L 445.751685 309.732615 
L 446.768264 310.379442 
L 447.784842 310.861067 
L 449.818 311.471315 
L 450.834578 312.181015 
L 454.900893 313.805623 
L 457.950629 315.336441 
L 459.983786 315.961972 
L 461.000364 316.446403 
L 462.016943 317.095402 
L 463.033522 317.570804 
L 465.066679 318.03761 
L 467.099836 319.219741 
L 468.116415 319.485297 
L 469.132993 319.967288 
L 470.149572 320.182435 
L 471.16615 320.70691 
L 472.182729 320.986583 
L 473.199308 321.603993 
L 477.265622 323.228626 
L 478.282201 323.525081 
L 479.298779 324.071079 
L 481.331937 324.692534 
L 482.348515 325.359108 
L 483.365094 325.595553 
L 486.41483 326.682228 
L 488.447987 327.740323 
L 489.464565 327.850114 
L 490.481144 328.235051 
L 491.497723 328.746068 
L 492.514301 329.035709 
L 493.53088 329.674862 
L 494.547459 329.938814 
L 495.564037 330.397458 
L 496.580616 330.692736 
L 497.597194 331.112922 
L 499.630352 331.727166 
L 502.680087 332.99834 
L 504.713245 333.732698 
L 505.729823 333.989396 
L 506.746402 334.638346 
L 507.762981 334.865926 
L 509.796138 335.623149 
L 511.829295 336.267182 
L 514.879031 337.248013 
L 515.895609 337.953997 
L 516.912188 337.964801 
L 518.945345 338.863952 
L 519.961924 339.147286 
L 520.978502 339.666447 
L 524.028238 340.373108 
L 525.044817 340.94618 
L 526.061396 341.132954 
L 527.077974 341.702749 
L 528.094553 341.80192 
L 529.111131 342.24275 
L 531.144289 342.766609 
L 533.177446 343.808476 
L 534.194024 343.98339 
L 536.227182 344.608054 
L 538.260339 345.493833 
L 542.326653 346.651342 
L 543.343232 347.140397 
L 544.359811 347.267508 
L 545.376389 347.749053 
L 547.409546 348.199096 
L 548.426125 348.739651 
L 549.442704 348.980031 
L 550.459282 349.032611 
L 551.475861 349.473442 
L 552.492439 349.634197 
L 553.509018 350.30298 
L 557.575332 351.481474 
L 559.60849 352.301111 
L 560.625068 352.422487 
L 561.641647 352.78262 
L 562.658226 352.970559 
L 568.757697 354.883442 
L 569.774276 355.123675 
L 570.790854 355.545173 
L 571.807433 355.686711 
L 572.824012 356.178115 
L 573.84059 356.144385 
L 574.857169 356.715706 
L 575.873747 356.999698 
L 576.890326 357.114571 
L 578.923483 357.837136 
L 580.956641 358.328558 
L 581.973219 358.762983 
L 584.006376 359.190795 
L 587.056112 360.176763 
L 588.072691 360.317149 
L 589.089269 360.672547 
L 590.105848 360.840605 
L 591.122427 361.229422 
L 593.155584 361.805282 
L 594.172163 361.848059 
L 596.20532 362.704891 
L 597.221898 362.727511 
L 600.271634 363.593805 
L 603.32137 364.413503 
L 604.337949 364.830529 
L 605.354527 365.086434 
L 606.371106 365.186178 
L 610.43742 366.326569 
L 611.453999 366.245904 
L 612.470578 366.797951 
L 615.520313 367.598054 
L 616.536892 367.881512 
L 618.570049 368.276393 
L 622.636364 369.36 
L 622.636364 369.36 
" clip-path="url(#p748506149f)" style="fill: none; stroke: #1f77b4; stroke-width: 1.5; stroke-linecap: round"/>
   </g>
   <g id="line2d_13">
    <path d="M 115.363636 68.783986 
L 117.396794 71.266121 
L 123.496265 78.122533 
L 133.662051 89.178721 
L 145.860995 101.994572 
L 156.026781 112.316549 
L 164.15941 120.333379 
L 174.325196 130.092912 
L 186.524139 141.445562 
L 196.689925 150.574129 
L 204.822554 157.581809 
L 212.955183 164.457255 
L 232.270177 180.281374 
L 254.634906 197.434947 
L 269.883585 208.625151 
L 273.9499 211.498355 
L 279.032793 215.204782 
L 293.264893 225.09328 
L 309.530151 235.975079 
L 326.811988 246.950106 
L 335.961195 252.499625 
L 354.25961 263.260279 
L 378.657497 277.178227 
L 389.839862 283.096182 
L 404.071962 290.356412 
L 412.204591 294.319574 
L 424.403534 300.166982 
L 439.652214 307.180738 
L 452.867735 312.994557 
L 464.0501 317.695425 
L 477.265622 323.040174 
L 507.762981 334.650468 
L 518.945345 338.622066 
L 531.144289 342.772508 
L 543.343232 346.744302 
L 556.558754 350.856432 
L 571.807433 355.367074 
L 588.072691 359.918839 
L 605.354527 364.463149 
L 622.636364 368.736608 
L 622.636364 368.736608 
" clip-path="url(#p748506149f)" style="fill: none; stroke-dasharray: 6,2.25; stroke-dashoffset: 0; stroke: #ff7f0e; stroke-width: 1.5"/>
   </g>
   <g id="line2d_14"/>
   <g id="line2d_15"/>
   <g id="patch_3">
    <path d="M 90 384.48 
L 90 51.84 
" style="fill: none; stroke: #cccccc; stroke-width: 0.8; stroke-linejoin: miter; stroke-linecap: square"/>
   </g>
   <g id="patch_4">
    <path d="M 648 384.48 
L 648 51.84 
" style="fill: none; stroke: #cccccc; stroke-width: 0.8; stroke-linejoin: miter; stroke-linecap: square"/>
   </g>
   <g id="patch_5">
    <path d="M 90 384.48 
L 648 384.48 
" style="fill: none; stroke: #cccccc; stroke-width: 0.8; stroke-linejoin: miter; stroke-linecap: square"/>
   </g>
   <g id="patch_6">
    <path d="M 90 51.84 
L 648 51.84 
" style="fill: none; stroke: #cccccc; stroke-width: 0.8; stroke-linejoin: miter; stroke-linecap: square"/>
   </g>
   <g id="legend_1">
    <g id="patch_7">
     <path d="M 559.61875 89.19625 
L 641 89.19625 
Q 643 89.19625 643 87.19625 
L 643 58.84 
Q 643 56.84 641 56.84 
L 559.61875 56.84 
Q 557.61875 56.84 557.61875 58.84 
L 557.61875 87.19625 
Q 557.61875 89.19625 559.61875 89.19625 
z
" style="fill: #ffffff; opacity: 0.8; stroke: #cccccc; stroke-linejoin: miter"/>
    </g>
    <g id="line2d_16">
     <path d="M 561.61875 64.938437 
L 571.61875 64.938437 
L 581.61875 64.938437 
" style="fill: none; stroke: #1f77b4; stroke-width: 1.5; stroke-linecap: round"/>
    </g>
    <g id="text_14">
     <!-- Training -->
     <g style="fill: #262626" transform="translate(589.61875 68.438437)scale(0.1 -0.1)">
      <defs>
       <path id="DejaVuSans-54" d="M -19 4666 
L 3928 4666 
L 3928 4134 
L 2272 4134 
L 2272 0 
L 1638 0 
L 1638 4134 
L -19 4134 
L -19 4666 
z
" transform="scale(0.015625)"/>
       <path id="DejaVuSans-72" d="M 2631 2963 
Q 2534 3019 2420 3045 
Q 2306 3072 2169 3072 
Q 1681 3072 1420 2755 
Q 1159 2438 1159 1844 
L 1159 0 
L 581 0 
L 581 3500 
L 1159 3500 
L 1159 2956 
Q 1341 3275 1631 3429 
Q 1922 3584 2338 3584 
Q 2397 3584 2469 3576 
Q 2541 3569 2628 3553 
L 2631 2963 
z
" transform="scale(0.015625)"/>
       <path id="DejaVuSans-61" d="M 2194 1759 
Q 1497 1759 1228 1600 
Q 959 1441 959 1056 
Q 959 750 1161 570 
Q 1363 391 1709 391 
Q 2188 391 2477 730 
Q 2766 1069 2766 1631 
L 2766 1759 
L 2194 1759 
z
M 3341 1997 
L 3341 0 
L 2766 0 
L 2766 531 
Q 2569 213 2275 61 
Q 1981 -91 1556 -91 
Q 1019 -91 701 211 
Q 384 513 384 1019 
Q 384 1609 779 1909 
Q 1175 2209 1959 2209 
L 2766 2209 
L 2766 2266 
Q 2766 2663 2505 2880 
Q 2244 3097 1772 3097 
Q 1472 3097 1187 3025 
Q 903 2953 641 2809 
L 641 3341 
Q 956 3463 1253 3523 
Q 1550 3584 1831 3584 
Q 2591 3584 2966 3190 
Q 3341 2797 3341 1997 
z
" transform="scale(0.015625)"/>
       <path id="DejaVuSans-69" d="M 603 3500 
L 1178 3500 
L 1178 0 
L 603 0 
L 603 3500 
z
M 603 4863 
L 1178 4863 
L 1178 4134 
L 603 4134 
L 603 4863 
z
" transform="scale(0.015625)"/>
       <path id="DejaVuSans-6e" d="M 3513 2113 
L 3513 0 
L 2938 0 
L 2938 2094 
Q 2938 2591 2744 2837 
Q 2550 3084 2163 3084 
Q 1697 3084 1428 2787 
Q 1159 2491 1159 1978 
L 1159 0 
L 581 0 
L 581 3500 
L 1159 3500 
L 1159 2956 
Q 1366 3272 1645 3428 
Q 1925 3584 2291 3584 
Q 2894 3584 3203 3211 
Q 3513 2838 3513 2113 
z
" transform="scale(0.015625)"/>
       <path id="DejaVuSans-67" d="M 2906 1791 
Q 2906 2416 2648 2759 
Q 2391 3103 1925 3103 
Q 1463 3103 1205 2759 
Q 947 2416 947 1791 
Q 947 1169 1205 825 
Q 1463 481 1925 481 
Q 2391 481 2648 825 
Q 2906 1169 2906 1791 
z
M 3481 434 
Q 3481 -459 3084 -895 
Q 2688 -1331 1869 -1331 
Q 1566 -1331 1297 -1286 
Q 1028 -1241 775 -1147 
L 775 -588 
Q 1028 -725 1275 -790 
Q 1522 -856 1778 -856 
Q 2344 -856 2625 -561 
Q 2906 -266 2906 331 
L 2906 616 
Q 2728 306 2450 153 
Q 2172 0 1784 0 
Q 1141 0 747 490 
Q 353 981 353 1791 
Q 353 2603 747 3093 
Q 1141 3584 1784 3584 
Q 2172 3584 2450 3431 
Q 2728 3278 2906 2969 
L 2906 3500 
L 3481 3500 
L 3481 434 
z
" transform="scale(0.015625)"/>
      </defs>
      <use xlink:href="#DejaVuSans-54"/>
      <use xlink:href="#DejaVuSans-72" x="46.333984"/>
      <use xlink:href="#DejaVuSans-61" x="87.447266"/>
      <use xlink:href="#DejaVuSans-69" x="148.726562"/>
      <use xlink:href="#DejaVuSans-6e" x="176.509766"/>
      <use xlink:href="#DejaVuSans-69" x="239.888672"/>
      <use xlink:href="#DejaVuSans-6e" x="267.671875"/>
      <use xlink:href="#DejaVuSans-67" x="331.050781"/>
     </g>
    </g>
    <g id="line2d_17">
     <path d="M 561.61875 79.616562 
L 571.61875 79.616562 
L 581.61875 79.616562 
" style="fill: none; stroke-dasharray: 6,2.25; stroke-dashoffset: 0; stroke: #ff7f0e; stroke-width: 1.5"/>
    </g>
    <g id="text_15">
     <!-- Validation -->
     <g style="fill: #262626" transform="translate(589.61875 83.116562)scale(0.1 -0.1)">
      <defs>
       <path id="DejaVuSans-56" d="M 1831 0 
L 50 4666 
L 709 4666 
L 2188 738 
L 3669 4666 
L 4325 4666 
L 2547 0 
L 1831 0 
z
" transform="scale(0.015625)"/>
       <path id="DejaVuSans-6c" d="M 603 4863 
L 1178 4863 
L 1178 0 
L 603 0 
L 603 4863 
z
" transform="scale(0.015625)"/>
       <path id="DejaVuSans-64" d="M 2906 2969 
L 2906 4863 
L 3481 4863 
L 3481 0 
L 2906 0 
L 2906 525 
Q 2725 213 2448 61 
Q 2172 -91 1784 -91 
Q 1150 -91 751 415 
Q 353 922 353 1747 
Q 353 2572 751 3078 
Q 1150 3584 1784 3584 
Q 2172 3584 2448 3432 
Q 2725 3281 2906 2969 
z
M 947 1747 
Q 947 1113 1208 752 
Q 1469 391 1925 391 
Q 2381 391 2643 752 
Q 2906 1113 2906 1747 
Q 2906 2381 2643 2742 
Q 2381 3103 1925 3103 
Q 1469 3103 1208 2742 
Q 947 2381 947 1747 
z
" transform="scale(0.015625)"/>
       <path id="DejaVuSans-74" d="M 1172 4494 
L 1172 3500 
L 2356 3500 
L 2356 3053 
L 1172 3053 
L 1172 1153 
Q 1172 725 1289 603 
Q 1406 481 1766 481 
L 2356 481 
L 2356 0 
L 1766 0 
Q 1100 0 847 248 
Q 594 497 594 1153 
L 594 3053 
L 172 3053 
L 172 3500 
L 594 3500 
L 594 4494 
L 1172 4494 
z
" transform="scale(0.015625)"/>
      </defs>
      <use xlink:href="#DejaVuSans-56"/>
      <use xlink:href="#DejaVuSans-61" x="60.658203"/>
      <use xlink:href="#DejaVuSans-6c" x="121.9375"/>
      <use xlink:href="#DejaVuSans-69" x="149.720703"/>
      <use xlink:href="#DejaVuSans-64" x="177.503906"/>
      <use xlink:href="#DejaVuSans-61" x="240.980469"/>
      <use xlink:href="#DejaVuSans-74" x="302.259766"/>
      <use xlink:href="#DejaVuSans-69" x="341.46875"/>
      <use xlink:href="#DejaVuSans-6f" x="369.251953"/>
      <use xlink:href="#DejaVuSans-6e" x="430.433594"/>
     </g>
    </g>
   </g>
  </g>
 </g>
 <defs>
  <clipPath id="p748506149f">
   <rect x="90" y="51.84" width="558" height="332.64"/>
  </clipPath>
 </defs>
</svg>
