<?xml version="1.0" encoding="utf-8" standalone="no"?>
<!DOCTYPE svg PUBLIC "-//W3C//DTD SVG 1.1//EN"
  "http://www.w3.org/Graphics/SVG/1.1/DTD/svg11.dtd">
<svg xmlns:xlink="http://www.w3.org/1999/xlink" width="720pt" height="432pt" viewBox="0 0 720 432" xmlns="http://www.w3.org/2000/svg" version="1.1">
 <metadata>
  <rdf:RDF xmlns:dc="http://purl.org/dc/elements/1.1/" xmlns:cc="http://creativecommons.org/ns#" xmlns:rdf="http://www.w3.org/1999/02/22-rdf-syntax-ns#">
   <cc:Work>
    <dc:type rdf:resource="http://purl.org/dc/dcmitype/StillImage"/>
    <dc:date>2022-06-30T01:48:30.452133</dc:date>
    <dc:format>image/svg+xml</dc:format>
    <dc:creator>
     <cc:Agent>
      <dc:title>Matplotlib v3.5.2, https://matplotlib.org/</dc:title>
     </cc:Agent>
    </dc:creator>
   </cc:Work>
  </rdf:RDF>
 </metadata>
 <defs>
  <style type="text/css">*{stroke-linejoin: round; stroke-linecap: butt}</style>
 </defs>
 <g id="figure_1">
  <g id="patch_1">
   <path d="M 0 432 
L 720 432 
L 720 0 
L 0 0 
z
" style="fill: #ffffff"/>
  </g>
  <g id="axes_1">
   <g id="patch_2">
    <path d="M 90 384.48 
L 648 384.48 
L 648 51.84 
L 90 51.84 
z
" style="fill: #ffffff"/>
   </g>
   <g id="matplotlib.axis_1">
    <g id="xtick_1">
     <g id="line2d_1">
      <defs>
       <path id="m42a841fd6e" d="M 0 0 
L 0 3.5 
" style="stroke: #000000; stroke-width: 0.8"/>
      </defs>
      <g>
       <use xlink:href="#m42a841fd6e" x="115.363636" y="384.48" style="stroke: #000000; stroke-width: 0.8"/>
      </g>
     </g>
     <g id="text_1">
      <!-- 0 -->
      <g transform="translate(112.182386 399.078438)scale(0.1 -0.1)">
       <defs>
        <path id="DejaVuSans-30" d="M 2034 4250 
Q 1547 4250 1301 3770 
Q 1056 3291 1056 2328 
Q 1056 1369 1301 889 
Q 1547 409 2034 409 
Q 2525 409 2770 889 
Q 3016 1369 3016 2328 
Q 3016 3291 2770 3770 
Q 2525 4250 2034 4250 
z
M 2034 4750 
Q 2819 4750 3233 4129 
Q 3647 3509 3647 2328 
Q 3647 1150 3233 529 
Q 2819 -91 2034 -91 
Q 1250 -91 836 529 
Q 422 1150 422 2328 
Q 422 3509 836 4129 
Q 1250 4750 2034 4750 
z
" transform="scale(0.015625)"/>
       </defs>
       <use xlink:href="#DejaVuSans-30"/>
      </g>
     </g>
    </g>
    <g id="xtick_2">
     <g id="line2d_2">
      <g>
       <use xlink:href="#m42a841fd6e" x="217.021498" y="384.48" style="stroke: #000000; stroke-width: 0.8"/>
      </g>
     </g>
     <g id="text_2">
      <!-- 100 -->
      <g transform="translate(207.477748 399.078438)scale(0.1 -0.1)">
       <defs>
        <path id="DejaVuSans-31" d="M 794 531 
L 1825 531 
L 1825 4091 
L 703 3866 
L 703 4441 
L 1819 4666 
L 2450 4666 
L 2450 531 
L 3481 531 
L 3481 0 
L 794 0 
L 794 531 
z
" transform="scale(0.015625)"/>
       </defs>
       <use xlink:href="#DejaVuSans-31"/>
       <use xlink:href="#DejaVuSans-30" x="63.623047"/>
       <use xlink:href="#DejaVuSans-30" x="127.246094"/>
      </g>
     </g>
    </g>
    <g id="xtick_3">
     <g id="line2d_3">
      <g>
       <use xlink:href="#m42a841fd6e" x="318.679359" y="384.48" style="stroke: #000000; stroke-width: 0.8"/>
      </g>
     </g>
     <g id="text_3">
      <!-- 200 -->
      <g transform="translate(309.135609 399.078438)scale(0.1 -0.1)">
       <defs>
        <path id="DejaVuSans-32" d="M 1228 531 
L 3431 531 
L 3431 0 
L 469 0 
L 469 531 
Q 828 903 1448 1529 
Q 2069 2156 2228 2338 
Q 2531 2678 2651 2914 
Q 2772 3150 2772 3378 
Q 2772 3750 2511 3984 
Q 2250 4219 1831 4219 
Q 1534 4219 1204 4116 
Q 875 4013 500 3803 
L 500 4441 
Q 881 4594 1212 4672 
Q 1544 4750 1819 4750 
Q 2544 4750 2975 4387 
Q 3406 4025 3406 3419 
Q 3406 3131 3298 2873 
Q 3191 2616 2906 2266 
Q 2828 2175 2409 1742 
Q 1991 1309 1228 531 
z
" transform="scale(0.015625)"/>
       </defs>
       <use xlink:href="#DejaVuSans-32"/>
       <use xlink:href="#DejaVuSans-30" x="63.623047"/>
       <use xlink:href="#DejaVuSans-30" x="127.246094"/>
      </g>
     </g>
    </g>
    <g id="xtick_4">
     <g id="line2d_4">
      <g>
       <use xlink:href="#m42a841fd6e" x="420.33722" y="384.48" style="stroke: #000000; stroke-width: 0.8"/>
      </g>
     </g>
     <g id="text_4">
      <!-- 300 -->
      <g transform="translate(410.79347 399.078438)scale(0.1 -0.1)">
       <defs>
        <path id="DejaVuSans-33" d="M 2597 2516 
Q 3050 2419 3304 2112 
Q 3559 1806 3559 1356 
Q 3559 666 3084 287 
Q 2609 -91 1734 -91 
Q 1441 -91 1130 -33 
Q 819 25 488 141 
L 488 750 
Q 750 597 1062 519 
Q 1375 441 1716 441 
Q 2309 441 2620 675 
Q 2931 909 2931 1356 
Q 2931 1769 2642 2001 
Q 2353 2234 1838 2234 
L 1294 2234 
L 1294 2753 
L 1863 2753 
Q 2328 2753 2575 2939 
Q 2822 3125 2822 3475 
Q 2822 3834 2567 4026 
Q 2313 4219 1838 4219 
Q 1578 4219 1281 4162 
Q 984 4106 628 3988 
L 628 4550 
Q 988 4650 1302 4700 
Q 1616 4750 1894 4750 
Q 2613 4750 3031 4423 
Q 3450 4097 3450 3541 
Q 3450 3153 3228 2886 
Q 3006 2619 2597 2516 
z
" transform="scale(0.015625)"/>
       </defs>
       <use xlink:href="#DejaVuSans-33"/>
       <use xlink:href="#DejaVuSans-30" x="63.623047"/>
       <use xlink:href="#DejaVuSans-30" x="127.246094"/>
      </g>
     </g>
    </g>
    <g id="xtick_5">
     <g id="line2d_5">
      <g>
       <use xlink:href="#m42a841fd6e" x="521.995081" y="384.48" style="stroke: #000000; stroke-width: 0.8"/>
      </g>
     </g>
     <g id="text_5">
      <!-- 400 -->
      <g transform="translate(512.451331 399.078438)scale(0.1 -0.1)">
       <defs>
        <path id="DejaVuSans-34" d="M 2419 4116 
L 825 1625 
L 2419 1625 
L 2419 4116 
z
M 2253 4666 
L 3047 4666 
L 3047 1625 
L 3713 1625 
L 3713 1100 
L 3047 1100 
L 3047 0 
L 2419 0 
L 2419 1100 
L 313 1100 
L 313 1709 
L 2253 4666 
z
" transform="scale(0.015625)"/>
       </defs>
       <use xlink:href="#DejaVuSans-34"/>
       <use xlink:href="#DejaVuSans-30" x="63.623047"/>
       <use xlink:href="#DejaVuSans-30" x="127.246094"/>
      </g>
     </g>
    </g>
    <g id="xtick_6">
     <g id="line2d_6">
      <g>
       <use xlink:href="#m42a841fd6e" x="623.652942" y="384.48" style="stroke: #000000; stroke-width: 0.8"/>
      </g>
     </g>
     <g id="text_6">
      <!-- 500 -->
      <g transform="translate(614.109192 399.078438)scale(0.1 -0.1)">
       <defs>
        <path id="DejaVuSans-35" d="M 691 4666 
L 3169 4666 
L 3169 4134 
L 1269 4134 
L 1269 2991 
Q 1406 3038 1543 3061 
Q 1681 3084 1819 3084 
Q 2600 3084 3056 2656 
Q 3513 2228 3513 1497 
Q 3513 744 3044 326 
Q 2575 -91 1722 -91 
Q 1428 -91 1123 -41 
Q 819 9 494 109 
L 494 744 
Q 775 591 1075 516 
Q 1375 441 1709 441 
Q 2250 441 2565 725 
Q 2881 1009 2881 1497 
Q 2881 1984 2565 2268 
Q 2250 2553 1709 2553 
Q 1456 2553 1204 2497 
Q 953 2441 691 2322 
L 691 4666 
z
" transform="scale(0.015625)"/>
       </defs>
       <use xlink:href="#DejaVuSans-35"/>
       <use xlink:href="#DejaVuSans-30" x="63.623047"/>
       <use xlink:href="#DejaVuSans-30" x="127.246094"/>
      </g>
     </g>
    </g>
    <g id="text_7">
     <!-- Epochs -->
     <g transform="translate(351.084375 412.756563)scale(0.1 -0.1)">
      <defs>
       <path id="DejaVuSans-45" d="M 628 4666 
L 3578 4666 
L 3578 4134 
L 1259 4134 
L 1259 2753 
L 3481 2753 
L 3481 2222 
L 1259 2222 
L 1259 531 
L 3634 531 
L 3634 0 
L 628 0 
L 628 4666 
z
" transform="scale(0.015625)"/>
       <path id="DejaVuSans-70" d="M 1159 525 
L 1159 -1331 
L 581 -1331 
L 581 3500 
L 1159 3500 
L 1159 2969 
Q 1341 3281 1617 3432 
Q 1894 3584 2278 3584 
Q 2916 3584 3314 3078 
Q 3713 2572 3713 1747 
Q 3713 922 3314 415 
Q 2916 -91 2278 -91 
Q 1894 -91 1617 61 
Q 1341 213 1159 525 
z
M 3116 1747 
Q 3116 2381 2855 2742 
Q 2594 3103 2138 3103 
Q 1681 3103 1420 2742 
Q 1159 2381 1159 1747 
Q 1159 1113 1420 752 
Q 1681 391 2138 391 
Q 2594 391 2855 752 
Q 3116 1113 3116 1747 
z
" transform="scale(0.015625)"/>
       <path id="DejaVuSans-6f" d="M 1959 3097 
Q 1497 3097 1228 2736 
Q 959 2375 959 1747 
Q 959 1119 1226 758 
Q 1494 397 1959 397 
Q 2419 397 2687 759 
Q 2956 1122 2956 1747 
Q 2956 2369 2687 2733 
Q 2419 3097 1959 3097 
z
M 1959 3584 
Q 2709 3584 3137 3096 
Q 3566 2609 3566 1747 
Q 3566 888 3137 398 
Q 2709 -91 1959 -91 
Q 1206 -91 779 398 
Q 353 888 353 1747 
Q 353 2609 779 3096 
Q 1206 3584 1959 3584 
z
" transform="scale(0.015625)"/>
       <path id="DejaVuSans-63" d="M 3122 3366 
L 3122 2828 
Q 2878 2963 2633 3030 
Q 2388 3097 2138 3097 
Q 1578 3097 1268 2742 
Q 959 2388 959 1747 
Q 959 1106 1268 751 
Q 1578 397 2138 397 
Q 2388 397 2633 464 
Q 2878 531 3122 666 
L 3122 134 
Q 2881 22 2623 -34 
Q 2366 -91 2075 -91 
Q 1284 -91 818 406 
Q 353 903 353 1747 
Q 353 2603 823 3093 
Q 1294 3584 2113 3584 
Q 2378 3584 2631 3529 
Q 2884 3475 3122 3366 
z
" transform="scale(0.015625)"/>
       <path id="DejaVuSans-68" d="M 3513 2113 
L 3513 0 
L 2938 0 
L 2938 2094 
Q 2938 2591 2744 2837 
Q 2550 3084 2163 3084 
Q 1697 3084 1428 2787 
Q 1159 2491 1159 1978 
L 1159 0 
L 581 0 
L 581 4863 
L 1159 4863 
L 1159 2956 
Q 1366 3272 1645 3428 
Q 1925 3584 2291 3584 
Q 2894 3584 3203 3211 
Q 3513 2838 3513 2113 
z
" transform="scale(0.015625)"/>
       <path id="DejaVuSans-73" d="M 2834 3397 
L 2834 2853 
Q 2591 2978 2328 3040 
Q 2066 3103 1784 3103 
Q 1356 3103 1142 2972 
Q 928 2841 928 2578 
Q 928 2378 1081 2264 
Q 1234 2150 1697 2047 
L 1894 2003 
Q 2506 1872 2764 1633 
Q 3022 1394 3022 966 
Q 3022 478 2636 193 
Q 2250 -91 1575 -91 
Q 1294 -91 989 -36 
Q 684 19 347 128 
L 347 722 
Q 666 556 975 473 
Q 1284 391 1588 391 
Q 1994 391 2212 530 
Q 2431 669 2431 922 
Q 2431 1156 2273 1281 
Q 2116 1406 1581 1522 
L 1381 1569 
Q 847 1681 609 1914 
Q 372 2147 372 2553 
Q 372 3047 722 3315 
Q 1072 3584 1716 3584 
Q 2034 3584 2315 3537 
Q 2597 3491 2834 3397 
z
" transform="scale(0.015625)"/>
      </defs>
      <use xlink:href="#DejaVuSans-45"/>
      <use xlink:href="#DejaVuSans-70" x="63.183594"/>
      <use xlink:href="#DejaVuSans-6f" x="126.660156"/>
      <use xlink:href="#DejaVuSans-63" x="187.841797"/>
      <use xlink:href="#DejaVuSans-68" x="242.822266"/>
      <use xlink:href="#DejaVuSans-73" x="306.201172"/>
     </g>
    </g>
   </g>
   <g id="matplotlib.axis_2">
    <g id="ytick_1">
     <g id="line2d_7">
      <defs>
       <path id="m9e5230866c" d="M 0 0 
L -3.5 0 
" style="stroke: #000000; stroke-width: 0.8"/>
      </defs>
      <g>
       <use xlink:href="#m9e5230866c" x="90" y="350.618713" style="stroke: #000000; stroke-width: 0.8"/>
      </g>
     </g>
     <g id="text_8">
      <!-- 10 -->
      <g transform="translate(70.275 354.417931)scale(0.1 -0.1)">
       <use xlink:href="#DejaVuSans-31"/>
       <use xlink:href="#DejaVuSans-30" x="63.623047"/>
      </g>
     </g>
    </g>
    <g id="ytick_2">
     <g id="line2d_8">
      <g>
       <use xlink:href="#m9e5230866c" x="90" y="284.700739" style="stroke: #000000; stroke-width: 0.8"/>
      </g>
     </g>
     <g id="text_9">
      <!-- 20 -->
      <g transform="translate(70.275 288.499958)scale(0.1 -0.1)">
       <use xlink:href="#DejaVuSans-32"/>
       <use xlink:href="#DejaVuSans-30" x="63.623047"/>
      </g>
     </g>
    </g>
    <g id="ytick_3">
     <g id="line2d_9">
      <g>
       <use xlink:href="#m9e5230866c" x="90" y="218.782765" style="stroke: #000000; stroke-width: 0.8"/>
      </g>
     </g>
     <g id="text_10">
      <!-- 30 -->
      <g transform="translate(70.275 222.581984)scale(0.1 -0.1)">
       <use xlink:href="#DejaVuSans-33"/>
       <use xlink:href="#DejaVuSans-30" x="63.623047"/>
      </g>
     </g>
    </g>
    <g id="ytick_4">
     <g id="line2d_10">
      <g>
       <use xlink:href="#m9e5230866c" x="90" y="152.864791" style="stroke: #000000; stroke-width: 0.8"/>
      </g>
     </g>
     <g id="text_11">
      <!-- 40 -->
      <g transform="translate(70.275 156.66401)scale(0.1 -0.1)">
       <use xlink:href="#DejaVuSans-34"/>
       <use xlink:href="#DejaVuSans-30" x="63.623047"/>
      </g>
     </g>
    </g>
    <g id="ytick_5">
     <g id="line2d_11">
      <g>
       <use xlink:href="#m9e5230866c" x="90" y="86.946817" style="stroke: #000000; stroke-width: 0.8"/>
      </g>
     </g>
     <g id="text_12">
      <!-- 50 -->
      <g transform="translate(70.275 90.746036)scale(0.1 -0.1)">
       <use xlink:href="#DejaVuSans-35"/>
       <use xlink:href="#DejaVuSans-30" x="63.623047"/>
      </g>
     </g>
    </g>
    <g id="text_13">
     <!-- Loss -->
     <g transform="translate(64.195312 229.127187)rotate(-90)scale(0.1 -0.1)">
      <defs>
       <path id="DejaVuSans-4c" d="M 628 4666 
L 1259 4666 
L 1259 531 
L 3531 531 
L 3531 0 
L 628 0 
L 628 4666 
z
" transform="scale(0.015625)"/>
      </defs>
      <use xlink:href="#DejaVuSans-4c"/>
      <use xlink:href="#DejaVuSans-6f" x="53.962891"/>
      <use xlink:href="#DejaVuSans-73" x="115.144531"/>
      <use xlink:href="#DejaVuSans-73" x="167.244141"/>
     </g>
    </g>
   </g>
   <g id="line2d_12">
    <path d="M 115.363636 66.96 
L 116.380215 68.345579 
L 117.396794 69.294654 
L 118.413372 70.924875 
L 119.429951 71.945364 
L 122.479687 75.65423 
L 123.496265 76.509059 
L 124.512844 77.920613 
L 125.529422 79.043093 
L 126.546001 79.88047 
L 127.56258 81.390244 
L 128.579158 82.286462 
L 129.595737 83.593687 
L 134.67863 89.110857 
L 135.695209 90.456203 
L 136.711787 91.176552 
L 137.728366 92.462479 
L 138.744944 93.500167 
L 140.778102 95.922805 
L 143.827837 99.017161 
L 144.844416 100.557789 
L 145.860995 101.385686 
L 146.877573 102.598237 
L 147.894152 103.412933 
L 148.910731 104.559427 
L 149.927309 105.487178 
L 150.943888 106.669504 
L 152.977045 108.627475 
L 153.993624 109.866228 
L 155.010202 110.663649 
L 158.059938 114.114169 
L 159.076517 115.133324 
L 160.093095 115.803608 
L 162.126253 118.033429 
L 163.142831 118.649323 
L 165.175988 121.39961 
L 167.209146 123.173992 
L 169.242303 125.155072 
L 171.27546 126.917661 
L 172.292039 127.948559 
L 173.308617 129.270847 
L 174.325196 130.031756 
L 176.358353 131.737314 
L 177.374932 132.960879 
L 179.408089 134.748412 
L 180.424668 136.172992 
L 181.441246 136.774252 
L 186.524139 141.51794 
L 189.573875 144.447164 
L 190.590454 145.053502 
L 191.607032 145.915522 
L 192.623611 147.271379 
L 193.640189 148.250025 
L 194.656768 148.795913 
L 196.689925 150.636806 
L 197.706504 151.604035 
L 198.723083 152.790008 
L 201.772818 155.245185 
L 204.822554 158.09442 
L 206.855711 159.366969 
L 207.87229 160.627851 
L 209.905447 162.639155 
L 210.922026 163.303379 
L 211.938604 164.391786 
L 213.971762 165.913077 
L 214.98834 166.834868 
L 216.004919 167.527834 
L 217.021498 168.421789 
L 218.038076 169.511881 
L 219.054655 170.242163 
L 220.071233 171.125707 
L 221.087812 172.194199 
L 224.137548 174.398824 
L 227.187284 176.990769 
L 228.203862 177.671438 
L 229.220441 178.820949 
L 230.237019 179.784457 
L 231.253598 180.502543 
L 232.270177 181.020117 
L 233.286755 182.162864 
L 234.303334 183.072058 
L 235.319913 183.451129 
L 240.402806 187.834002 
L 241.419384 188.484823 
L 242.435963 189.275932 
L 243.452541 190.31792 
L 245.485699 191.497003 
L 246.502277 192.384571 
L 247.518856 192.989727 
L 248.535435 194.036569 
L 249.552013 194.8185 
L 250.568592 195.428987 
L 252.601749 197.379766 
L 253.618328 197.747925 
L 254.634906 198.744826 
L 258.701221 201.670429 
L 259.717799 202.806563 
L 260.734378 203.188199 
L 262.767535 204.928484 
L 263.784114 205.808546 
L 264.800692 206.32299 
L 265.817271 207.017351 
L 266.83385 207.977162 
L 268.867007 209.432395 
L 269.883585 210.329984 
L 270.900164 210.890972 
L 271.916743 211.792496 
L 272.933321 212.096017 
L 273.9499 213.133605 
L 275.983057 214.264785 
L 279.032793 216.665974 
L 281.06595 217.842944 
L 282.082529 218.763189 
L 285.132265 220.787029 
L 286.148843 221.782435 
L 287.165422 222.409833 
L 288.182 223.186307 
L 289.198579 223.559394 
L 290.215158 224.436564 
L 291.231736 225.005109 
L 293.264893 226.616182 
L 294.281472 227.122478 
L 295.298051 227.905101 
L 296.314629 228.345893 
L 297.331208 229.377131 
L 298.347786 229.857754 
L 300.380944 231.296176 
L 303.43068 233.319337 
L 304.447258 233.778837 
L 306.480415 235.414993 
L 307.496994 235.998977 
L 308.513573 236.92048 
L 309.530151 237.66429 
L 310.54673 238.09139 
L 314.613044 240.688137 
L 317.66278 242.806651 
L 318.679359 243.152241 
L 323.762252 246.234816 
L 325.795409 247.830965 
L 327.828566 248.925168 
L 329.861723 250.012745 
L 330.878302 250.926553 
L 331.894881 251.479344 
L 332.911459 252.213096 
L 333.928038 252.585164 
L 334.944617 253.09571 
L 335.961195 254.080555 
L 336.977774 254.567363 
L 340.02751 256.364275 
L 342.060667 257.56609 
L 343.077245 258.434132 
L 344.093824 258.767816 
L 345.110403 259.354465 
L 346.126981 260.310153 
L 347.14356 260.622186 
L 350.193296 262.488664 
L 351.209874 262.821229 
L 353.243032 264.137343 
L 354.25961 264.609102 
L 355.276189 265.2301 
L 356.292767 265.67924 
L 360.359082 268.321061 
L 361.37566 268.67202 
L 364.425396 270.384556 
L 367.475132 272.171322 
L 368.491711 272.859158 
L 369.508289 273.235363 
L 374.591182 276.103596 
L 375.607761 276.496397 
L 376.62434 277.049326 
L 377.640918 277.781268 
L 380.690654 279.235507 
L 382.723811 280.523747 
L 384.756968 281.491417 
L 385.773547 281.988296 
L 386.790126 282.144577 
L 387.806704 282.944613 
L 390.85644 284.449521 
L 391.873019 285.132503 
L 392.889597 285.588181 
L 393.906176 286.246207 
L 394.922755 286.493339 
L 397.97249 288.260605 
L 398.989069 288.45488 
L 400.005648 289.327261 
L 401.022226 289.547034 
L 402.038805 290.122116 
L 403.055383 290.91706 
L 404.071962 291.281007 
L 406.105119 292.295108 
L 407.121698 292.746889 
L 408.138277 293.363235 
L 410.171434 294.263414 
L 414.237748 296.499559 
L 415.254327 296.784297 
L 418.304063 298.195675 
L 421.353799 299.588396 
L 422.370377 300.129104 
L 423.386956 300.489404 
L 424.403534 301.205755 
L 425.420113 301.496678 
L 426.436692 302.09062 
L 432.536163 304.619323 
L 433.552742 305.295667 
L 434.56932 305.55624 
L 435.585899 306.350693 
L 438.635635 307.498583 
L 441.685371 308.973115 
L 442.701949 309.165454 
L 443.718528 309.96725 
L 444.735107 310.502816 
L 445.751685 310.634542 
L 446.768264 311.427116 
L 447.784842 311.609246 
L 448.801421 312.229019 
L 450.834578 312.793433 
L 451.851157 313.4478 
L 453.884314 314.248182 
L 454.900893 314.574605 
L 455.917471 315.152315 
L 456.93405 315.539301 
L 457.950629 316.10464 
L 458.967207 316.315442 
L 459.983786 316.749702 
L 461.000364 317.380118 
L 464.0501 318.345493 
L 465.066679 318.996811 
L 466.083257 319.290325 
L 468.116415 320.310191 
L 470.149572 320.853413 
L 472.182729 321.983003 
L 473.199308 322.136932 
L 474.215886 322.632202 
L 475.232465 323.279553 
L 476.249044 323.472861 
L 477.265622 324.017599 
L 481.331937 325.500863 
L 484.381672 326.894777 
L 485.398251 327.114934 
L 488.447987 328.260479 
L 491.497723 329.460407 
L 492.514301 329.612438 
L 493.53088 330.147696 
L 494.547459 330.449055 
L 495.564037 330.987537 
L 496.580616 331.213082 
L 497.597194 331.661725 
L 498.613773 331.931671 
L 499.630352 332.379384 
L 500.64693 332.68437 
L 501.663509 333.196098 
L 504.713245 334.1802 
L 505.729823 334.76294 
L 506.746402 334.948546 
L 507.762981 335.26933 
L 508.779559 335.897175 
L 509.796138 336.056058 
L 513.862452 337.288456 
L 514.879031 338.026338 
L 517.928767 339.040741 
L 518.945345 339.512625 
L 521.995081 340.313346 
L 528.094553 342.539056 
L 529.111131 342.661352 
L 530.12771 343.208391 
L 534.194024 344.491382 
L 535.210603 344.626471 
L 536.227182 345.205212 
L 538.260339 345.696848 
L 539.276917 346.24031 
L 540.293496 346.44653 
L 544.359811 347.759557 
L 545.376389 347.88736 
L 546.392968 348.500256 
L 547.409546 348.529544 
L 549.442704 349.361163 
L 551.475861 349.939137 
L 554.525597 350.855541 
L 556.558754 351.3468 
L 557.575332 351.640358 
L 558.591911 352.145284 
L 559.60849 352.476145 
L 560.625068 352.630005 
L 564.691383 353.951796 
L 566.72454 354.615768 
L 567.741119 354.80758 
L 568.757697 355.265458 
L 570.790854 355.630574 
L 571.807433 356.052556 
L 574.857169 356.811253 
L 576.890326 357.526277 
L 577.906905 357.625779 
L 578.923483 358.171158 
L 579.940062 358.316035 
L 581.973219 358.969358 
L 582.989798 359.38017 
L 584.006376 359.233225 
L 586.039534 360.305696 
L 587.056112 360.362695 
L 588.072691 360.689991 
L 589.089269 360.59125 
L 591.122427 361.293564 
L 592.139005 361.487563 
L 593.155584 362.014837 
L 595.188741 362.402546 
L 596.20532 362.539245 
L 597.221898 362.977446 
L 598.238477 363.040103 
L 599.255056 363.51129 
L 600.271634 363.705999 
L 603.32137 364.646707 
L 604.337949 364.755383 
L 606.371106 365.334348 
L 608.404263 365.93098 
L 609.420842 365.936078 
L 610.43742 366.359906 
L 611.453999 366.550944 
L 612.470578 367.040525 
L 613.487156 367.067601 
L 615.520313 367.612433 
L 616.536892 367.611534 
L 617.553471 368.163529 
L 619.586628 368.583152 
L 621.619785 369.032276 
L 622.636364 369.36 
L 622.636364 369.36 
" clip-path="url(#p90f8ed4d28)" style="fill: none; stroke: #1f77b4; stroke-width: 1.5; stroke-linecap: round"/>
   </g>
   <g id="line2d_13">
    <path d="M 115.363636 69.363553 
L 117.396794 71.753175 
L 130.612316 85.85494 
L 132.645473 87.971128 
L 136.711787 92.340799 
L 139.761523 95.558343 
L 148.910731 105.201774 
L 157.043359 113.778926 
L 159.076517 115.82033 
L 167.209146 123.898013 
L 177.374932 133.61165 
L 181.441246 137.527743 
L 184.490982 140.328447 
L 195.673347 150.382155 
L 205.839133 159.524507 
L 209.905447 163.01277 
L 217.021498 169.055687 
L 224.137548 174.906516 
L 228.203862 178.264877 
L 232.270177 181.497836 
L 238.369648 186.455866 
L 242.435963 189.653294 
L 245.485699 191.953523 
L 248.535435 194.331905 
L 260.734378 203.491557 
L 283.099107 219.816065 
L 306.480415 235.480058 
L 309.530151 237.479067 
L 314.613044 240.667744 
L 335.961195 254.051813 
L 340.02751 256.421168 
L 347.14356 260.626951 
L 356.292767 265.829096 
L 361.37566 268.67241 
L 368.491711 272.647217 
L 396.955912 287.60796 
L 412.204591 295.151674 
L 422.370377 299.981247 
L 429.486427 303.340412 
L 440.668792 308.361923 
L 459.983786 316.638521 
L 473.199308 322.017968 
L 483.365094 326.014105 
L 494.547459 330.284363 
L 507.762981 335.076733 
L 521.995081 340.015847 
L 535.210603 344.409206 
L 552.492439 349.840478 
L 568.757697 354.653172 
L 588.072691 360.030331 
L 599.255056 362.919353 
L 622.636364 368.69378 
L 622.636364 368.69378 
" clip-path="url(#p90f8ed4d28)" style="fill: none; stroke-dasharray: 6,2.25; stroke-dashoffset: 0; stroke: #ff7f0e; stroke-width: 1.5"/>
   </g>
   <g id="line2d_14"/>
   <g id="line2d_15"/>
   <g id="patch_3">
    <path d="M 90 384.48 
L 90 51.84 
" style="fill: none; stroke: #000000; stroke-width: 0.8; stroke-linejoin: miter; stroke-linecap: square"/>
   </g>
   <g id="patch_4">
    <path d="M 648 384.48 
L 648 51.84 
" style="fill: none; stroke: #000000; stroke-width: 0.8; stroke-linejoin: miter; stroke-linecap: square"/>
   </g>
   <g id="patch_5">
    <path d="M 90 384.48 
L 648 384.48 
" style="fill: none; stroke: #000000; stroke-width: 0.8; stroke-linejoin: miter; stroke-linecap: square"/>
   </g>
   <g id="patch_6">
    <path d="M 90 51.84 
L 648 51.84 
" style="fill: none; stroke: #000000; stroke-width: 0.8; stroke-linejoin: miter; stroke-linecap: square"/>
   </g>
   <g id="legend_1">
    <g id="patch_7">
     <path d="M 559.61875 89.19625 
L 641 89.19625 
Q 643 89.19625 643 87.19625 
L 643 58.84 
Q 643 56.84 641 56.84 
L 559.61875 56.84 
Q 557.61875 56.84 557.61875 58.84 
L 557.61875 87.19625 
Q 557.61875 89.19625 559.61875 89.19625 
z
" style="fill: #ffffff; opacity: 0.8; stroke: #cccccc; stroke-linejoin: miter"/>
    </g>
    <g id="line2d_16">
     <path d="M 561.61875 64.938437 
L 571.61875 64.938437 
L 581.61875 64.938437 
" style="fill: none; stroke: #1f77b4; stroke-width: 1.5; stroke-linecap: round"/>
    </g>
    <g id="text_14">
     <!-- Training -->
     <g style="fill: #262626" transform="translate(589.61875 68.438437)scale(0.1 -0.1)">
      <defs>
       <path id="DejaVuSans-54" d="M -19 4666 
L 3928 4666 
L 3928 4134 
L 2272 4134 
L 2272 0 
L 1638 0 
L 1638 4134 
L -19 4134 
L -19 4666 
z
" transform="scale(0.015625)"/>
       <path id="DejaVuSans-72" d="M 2631 2963 
Q 2534 3019 2420 3045 
Q 2306 3072 2169 3072 
Q 1681 3072 1420 2755 
Q 1159 2438 1159 1844 
L 1159 0 
L 581 0 
L 581 3500 
L 1159 3500 
L 1159 2956 
Q 1341 3275 1631 3429 
Q 1922 3584 2338 3584 
Q 2397 3584 2469 3576 
Q 2541 3569 2628 3553 
L 2631 2963 
z
" transform="scale(0.015625)"/>
       <path id="DejaVuSans-61" d="M 2194 1759 
Q 1497 1759 1228 1600 
Q 959 1441 959 1056 
Q 959 750 1161 570 
Q 1363 391 1709 391 
Q 2188 391 2477 730 
Q 2766 1069 2766 1631 
L 2766 1759 
L 2194 1759 
z
M 3341 1997 
L 3341 0 
L 2766 0 
L 2766 531 
Q 2569 213 2275 61 
Q 1981 -91 1556 -91 
Q 1019 -91 701 211 
Q 384 513 384 1019 
Q 384 1609 779 1909 
Q 1175 2209 1959 2209 
L 2766 2209 
L 2766 2266 
Q 2766 2663 2505 2880 
Q 2244 3097 1772 3097 
Q 1472 3097 1187 3025 
Q 903 2953 641 2809 
L 641 3341 
Q 956 3463 1253 3523 
Q 1550 3584 1831 3584 
Q 2591 3584 2966 3190 
Q 3341 2797 3341 1997 
z
" transform="scale(0.015625)"/>
       <path id="DejaVuSans-69" d="M 603 3500 
L 1178 3500 
L 1178 0 
L 603 0 
L 603 3500 
z
M 603 4863 
L 1178 4863 
L 1178 4134 
L 603 4134 
L 603 4863 
z
" transform="scale(0.015625)"/>
       <path id="DejaVuSans-6e" d="M 3513 2113 
L 3513 0 
L 2938 0 
L 2938 2094 
Q 2938 2591 2744 2837 
Q 2550 3084 2163 3084 
Q 1697 3084 1428 2787 
Q 1159 2491 1159 1978 
L 1159 0 
L 581 0 
L 581 3500 
L 1159 3500 
L 1159 2956 
Q 1366 3272 1645 3428 
Q 1925 3584 2291 3584 
Q 2894 3584 3203 3211 
Q 3513 2838 3513 2113 
z
" transform="scale(0.015625)"/>
       <path id="DejaVuSans-67" d="M 2906 1791 
Q 2906 2416 2648 2759 
Q 2391 3103 1925 3103 
Q 1463 3103 1205 2759 
Q 947 2416 947 1791 
Q 947 1169 1205 825 
Q 1463 481 1925 481 
Q 2391 481 2648 825 
Q 2906 1169 2906 1791 
z
M 3481 434 
Q 3481 -459 3084 -895 
Q 2688 -1331 1869 -1331 
Q 1566 -1331 1297 -1286 
Q 1028 -1241 775 -1147 
L 775 -588 
Q 1028 -725 1275 -790 
Q 1522 -856 1778 -856 
Q 2344 -856 2625 -561 
Q 2906 -266 2906 331 
L 2906 616 
Q 2728 306 2450 153 
Q 2172 0 1784 0 
Q 1141 0 747 490 
Q 353 981 353 1791 
Q 353 2603 747 3093 
Q 1141 3584 1784 3584 
Q 2172 3584 2450 3431 
Q 2728 3278 2906 2969 
L 2906 3500 
L 3481 3500 
L 3481 434 
z
" transform="scale(0.015625)"/>
      </defs>
      <use xlink:href="#DejaVuSans-54"/>
      <use xlink:href="#DejaVuSans-72" x="46.333984"/>
      <use xlink:href="#DejaVuSans-61" x="87.447266"/>
      <use xlink:href="#DejaVuSans-69" x="148.726562"/>
      <use xlink:href="#DejaVuSans-6e" x="176.509766"/>
      <use xlink:href="#DejaVuSans-69" x="239.888672"/>
      <use xlink:href="#DejaVuSans-6e" x="267.671875"/>
      <use xlink:href="#DejaVuSans-67" x="331.050781"/>
     </g>
    </g>
    <g id="line2d_17">
     <path d="M 561.61875 79.616562 
L 571.61875 79.616562 
L 581.61875 79.616562 
" style="fill: none; stroke-dasharray: 6,2.25; stroke-dashoffset: 0; stroke: #ff7f0e; stroke-width: 1.5"/>
    </g>
    <g id="text_15">
     <!-- Validation -->
     <g style="fill: #262626" transform="translate(589.61875 83.116562)scale(0.1 -0.1)">
      <defs>
       <path id="DejaVuSans-56" d="M 1831 0 
L 50 4666 
L 709 4666 
L 2188 738 
L 3669 4666 
L 4325 4666 
L 2547 0 
L 1831 0 
z
" transform="scale(0.015625)"/>
       <path id="DejaVuSans-6c" d="M 603 4863 
L 1178 4863 
L 1178 0 
L 603 0 
L 603 4863 
z
" transform="scale(0.015625)"/>
       <path id="DejaVuSans-64" d="M 2906 2969 
L 2906 4863 
L 3481 4863 
L 3481 0 
L 2906 0 
L 2906 525 
Q 2725 213 2448 61 
Q 2172 -91 1784 -91 
Q 1150 -91 751 415 
Q 353 922 353 1747 
Q 353 2572 751 3078 
Q 1150 3584 1784 3584 
Q 2172 3584 2448 3432 
Q 2725 3281 2906 2969 
z
M 947 1747 
Q 947 1113 1208 752 
Q 1469 391 1925 391 
Q 2381 391 2643 752 
Q 2906 1113 2906 1747 
Q 2906 2381 2643 2742 
Q 2381 3103 1925 3103 
Q 1469 3103 1208 2742 
Q 947 2381 947 1747 
z
" transform="scale(0.015625)"/>
       <path id="DejaVuSans-74" d="M 1172 4494 
L 1172 3500 
L 2356 3500 
L 2356 3053 
L 1172 3053 
L 1172 1153 
Q 1172 725 1289 603 
Q 1406 481 1766 481 
L 2356 481 
L 2356 0 
L 1766 0 
Q 1100 0 847 248 
Q 594 497 594 1153 
L 594 3053 
L 172 3053 
L 172 3500 
L 594 3500 
L 594 4494 
L 1172 4494 
z
" transform="scale(0.015625)"/>
      </defs>
      <use xlink:href="#DejaVuSans-56"/>
      <use xlink:href="#DejaVuSans-61" x="60.658203"/>
      <use xlink:href="#DejaVuSans-6c" x="121.9375"/>
      <use xlink:href="#DejaVuSans-69" x="149.720703"/>
      <use xlink:href="#DejaVuSans-64" x="177.503906"/>
      <use xlink:href="#DejaVuSans-61" x="240.980469"/>
      <use xlink:href="#DejaVuSans-74" x="302.259766"/>
      <use xlink:href="#DejaVuSans-69" x="341.46875"/>
      <use xlink:href="#DejaVuSans-6f" x="369.251953"/>
      <use xlink:href="#DejaVuSans-6e" x="430.433594"/>
     </g>
    </g>
   </g>
  </g>
 </g>
 <defs>
  <clipPath id="p90f8ed4d28">
   <rect x="90" y="51.84" width="558" height="332.64"/>
  </clipPath>
 </defs>
</svg>
