<?xml version="1.0" encoding="utf-8" standalone="no"?>
<!DOCTYPE svg PUBLIC "-//W3C//DTD SVG 1.1//EN"
  "http://www.w3.org/Graphics/SVG/1.1/DTD/svg11.dtd">
<svg xmlns:xlink="http://www.w3.org/1999/xlink" width="720pt" height="432pt" viewBox="0 0 720 432" xmlns="http://www.w3.org/2000/svg" version="1.1">
 <metadata>
  <rdf:RDF xmlns:dc="http://purl.org/dc/elements/1.1/" xmlns:cc="http://creativecommons.org/ns#" xmlns:rdf="http://www.w3.org/1999/02/22-rdf-syntax-ns#">
   <cc:Work>
    <dc:type rdf:resource="http://purl.org/dc/dcmitype/StillImage"/>
    <dc:date>2022-06-26T17:32:56.231597</dc:date>
    <dc:format>image/svg+xml</dc:format>
    <dc:creator>
     <cc:Agent>
      <dc:title>Matplotlib v3.5.2, https://matplotlib.org/</dc:title>
     </cc:Agent>
    </dc:creator>
   </cc:Work>
  </rdf:RDF>
 </metadata>
 <defs>
  <style type="text/css">*{stroke-linejoin: round; stroke-linecap: butt}</style>
 </defs>
 <g id="figure_1">
  <g id="patch_1">
   <path d="M 0 432 
L 720 432 
L 720 0 
L 0 0 
z
" style="fill: #ffffff"/>
  </g>
  <g id="axes_1">
   <g id="patch_2">
    <path d="M 90 384.48 
L 648 384.48 
L 648 51.84 
L 90 51.84 
z
" style="fill: #ffffff"/>
   </g>
   <g id="matplotlib.axis_1">
    <g id="xtick_1">
     <g id="line2d_1">
      <path d="M 115.363636 384.48 
L 115.363636 51.84 
" clip-path="url(#p76c788b102)" style="fill: none; stroke: #cccccc; stroke-width: 0.8; stroke-linecap: round"/>
     </g>
     <g id="text_1">
      <!-- 0 -->
      <g style="fill: #262626" transform="translate(112.182386 399.078438)scale(0.1 -0.1)">
       <defs>
        <path id="DejaVuSans-30" d="M 2034 4250 
Q 1547 4250 1301 3770 
Q 1056 3291 1056 2328 
Q 1056 1369 1301 889 
Q 1547 409 2034 409 
Q 2525 409 2770 889 
Q 3016 1369 3016 2328 
Q 3016 3291 2770 3770 
Q 2525 4250 2034 4250 
z
M 2034 4750 
Q 2819 4750 3233 4129 
Q 3647 3509 3647 2328 
Q 3647 1150 3233 529 
Q 2819 -91 2034 -91 
Q 1250 -91 836 529 
Q 422 1150 422 2328 
Q 422 3509 836 4129 
Q 1250 4750 2034 4750 
z
" transform="scale(0.015625)"/>
       </defs>
       <use xlink:href="#DejaVuSans-30"/>
      </g>
     </g>
    </g>
    <g id="xtick_2">
     <g id="line2d_2">
      <path d="M 217.021498 384.48 
L 217.021498 51.84 
" clip-path="url(#p76c788b102)" style="fill: none; stroke: #cccccc; stroke-width: 0.8; stroke-linecap: round"/>
     </g>
     <g id="text_2">
      <!-- 100 -->
      <g style="fill: #262626" transform="translate(207.477748 399.078438)scale(0.1 -0.1)">
       <defs>
        <path id="DejaVuSans-31" d="M 794 531 
L 1825 531 
L 1825 4091 
L 703 3866 
L 703 4441 
L 1819 4666 
L 2450 4666 
L 2450 531 
L 3481 531 
L 3481 0 
L 794 0 
L 794 531 
z
" transform="scale(0.015625)"/>
       </defs>
       <use xlink:href="#DejaVuSans-31"/>
       <use xlink:href="#DejaVuSans-30" x="63.623047"/>
       <use xlink:href="#DejaVuSans-30" x="127.246094"/>
      </g>
     </g>
    </g>
    <g id="xtick_3">
     <g id="line2d_3">
      <path d="M 318.679359 384.48 
L 318.679359 51.84 
" clip-path="url(#p76c788b102)" style="fill: none; stroke: #cccccc; stroke-width: 0.8; stroke-linecap: round"/>
     </g>
     <g id="text_3">
      <!-- 200 -->
      <g style="fill: #262626" transform="translate(309.135609 399.078438)scale(0.1 -0.1)">
       <defs>
        <path id="DejaVuSans-32" d="M 1228 531 
L 3431 531 
L 3431 0 
L 469 0 
L 469 531 
Q 828 903 1448 1529 
Q 2069 2156 2228 2338 
Q 2531 2678 2651 2914 
Q 2772 3150 2772 3378 
Q 2772 3750 2511 3984 
Q 2250 4219 1831 4219 
Q 1534 4219 1204 4116 
Q 875 4013 500 3803 
L 500 4441 
Q 881 4594 1212 4672 
Q 1544 4750 1819 4750 
Q 2544 4750 2975 4387 
Q 3406 4025 3406 3419 
Q 3406 3131 3298 2873 
Q 3191 2616 2906 2266 
Q 2828 2175 2409 1742 
Q 1991 1309 1228 531 
z
" transform="scale(0.015625)"/>
       </defs>
       <use xlink:href="#DejaVuSans-32"/>
       <use xlink:href="#DejaVuSans-30" x="63.623047"/>
       <use xlink:href="#DejaVuSans-30" x="127.246094"/>
      </g>
     </g>
    </g>
    <g id="xtick_4">
     <g id="line2d_4">
      <path d="M 420.33722 384.48 
L 420.33722 51.84 
" clip-path="url(#p76c788b102)" style="fill: none; stroke: #cccccc; stroke-width: 0.8; stroke-linecap: round"/>
     </g>
     <g id="text_4">
      <!-- 300 -->
      <g style="fill: #262626" transform="translate(410.79347 399.078438)scale(0.1 -0.1)">
       <defs>
        <path id="DejaVuSans-33" d="M 2597 2516 
Q 3050 2419 3304 2112 
Q 3559 1806 3559 1356 
Q 3559 666 3084 287 
Q 2609 -91 1734 -91 
Q 1441 -91 1130 -33 
Q 819 25 488 141 
L 488 750 
Q 750 597 1062 519 
Q 1375 441 1716 441 
Q 2309 441 2620 675 
Q 2931 909 2931 1356 
Q 2931 1769 2642 2001 
Q 2353 2234 1838 2234 
L 1294 2234 
L 1294 2753 
L 1863 2753 
Q 2328 2753 2575 2939 
Q 2822 3125 2822 3475 
Q 2822 3834 2567 4026 
Q 2313 4219 1838 4219 
Q 1578 4219 1281 4162 
Q 984 4106 628 3988 
L 628 4550 
Q 988 4650 1302 4700 
Q 1616 4750 1894 4750 
Q 2613 4750 3031 4423 
Q 3450 4097 3450 3541 
Q 3450 3153 3228 2886 
Q 3006 2619 2597 2516 
z
" transform="scale(0.015625)"/>
       </defs>
       <use xlink:href="#DejaVuSans-33"/>
       <use xlink:href="#DejaVuSans-30" x="63.623047"/>
       <use xlink:href="#DejaVuSans-30" x="127.246094"/>
      </g>
     </g>
    </g>
    <g id="xtick_5">
     <g id="line2d_5">
      <path d="M 521.995081 384.48 
L 521.995081 51.84 
" clip-path="url(#p76c788b102)" style="fill: none; stroke: #cccccc; stroke-width: 0.8; stroke-linecap: round"/>
     </g>
     <g id="text_5">
      <!-- 400 -->
      <g style="fill: #262626" transform="translate(512.451331 399.078438)scale(0.1 -0.1)">
       <defs>
        <path id="DejaVuSans-34" d="M 2419 4116 
L 825 1625 
L 2419 1625 
L 2419 4116 
z
M 2253 4666 
L 3047 4666 
L 3047 1625 
L 3713 1625 
L 3713 1100 
L 3047 1100 
L 3047 0 
L 2419 0 
L 2419 1100 
L 313 1100 
L 313 1709 
L 2253 4666 
z
" transform="scale(0.015625)"/>
       </defs>
       <use xlink:href="#DejaVuSans-34"/>
       <use xlink:href="#DejaVuSans-30" x="63.623047"/>
       <use xlink:href="#DejaVuSans-30" x="127.246094"/>
      </g>
     </g>
    </g>
    <g id="xtick_6">
     <g id="line2d_6">
      <path d="M 623.652942 384.48 
L 623.652942 51.84 
" clip-path="url(#p76c788b102)" style="fill: none; stroke: #cccccc; stroke-width: 0.8; stroke-linecap: round"/>
     </g>
     <g id="text_6">
      <!-- 500 -->
      <g style="fill: #262626" transform="translate(614.109192 399.078438)scale(0.1 -0.1)">
       <defs>
        <path id="DejaVuSans-35" d="M 691 4666 
L 3169 4666 
L 3169 4134 
L 1269 4134 
L 1269 2991 
Q 1406 3038 1543 3061 
Q 1681 3084 1819 3084 
Q 2600 3084 3056 2656 
Q 3513 2228 3513 1497 
Q 3513 744 3044 326 
Q 2575 -91 1722 -91 
Q 1428 -91 1123 -41 
Q 819 9 494 109 
L 494 744 
Q 775 591 1075 516 
Q 1375 441 1709 441 
Q 2250 441 2565 725 
Q 2881 1009 2881 1497 
Q 2881 1984 2565 2268 
Q 2250 2553 1709 2553 
Q 1456 2553 1204 2497 
Q 953 2441 691 2322 
L 691 4666 
z
" transform="scale(0.015625)"/>
       </defs>
       <use xlink:href="#DejaVuSans-35"/>
       <use xlink:href="#DejaVuSans-30" x="63.623047"/>
       <use xlink:href="#DejaVuSans-30" x="127.246094"/>
      </g>
     </g>
    </g>
    <g id="text_7">
     <!-- Epochs -->
     <g style="fill: #262626" transform="translate(351.084375 412.756563)scale(0.1 -0.1)">
      <defs>
       <path id="DejaVuSans-45" d="M 628 4666 
L 3578 4666 
L 3578 4134 
L 1259 4134 
L 1259 2753 
L 3481 2753 
L 3481 2222 
L 1259 2222 
L 1259 531 
L 3634 531 
L 3634 0 
L 628 0 
L 628 4666 
z
" transform="scale(0.015625)"/>
       <path id="DejaVuSans-70" d="M 1159 525 
L 1159 -1331 
L 581 -1331 
L 581 3500 
L 1159 3500 
L 1159 2969 
Q 1341 3281 1617 3432 
Q 1894 3584 2278 3584 
Q 2916 3584 3314 3078 
Q 3713 2572 3713 1747 
Q 3713 922 3314 415 
Q 2916 -91 2278 -91 
Q 1894 -91 1617 61 
Q 1341 213 1159 525 
z
M 3116 1747 
Q 3116 2381 2855 2742 
Q 2594 3103 2138 3103 
Q 1681 3103 1420 2742 
Q 1159 2381 1159 1747 
Q 1159 1113 1420 752 
Q 1681 391 2138 391 
Q 2594 391 2855 752 
Q 3116 1113 3116 1747 
z
" transform="scale(0.015625)"/>
       <path id="DejaVuSans-6f" d="M 1959 3097 
Q 1497 3097 1228 2736 
Q 959 2375 959 1747 
Q 959 1119 1226 758 
Q 1494 397 1959 397 
Q 2419 397 2687 759 
Q 2956 1122 2956 1747 
Q 2956 2369 2687 2733 
Q 2419 3097 1959 3097 
z
M 1959 3584 
Q 2709 3584 3137 3096 
Q 3566 2609 3566 1747 
Q 3566 888 3137 398 
Q 2709 -91 1959 -91 
Q 1206 -91 779 398 
Q 353 888 353 1747 
Q 353 2609 779 3096 
Q 1206 3584 1959 3584 
z
" transform="scale(0.015625)"/>
       <path id="DejaVuSans-63" d="M 3122 3366 
L 3122 2828 
Q 2878 2963 2633 3030 
Q 2388 3097 2138 3097 
Q 1578 3097 1268 2742 
Q 959 2388 959 1747 
Q 959 1106 1268 751 
Q 1578 397 2138 397 
Q 2388 397 2633 464 
Q 2878 531 3122 666 
L 3122 134 
Q 2881 22 2623 -34 
Q 2366 -91 2075 -91 
Q 1284 -91 818 406 
Q 353 903 353 1747 
Q 353 2603 823 3093 
Q 1294 3584 2113 3584 
Q 2378 3584 2631 3529 
Q 2884 3475 3122 3366 
z
" transform="scale(0.015625)"/>
       <path id="DejaVuSans-68" d="M 3513 2113 
L 3513 0 
L 2938 0 
L 2938 2094 
Q 2938 2591 2744 2837 
Q 2550 3084 2163 3084 
Q 1697 3084 1428 2787 
Q 1159 2491 1159 1978 
L 1159 0 
L 581 0 
L 581 4863 
L 1159 4863 
L 1159 2956 
Q 1366 3272 1645 3428 
Q 1925 3584 2291 3584 
Q 2894 3584 3203 3211 
Q 3513 2838 3513 2113 
z
" transform="scale(0.015625)"/>
       <path id="DejaVuSans-73" d="M 2834 3397 
L 2834 2853 
Q 2591 2978 2328 3040 
Q 2066 3103 1784 3103 
Q 1356 3103 1142 2972 
Q 928 2841 928 2578 
Q 928 2378 1081 2264 
Q 1234 2150 1697 2047 
L 1894 2003 
Q 2506 1872 2764 1633 
Q 3022 1394 3022 966 
Q 3022 478 2636 193 
Q 2250 -91 1575 -91 
Q 1294 -91 989 -36 
Q 684 19 347 128 
L 347 722 
Q 666 556 975 473 
Q 1284 391 1588 391 
Q 1994 391 2212 530 
Q 2431 669 2431 922 
Q 2431 1156 2273 1281 
Q 2116 1406 1581 1522 
L 1381 1569 
Q 847 1681 609 1914 
Q 372 2147 372 2553 
Q 372 3047 722 3315 
Q 1072 3584 1716 3584 
Q 2034 3584 2315 3537 
Q 2597 3491 2834 3397 
z
" transform="scale(0.015625)"/>
      </defs>
      <use xlink:href="#DejaVuSans-45"/>
      <use xlink:href="#DejaVuSans-70" x="63.183594"/>
      <use xlink:href="#DejaVuSans-6f" x="126.660156"/>
      <use xlink:href="#DejaVuSans-63" x="187.841797"/>
      <use xlink:href="#DejaVuSans-68" x="242.822266"/>
      <use xlink:href="#DejaVuSans-73" x="306.201172"/>
     </g>
    </g>
   </g>
   <g id="matplotlib.axis_2">
    <g id="ytick_1">
     <g id="line2d_7">
      <path d="M 90 352.197798 
L 648 352.197798 
" clip-path="url(#p76c788b102)" style="fill: none; stroke: #cccccc; stroke-width: 0.8; stroke-linecap: round"/>
     </g>
     <g id="text_8">
      <!-- 10 -->
      <g style="fill: #262626" transform="translate(70.275 355.997017)scale(0.1 -0.1)">
       <use xlink:href="#DejaVuSans-31"/>
       <use xlink:href="#DejaVuSans-30" x="63.623047"/>
      </g>
     </g>
    </g>
    <g id="ytick_2">
     <g id="line2d_8">
      <path d="M 90 287.580636 
L 648 287.580636 
" clip-path="url(#p76c788b102)" style="fill: none; stroke: #cccccc; stroke-width: 0.8; stroke-linecap: round"/>
     </g>
     <g id="text_9">
      <!-- 20 -->
      <g style="fill: #262626" transform="translate(70.275 291.379855)scale(0.1 -0.1)">
       <use xlink:href="#DejaVuSans-32"/>
       <use xlink:href="#DejaVuSans-30" x="63.623047"/>
      </g>
     </g>
    </g>
    <g id="ytick_3">
     <g id="line2d_9">
      <path d="M 90 222.963474 
L 648 222.963474 
" clip-path="url(#p76c788b102)" style="fill: none; stroke: #cccccc; stroke-width: 0.8; stroke-linecap: round"/>
     </g>
     <g id="text_10">
      <!-- 30 -->
      <g style="fill: #262626" transform="translate(70.275 226.762693)scale(0.1 -0.1)">
       <use xlink:href="#DejaVuSans-33"/>
       <use xlink:href="#DejaVuSans-30" x="63.623047"/>
      </g>
     </g>
    </g>
    <g id="ytick_4">
     <g id="line2d_10">
      <path d="M 90 158.346312 
L 648 158.346312 
" clip-path="url(#p76c788b102)" style="fill: none; stroke: #cccccc; stroke-width: 0.8; stroke-linecap: round"/>
     </g>
     <g id="text_11">
      <!-- 40 -->
      <g style="fill: #262626" transform="translate(70.275 162.145531)scale(0.1 -0.1)">
       <use xlink:href="#DejaVuSans-34"/>
       <use xlink:href="#DejaVuSans-30" x="63.623047"/>
      </g>
     </g>
    </g>
    <g id="ytick_5">
     <g id="line2d_11">
      <path d="M 90 93.72915 
L 648 93.72915 
" clip-path="url(#p76c788b102)" style="fill: none; stroke: #cccccc; stroke-width: 0.8; stroke-linecap: round"/>
     </g>
     <g id="text_12">
      <!-- 50 -->
      <g style="fill: #262626" transform="translate(70.275 97.528369)scale(0.1 -0.1)">
       <use xlink:href="#DejaVuSans-35"/>
       <use xlink:href="#DejaVuSans-30" x="63.623047"/>
      </g>
     </g>
    </g>
    <g id="text_13">
     <!-- Loss -->
     <g style="fill: #262626" transform="translate(64.195312 229.127187)rotate(-90)scale(0.1 -0.1)">
      <defs>
       <path id="DejaVuSans-4c" d="M 628 4666 
L 1259 4666 
L 1259 531 
L 3531 531 
L 3531 0 
L 628 0 
L 628 4666 
z
" transform="scale(0.015625)"/>
      </defs>
      <use xlink:href="#DejaVuSans-4c"/>
      <use xlink:href="#DejaVuSans-6f" x="53.962891"/>
      <use xlink:href="#DejaVuSans-73" x="115.144531"/>
      <use xlink:href="#DejaVuSans-73" x="167.244141"/>
     </g>
    </g>
   </g>
   <g id="line2d_12">
    <path d="M 115.363636 66.96 
L 116.380215 68.581542 
L 119.429951 72.2045 
L 121.463108 74.560646 
L 122.479687 75.454215 
L 123.496265 76.936438 
L 124.512844 78.153334 
L 125.529422 79.081806 
L 126.546001 80.547342 
L 129.595737 83.693208 
L 130.612316 84.812 
L 131.628894 86.097175 
L 133.662051 88.261523 
L 134.67863 89.488698 
L 137.728366 92.486594 
L 140.778102 95.945238 
L 142.811259 97.953999 
L 143.827837 99.122138 
L 144.844416 99.730611 
L 145.860995 101.143668 
L 146.877573 102.36468 
L 147.894152 102.981534 
L 149.927309 105.429943 
L 158.059938 113.639456 
L 159.076517 114.578577 
L 162.126253 117.922946 
L 163.142831 118.756764 
L 168.225724 123.877721 
L 170.258881 125.622313 
L 171.27546 126.900611 
L 172.292039 127.56383 
L 175.341774 130.773638 
L 178.39151 133.602759 
L 179.408089 134.40579 
L 181.441246 136.625328 
L 184.490982 139.266965 
L 185.507561 140.46461 
L 186.524139 141.131132 
L 187.540718 141.945699 
L 189.573875 144.097131 
L 192.623611 146.854966 
L 193.640189 147.836583 
L 195.673347 149.467689 
L 196.689925 150.600505 
L 197.706504 151.417562 
L 198.723083 152.013488 
L 199.739661 152.899785 
L 200.75624 154.150648 
L 204.822554 157.616564 
L 207.87229 160.577288 
L 208.888869 161.114302 
L 211.938604 163.705309 
L 212.955183 164.806796 
L 213.971762 165.450148 
L 214.98834 166.240681 
L 216.004919 167.32272 
L 218.038076 169.196648 
L 219.054655 169.766495 
L 220.071233 170.552962 
L 221.087812 171.726327 
L 222.104391 172.315351 
L 223.120969 173.128784 
L 224.137548 174.160612 
L 225.154126 174.820257 
L 227.187284 176.743953 
L 228.203862 177.236302 
L 230.237019 178.980303 
L 231.253598 180.042301 
L 232.270177 180.582988 
L 233.286755 181.641043 
L 236.336491 184.008182 
L 237.35307 185.033823 
L 239.386227 186.231271 
L 240.402806 186.964667 
L 241.419384 188.049121 
L 242.435963 188.770686 
L 244.46912 190.65477 
L 245.485699 191.186607 
L 247.518856 192.793754 
L 248.535435 193.824078 
L 250.568592 195.09084 
L 251.58517 196.155747 
L 252.601749 196.709893 
L 253.618328 197.553694 
L 254.634906 198.235351 
L 255.651485 199.066359 
L 256.668063 199.538027 
L 257.684642 200.556273 
L 258.701221 201.185205 
L 260.734378 202.992111 
L 262.767535 204.328755 
L 263.784114 205.39031 
L 264.800692 205.891927 
L 265.817271 206.707209 
L 266.83385 207.667306 
L 267.850428 208.090316 
L 269.883585 209.644195 
L 270.900164 210.524873 
L 271.916743 210.875696 
L 272.933321 211.807201 
L 273.9499 212.463765 
L 275.983057 213.967433 
L 278.016214 215.457063 
L 279.032793 216.078193 
L 280.049371 217.02164 
L 281.06595 217.528483 
L 282.082529 218.50045 
L 283.099107 219.027567 
L 286.148843 221.191607 
L 288.182 222.384396 
L 289.198579 223.326573 
L 290.215158 223.823076 
L 291.231736 224.652149 
L 292.248315 225.225213 
L 293.264893 226.113605 
L 294.281472 226.735795 
L 295.298051 227.651006 
L 298.347786 229.389054 
L 300.380944 231.167946 
L 303.43068 232.869131 
L 304.447258 233.566638 
L 305.463837 234.411425 
L 306.480415 235.078859 
L 307.496994 235.536563 
L 316.646201 241.754373 
L 317.66278 242.166315 
L 319.695937 243.533819 
L 324.77883 246.547479 
L 325.795409 247.365361 
L 326.811988 248.009058 
L 327.828566 248.367486 
L 328.845145 249.208145 
L 330.878302 250.492901 
L 331.894881 251.358147 
L 333.928038 252.23207 
L 334.944617 252.962706 
L 335.961195 253.35356 
L 336.977774 254.272543 
L 339.010931 255.462337 
L 340.02751 256.197459 
L 341.044088 256.600207 
L 342.060667 257.192041 
L 343.077245 257.983339 
L 344.093824 258.18279 
L 345.110403 258.898809 
L 346.126981 259.759236 
L 347.14356 260.197184 
L 348.160138 260.900409 
L 349.176717 261.355968 
L 350.193296 262.06108 
L 351.209874 262.537431 
L 352.226453 263.219581 
L 353.243032 263.531335 
L 354.25961 264.367446 
L 355.276189 265.024392 
L 356.292767 265.521868 
L 357.309346 266.191891 
L 358.325925 266.634411 
L 361.37566 268.526259 
L 362.392239 268.920392 
L 363.408818 269.731422 
L 366.458553 271.20784 
L 367.475132 271.827035 
L 368.491711 272.252818 
L 369.508289 273.078465 
L 370.524868 273.546633 
L 371.541447 274.170783 
L 372.558025 274.441792 
L 373.574604 275.025356 
L 374.591182 275.887916 
L 375.607761 276.268923 
L 376.62434 277.025539 
L 377.640918 277.281388 
L 378.657497 277.929781 
L 379.674075 278.355268 
L 381.707233 279.418918 
L 382.723811 280.287419 
L 384.756968 280.969877 
L 385.773547 281.784505 
L 387.806704 282.562998 
L 388.823283 283.380831 
L 389.839862 283.679065 
L 390.85644 284.458507 
L 391.873019 284.751688 
L 392.889597 285.406243 
L 393.906176 285.725146 
L 395.939333 286.936952 
L 397.97249 287.877995 
L 398.989069 288.583365 
L 400.005648 288.818509 
L 401.022226 289.550402 
L 402.038805 290.032324 
L 403.055383 290.639946 
L 404.071962 290.959058 
L 405.088541 291.74163 
L 408.138277 292.961706 
L 410.171434 294.012613 
L 413.22117 295.400749 
L 416.270905 297.129837 
L 417.287484 297.311627 
L 418.304063 297.951466 
L 419.320641 298.371197 
L 423.386956 300.568675 
L 427.45327 302.148399 
L 428.469849 302.750709 
L 429.486427 303.090971 
L 430.503006 303.68331 
L 434.56932 305.469782 
L 436.602478 306.456391 
L 437.619056 306.884145 
L 438.635635 307.438858 
L 440.668792 308.28473 
L 441.685371 308.986624 
L 442.701949 309.241228 
L 446.768264 310.98062 
L 447.784842 311.295911 
L 448.801421 311.95743 
L 450.834578 312.735417 
L 452.867735 313.747383 
L 453.884314 314.168329 
L 454.900893 314.354334 
L 458.967207 316.16312 
L 459.983786 316.905901 
L 461.000364 317.010274 
L 466.083257 319.2333 
L 467.099836 319.338566 
L 469.132993 320.499637 
L 470.149572 320.797415 
L 471.16615 321.36187 
L 473.199308 322.06647 
L 474.215886 322.385631 
L 478.282201 324.235619 
L 481.331937 325.319654 
L 486.41483 327.384844 
L 487.431408 327.588633 
L 488.447987 328.218342 
L 490.481144 328.944121 
L 491.497723 329.332967 
L 492.514301 329.553709 
L 493.53088 329.93638 
L 494.547459 330.570926 
L 496.580616 331.192851 
L 497.597194 331.787945 
L 498.613773 331.922236 
L 501.663509 333.092809 
L 502.680087 333.343008 
L 503.696666 333.883152 
L 505.729823 334.519269 
L 506.746402 334.732253 
L 507.762981 335.326861 
L 508.779559 335.488469 
L 510.812716 336.50539 
L 511.829295 336.7306 
L 513.862452 337.505222 
L 514.879031 337.985179 
L 515.895609 338.080813 
L 516.912188 338.568983 
L 528.094553 342.468459 
L 529.111131 342.936134 
L 530.12771 343.246724 
L 531.144289 343.40949 
L 532.160867 343.867336 
L 535.210603 344.845366 
L 536.227182 345.195783 
L 537.24376 345.352129 
L 541.310075 346.826927 
L 542.326653 346.929019 
L 543.343232 347.617084 
L 544.359811 347.828676 
L 545.376389 348.263789 
L 548.426125 348.959711 
L 549.442704 349.360253 
L 550.459282 349.635329 
L 551.475861 350.037005 
L 554.525597 350.842236 
L 555.542175 351.263262 
L 556.558754 351.391119 
L 557.575332 352.039129 
L 559.60849 352.478266 
L 562.658226 353.561383 
L 563.674804 353.613357 
L 565.707961 354.39941 
L 567.741119 354.891574 
L 568.757697 355.25566 
L 570.790854 355.734248 
L 573.84059 356.566353 
L 574.857169 356.990275 
L 575.873747 357.202698 
L 576.890326 357.691886 
L 579.940062 358.214591 
L 580.956641 358.824234 
L 582.989798 359.219803 
L 587.056112 360.37722 
L 589.089269 360.915713 
L 590.105848 361.105489 
L 592.139005 361.785606 
L 593.155584 361.961073 
L 594.172163 362.343707 
L 595.188741 362.596149 
L 596.20532 362.728356 
L 598.238477 363.425216 
L 600.271634 363.988894 
L 601.288213 364.259047 
L 602.304791 364.364929 
L 603.32137 364.768681 
L 605.354527 365.274914 
L 606.371106 365.322725 
L 607.387684 365.518226 
L 608.404263 366.021827 
L 610.43742 366.51775 
L 611.453999 366.636789 
L 613.487156 367.264448 
L 617.553471 368.165988 
L 619.586628 368.98555 
L 621.619785 369.144354 
L 622.636364 369.36 
L 622.636364 369.36 
" clip-path="url(#p76c788b102)" style="fill: none; stroke: #1f77b4; stroke-width: 1.5; stroke-linecap: round"/>
   </g>
   <g id="line2d_13">
    <path d="M 115.363636 69.286838 
L 117.396794 71.779247 
L 121.463108 76.141664 
L 145.860995 101.860327 
L 156.026781 112.100909 
L 159.076517 115.100777 
L 175.341774 130.725719 
L 196.689925 150.590793 
L 207.87229 160.365524 
L 220.071233 170.738154 
L 228.203862 177.385037 
L 232.270177 180.705742 
L 238.369648 185.65711 
L 242.435963 188.851709 
L 250.568592 195.114134 
L 253.618328 197.41753 
L 266.83385 207.286915 
L 285.132265 220.211962 
L 287.165422 221.587083 
L 290.215158 223.75789 
L 305.463837 233.975782 
L 331.894881 250.621571 
L 337.994352 254.23123 
L 347.14356 259.67226 
L 357.309346 265.410834 
L 366.458553 270.354586 
L 368.491711 271.437672 
L 372.558025 273.666257 
L 380.690654 278.01497 
L 383.74039 279.659929 
L 393.906176 284.723772 
L 395.939333 285.649262 
L 401.022226 288.26392 
L 406.105119 290.692363 
L 416.270905 295.648723 
L 421.353799 298.096602 
L 427.45327 300.922321 
L 436.602478 305.002909 
L 438.635635 305.88525 
L 442.701949 307.598192 
L 449.818 310.604826 
L 454.900893 312.836677 
L 457.950629 314.202234 
L 467.099836 318.245275 
L 481.331937 323.885245 
L 487.431408 326.268678 
L 494.547459 329.071498 
L 501.663509 331.607185 
L 504.713245 332.689858 
L 508.779559 334.161654 
L 516.912188 337.096756 
L 524.028238 339.457289 
L 530.12771 341.474135 
L 536.227182 343.400043 
L 541.310075 344.931344 
L 544.359811 345.966844 
L 546.392968 346.61695 
L 551.475861 348.320224 
L 554.525597 349.217527 
L 561.641647 351.482716 
L 567.741119 353.200139 
L 570.790854 354.047397 
L 574.857169 355.170373 
L 578.923483 356.394799 
L 592.139005 360.043891 
L 598.238477 361.604907 
L 606.371106 363.669117 
L 622.636364 367.545532 
L 622.636364 367.545532 
" clip-path="url(#p76c788b102)" style="fill: none; stroke-dasharray: 6,2.25; stroke-dashoffset: 0; stroke: #ff7f0e; stroke-width: 1.5"/>
   </g>
   <g id="line2d_14"/>
   <g id="line2d_15"/>
   <g id="patch_3">
    <path d="M 90 384.48 
L 90 51.84 
" style="fill: none; stroke: #cccccc; stroke-width: 0.8; stroke-linejoin: miter; stroke-linecap: square"/>
   </g>
   <g id="patch_4">
    <path d="M 648 384.48 
L 648 51.84 
" style="fill: none; stroke: #cccccc; stroke-width: 0.8; stroke-linejoin: miter; stroke-linecap: square"/>
   </g>
   <g id="patch_5">
    <path d="M 90 384.48 
L 648 384.48 
" style="fill: none; stroke: #cccccc; stroke-width: 0.8; stroke-linejoin: miter; stroke-linecap: square"/>
   </g>
   <g id="patch_6">
    <path d="M 90 51.84 
L 648 51.84 
" style="fill: none; stroke: #cccccc; stroke-width: 0.8; stroke-linejoin: miter; stroke-linecap: square"/>
   </g>
   <g id="legend_1">
    <g id="patch_7">
     <path d="M 559.61875 89.19625 
L 641 89.19625 
Q 643 89.19625 643 87.19625 
L 643 58.84 
Q 643 56.84 641 56.84 
L 559.61875 56.84 
Q 557.61875 56.84 557.61875 58.84 
L 557.61875 87.19625 
Q 557.61875 89.19625 559.61875 89.19625 
z
" style="fill: #ffffff; opacity: 0.8; stroke: #cccccc; stroke-linejoin: miter"/>
    </g>
    <g id="line2d_16">
     <path d="M 561.61875 64.938437 
L 571.61875 64.938437 
L 581.61875 64.938437 
" style="fill: none; stroke: #1f77b4; stroke-width: 1.5; stroke-linecap: round"/>
    </g>
    <g id="text_14">
     <!-- Training -->
     <g style="fill: #262626" transform="translate(589.61875 68.438437)scale(0.1 -0.1)">
      <defs>
       <path id="DejaVuSans-54" d="M -19 4666 
L 3928 4666 
L 3928 4134 
L 2272 4134 
L 2272 0 
L 1638 0 
L 1638 4134 
L -19 4134 
L -19 4666 
z
" transform="scale(0.015625)"/>
       <path id="DejaVuSans-72" d="M 2631 2963 
Q 2534 3019 2420 3045 
Q 2306 3072 2169 3072 
Q 1681 3072 1420 2755 
Q 1159 2438 1159 1844 
L 1159 0 
L 581 0 
L 581 3500 
L 1159 3500 
L 1159 2956 
Q 1341 3275 1631 3429 
Q 1922 3584 2338 3584 
Q 2397 3584 2469 3576 
Q 2541 3569 2628 3553 
L 2631 2963 
z
" transform="scale(0.015625)"/>
       <path id="DejaVuSans-61" d="M 2194 1759 
Q 1497 1759 1228 1600 
Q 959 1441 959 1056 
Q 959 750 1161 570 
Q 1363 391 1709 391 
Q 2188 391 2477 730 
Q 2766 1069 2766 1631 
L 2766 1759 
L 2194 1759 
z
M 3341 1997 
L 3341 0 
L 2766 0 
L 2766 531 
Q 2569 213 2275 61 
Q 1981 -91 1556 -91 
Q 1019 -91 701 211 
Q 384 513 384 1019 
Q 384 1609 779 1909 
Q 1175 2209 1959 2209 
L 2766 2209 
L 2766 2266 
Q 2766 2663 2505 2880 
Q 2244 3097 1772 3097 
Q 1472 3097 1187 3025 
Q 903 2953 641 2809 
L 641 3341 
Q 956 3463 1253 3523 
Q 1550 3584 1831 3584 
Q 2591 3584 2966 3190 
Q 3341 2797 3341 1997 
z
" transform="scale(0.015625)"/>
       <path id="DejaVuSans-69" d="M 603 3500 
L 1178 3500 
L 1178 0 
L 603 0 
L 603 3500 
z
M 603 4863 
L 1178 4863 
L 1178 4134 
L 603 4134 
L 603 4863 
z
" transform="scale(0.015625)"/>
       <path id="DejaVuSans-6e" d="M 3513 2113 
L 3513 0 
L 2938 0 
L 2938 2094 
Q 2938 2591 2744 2837 
Q 2550 3084 2163 3084 
Q 1697 3084 1428 2787 
Q 1159 2491 1159 1978 
L 1159 0 
L 581 0 
L 581 3500 
L 1159 3500 
L 1159 2956 
Q 1366 3272 1645 3428 
Q 1925 3584 2291 3584 
Q 2894 3584 3203 3211 
Q 3513 2838 3513 2113 
z
" transform="scale(0.015625)"/>
       <path id="DejaVuSans-67" d="M 2906 1791 
Q 2906 2416 2648 2759 
Q 2391 3103 1925 3103 
Q 1463 3103 1205 2759 
Q 947 2416 947 1791 
Q 947 1169 1205 825 
Q 1463 481 1925 481 
Q 2391 481 2648 825 
Q 2906 1169 2906 1791 
z
M 3481 434 
Q 3481 -459 3084 -895 
Q 2688 -1331 1869 -1331 
Q 1566 -1331 1297 -1286 
Q 1028 -1241 775 -1147 
L 775 -588 
Q 1028 -725 1275 -790 
Q 1522 -856 1778 -856 
Q 2344 -856 2625 -561 
Q 2906 -266 2906 331 
L 2906 616 
Q 2728 306 2450 153 
Q 2172 0 1784 0 
Q 1141 0 747 490 
Q 353 981 353 1791 
Q 353 2603 747 3093 
Q 1141 3584 1784 3584 
Q 2172 3584 2450 3431 
Q 2728 3278 2906 2969 
L 2906 3500 
L 3481 3500 
L 3481 434 
z
" transform="scale(0.015625)"/>
      </defs>
      <use xlink:href="#DejaVuSans-54"/>
      <use xlink:href="#DejaVuSans-72" x="46.333984"/>
      <use xlink:href="#DejaVuSans-61" x="87.447266"/>
      <use xlink:href="#DejaVuSans-69" x="148.726562"/>
      <use xlink:href="#DejaVuSans-6e" x="176.509766"/>
      <use xlink:href="#DejaVuSans-69" x="239.888672"/>
      <use xlink:href="#DejaVuSans-6e" x="267.671875"/>
      <use xlink:href="#DejaVuSans-67" x="331.050781"/>
     </g>
    </g>
    <g id="line2d_17">
     <path d="M 561.61875 79.616562 
L 571.61875 79.616562 
L 581.61875 79.616562 
" style="fill: none; stroke-dasharray: 6,2.25; stroke-dashoffset: 0; stroke: #ff7f0e; stroke-width: 1.5"/>
    </g>
    <g id="text_15">
     <!-- Validation -->
     <g style="fill: #262626" transform="translate(589.61875 83.116562)scale(0.1 -0.1)">
      <defs>
       <path id="DejaVuSans-56" d="M 1831 0 
L 50 4666 
L 709 4666 
L 2188 738 
L 3669 4666 
L 4325 4666 
L 2547 0 
L 1831 0 
z
" transform="scale(0.015625)"/>
       <path id="DejaVuSans-6c" d="M 603 4863 
L 1178 4863 
L 1178 0 
L 603 0 
L 603 4863 
z
" transform="scale(0.015625)"/>
       <path id="DejaVuSans-64" d="M 2906 2969 
L 2906 4863 
L 3481 4863 
L 3481 0 
L 2906 0 
L 2906 525 
Q 2725 213 2448 61 
Q 2172 -91 1784 -91 
Q 1150 -91 751 415 
Q 353 922 353 1747 
Q 353 2572 751 3078 
Q 1150 3584 1784 3584 
Q 2172 3584 2448 3432 
Q 2725 3281 2906 2969 
z
M 947 1747 
Q 947 1113 1208 752 
Q 1469 391 1925 391 
Q 2381 391 2643 752 
Q 2906 1113 2906 1747 
Q 2906 2381 2643 2742 
Q 2381 3103 1925 3103 
Q 1469 3103 1208 2742 
Q 947 2381 947 1747 
z
" transform="scale(0.015625)"/>
       <path id="DejaVuSans-74" d="M 1172 4494 
L 1172 3500 
L 2356 3500 
L 2356 3053 
L 1172 3053 
L 1172 1153 
Q 1172 725 1289 603 
Q 1406 481 1766 481 
L 2356 481 
L 2356 0 
L 1766 0 
Q 1100 0 847 248 
Q 594 497 594 1153 
L 594 3053 
L 172 3053 
L 172 3500 
L 594 3500 
L 594 4494 
L 1172 4494 
z
" transform="scale(0.015625)"/>
      </defs>
      <use xlink:href="#DejaVuSans-56"/>
      <use xlink:href="#DejaVuSans-61" x="60.658203"/>
      <use xlink:href="#DejaVuSans-6c" x="121.9375"/>
      <use xlink:href="#DejaVuSans-69" x="149.720703"/>
      <use xlink:href="#DejaVuSans-64" x="177.503906"/>
      <use xlink:href="#DejaVuSans-61" x="240.980469"/>
      <use xlink:href="#DejaVuSans-74" x="302.259766"/>
      <use xlink:href="#DejaVuSans-69" x="341.46875"/>
      <use xlink:href="#DejaVuSans-6f" x="369.251953"/>
      <use xlink:href="#DejaVuSans-6e" x="430.433594"/>
     </g>
    </g>
   </g>
  </g>
 </g>
 <defs>
  <clipPath id="p76c788b102">
   <rect x="90" y="51.84" width="558" height="332.64"/>
  </clipPath>
 </defs>
</svg>
