<?xml version="1.0" encoding="utf-8" standalone="no"?>
<!DOCTYPE svg PUBLIC "-//W3C//DTD SVG 1.1//EN"
  "http://www.w3.org/Graphics/SVG/1.1/DTD/svg11.dtd">
<svg xmlns:xlink="http://www.w3.org/1999/xlink" width="720pt" height="432pt" viewBox="0 0 720 432" xmlns="http://www.w3.org/2000/svg" version="1.1">
 <metadata>
  <rdf:RDF xmlns:dc="http://purl.org/dc/elements/1.1/" xmlns:cc="http://creativecommons.org/ns#" xmlns:rdf="http://www.w3.org/1999/02/22-rdf-syntax-ns#">
   <cc:Work>
    <dc:type rdf:resource="http://purl.org/dc/dcmitype/StillImage"/>
    <dc:date>2022-06-26T17:44:34.844327</dc:date>
    <dc:format>image/svg+xml</dc:format>
    <dc:creator>
     <cc:Agent>
      <dc:title>Matplotlib v3.5.2, https://matplotlib.org/</dc:title>
     </cc:Agent>
    </dc:creator>
   </cc:Work>
  </rdf:RDF>
 </metadata>
 <defs>
  <style type="text/css">*{stroke-linejoin: round; stroke-linecap: butt}</style>
 </defs>
 <g id="figure_1">
  <g id="patch_1">
   <path d="M 0 432 
L 720 432 
L 720 0 
L 0 0 
z
" style="fill: #ffffff"/>
  </g>
  <g id="axes_1">
   <g id="patch_2">
    <path d="M 90 384.48 
L 648 384.48 
L 648 51.84 
L 90 51.84 
z
" style="fill: #ffffff"/>
   </g>
   <g id="matplotlib.axis_1">
    <g id="xtick_1">
     <g id="line2d_1">
      <path d="M 115.363636 384.48 
L 115.363636 51.84 
" clip-path="url(#p0e20cc47a3)" style="fill: none; stroke: #cccccc; stroke-width: 0.8; stroke-linecap: round"/>
     </g>
     <g id="text_1">
      <!-- 0 -->
      <g style="fill: #262626" transform="translate(112.182386 399.078438)scale(0.1 -0.1)">
       <defs>
        <path id="DejaVuSans-30" d="M 2034 4250 
Q 1547 4250 1301 3770 
Q 1056 3291 1056 2328 
Q 1056 1369 1301 889 
Q 1547 409 2034 409 
Q 2525 409 2770 889 
Q 3016 1369 3016 2328 
Q 3016 3291 2770 3770 
Q 2525 4250 2034 4250 
z
M 2034 4750 
Q 2819 4750 3233 4129 
Q 3647 3509 3647 2328 
Q 3647 1150 3233 529 
Q 2819 -91 2034 -91 
Q 1250 -91 836 529 
Q 422 1150 422 2328 
Q 422 3509 836 4129 
Q 1250 4750 2034 4750 
z
" transform="scale(0.015625)"/>
       </defs>
       <use xlink:href="#DejaVuSans-30"/>
      </g>
     </g>
    </g>
    <g id="xtick_2">
     <g id="line2d_2">
      <path d="M 217.021498 384.48 
L 217.021498 51.84 
" clip-path="url(#p0e20cc47a3)" style="fill: none; stroke: #cccccc; stroke-width: 0.8; stroke-linecap: round"/>
     </g>
     <g id="text_2">
      <!-- 100 -->
      <g style="fill: #262626" transform="translate(207.477748 399.078438)scale(0.1 -0.1)">
       <defs>
        <path id="DejaVuSans-31" d="M 794 531 
L 1825 531 
L 1825 4091 
L 703 3866 
L 703 4441 
L 1819 4666 
L 2450 4666 
L 2450 531 
L 3481 531 
L 3481 0 
L 794 0 
L 794 531 
z
" transform="scale(0.015625)"/>
       </defs>
       <use xlink:href="#DejaVuSans-31"/>
       <use xlink:href="#DejaVuSans-30" x="63.623047"/>
       <use xlink:href="#DejaVuSans-30" x="127.246094"/>
      </g>
     </g>
    </g>
    <g id="xtick_3">
     <g id="line2d_3">
      <path d="M 318.679359 384.48 
L 318.679359 51.84 
" clip-path="url(#p0e20cc47a3)" style="fill: none; stroke: #cccccc; stroke-width: 0.8; stroke-linecap: round"/>
     </g>
     <g id="text_3">
      <!-- 200 -->
      <g style="fill: #262626" transform="translate(309.135609 399.078438)scale(0.1 -0.1)">
       <defs>
        <path id="DejaVuSans-32" d="M 1228 531 
L 3431 531 
L 3431 0 
L 469 0 
L 469 531 
Q 828 903 1448 1529 
Q 2069 2156 2228 2338 
Q 2531 2678 2651 2914 
Q 2772 3150 2772 3378 
Q 2772 3750 2511 3984 
Q 2250 4219 1831 4219 
Q 1534 4219 1204 4116 
Q 875 4013 500 3803 
L 500 4441 
Q 881 4594 1212 4672 
Q 1544 4750 1819 4750 
Q 2544 4750 2975 4387 
Q 3406 4025 3406 3419 
Q 3406 3131 3298 2873 
Q 3191 2616 2906 2266 
Q 2828 2175 2409 1742 
Q 1991 1309 1228 531 
z
" transform="scale(0.015625)"/>
       </defs>
       <use xlink:href="#DejaVuSans-32"/>
       <use xlink:href="#DejaVuSans-30" x="63.623047"/>
       <use xlink:href="#DejaVuSans-30" x="127.246094"/>
      </g>
     </g>
    </g>
    <g id="xtick_4">
     <g id="line2d_4">
      <path d="M 420.33722 384.48 
L 420.33722 51.84 
" clip-path="url(#p0e20cc47a3)" style="fill: none; stroke: #cccccc; stroke-width: 0.8; stroke-linecap: round"/>
     </g>
     <g id="text_4">
      <!-- 300 -->
      <g style="fill: #262626" transform="translate(410.79347 399.078438)scale(0.1 -0.1)">
       <defs>
        <path id="DejaVuSans-33" d="M 2597 2516 
Q 3050 2419 3304 2112 
Q 3559 1806 3559 1356 
Q 3559 666 3084 287 
Q 2609 -91 1734 -91 
Q 1441 -91 1130 -33 
Q 819 25 488 141 
L 488 750 
Q 750 597 1062 519 
Q 1375 441 1716 441 
Q 2309 441 2620 675 
Q 2931 909 2931 1356 
Q 2931 1769 2642 2001 
Q 2353 2234 1838 2234 
L 1294 2234 
L 1294 2753 
L 1863 2753 
Q 2328 2753 2575 2939 
Q 2822 3125 2822 3475 
Q 2822 3834 2567 4026 
Q 2313 4219 1838 4219 
Q 1578 4219 1281 4162 
Q 984 4106 628 3988 
L 628 4550 
Q 988 4650 1302 4700 
Q 1616 4750 1894 4750 
Q 2613 4750 3031 4423 
Q 3450 4097 3450 3541 
Q 3450 3153 3228 2886 
Q 3006 2619 2597 2516 
z
" transform="scale(0.015625)"/>
       </defs>
       <use xlink:href="#DejaVuSans-33"/>
       <use xlink:href="#DejaVuSans-30" x="63.623047"/>
       <use xlink:href="#DejaVuSans-30" x="127.246094"/>
      </g>
     </g>
    </g>
    <g id="xtick_5">
     <g id="line2d_5">
      <path d="M 521.995081 384.48 
L 521.995081 51.84 
" clip-path="url(#p0e20cc47a3)" style="fill: none; stroke: #cccccc; stroke-width: 0.8; stroke-linecap: round"/>
     </g>
     <g id="text_5">
      <!-- 400 -->
      <g style="fill: #262626" transform="translate(512.451331 399.078438)scale(0.1 -0.1)">
       <defs>
        <path id="DejaVuSans-34" d="M 2419 4116 
L 825 1625 
L 2419 1625 
L 2419 4116 
z
M 2253 4666 
L 3047 4666 
L 3047 1625 
L 3713 1625 
L 3713 1100 
L 3047 1100 
L 3047 0 
L 2419 0 
L 2419 1100 
L 313 1100 
L 313 1709 
L 2253 4666 
z
" transform="scale(0.015625)"/>
       </defs>
       <use xlink:href="#DejaVuSans-34"/>
       <use xlink:href="#DejaVuSans-30" x="63.623047"/>
       <use xlink:href="#DejaVuSans-30" x="127.246094"/>
      </g>
     </g>
    </g>
    <g id="xtick_6">
     <g id="line2d_6">
      <path d="M 623.652942 384.48 
L 623.652942 51.84 
" clip-path="url(#p0e20cc47a3)" style="fill: none; stroke: #cccccc; stroke-width: 0.8; stroke-linecap: round"/>
     </g>
     <g id="text_6">
      <!-- 500 -->
      <g style="fill: #262626" transform="translate(614.109192 399.078438)scale(0.1 -0.1)">
       <defs>
        <path id="DejaVuSans-35" d="M 691 4666 
L 3169 4666 
L 3169 4134 
L 1269 4134 
L 1269 2991 
Q 1406 3038 1543 3061 
Q 1681 3084 1819 3084 
Q 2600 3084 3056 2656 
Q 3513 2228 3513 1497 
Q 3513 744 3044 326 
Q 2575 -91 1722 -91 
Q 1428 -91 1123 -41 
Q 819 9 494 109 
L 494 744 
Q 775 591 1075 516 
Q 1375 441 1709 441 
Q 2250 441 2565 725 
Q 2881 1009 2881 1497 
Q 2881 1984 2565 2268 
Q 2250 2553 1709 2553 
Q 1456 2553 1204 2497 
Q 953 2441 691 2322 
L 691 4666 
z
" transform="scale(0.015625)"/>
       </defs>
       <use xlink:href="#DejaVuSans-35"/>
       <use xlink:href="#DejaVuSans-30" x="63.623047"/>
       <use xlink:href="#DejaVuSans-30" x="127.246094"/>
      </g>
     </g>
    </g>
    <g id="text_7">
     <!-- Epochs -->
     <g style="fill: #262626" transform="translate(351.084375 412.756563)scale(0.1 -0.1)">
      <defs>
       <path id="DejaVuSans-45" d="M 628 4666 
L 3578 4666 
L 3578 4134 
L 1259 4134 
L 1259 2753 
L 3481 2753 
L 3481 2222 
L 1259 2222 
L 1259 531 
L 3634 531 
L 3634 0 
L 628 0 
L 628 4666 
z
" transform="scale(0.015625)"/>
       <path id="DejaVuSans-70" d="M 1159 525 
L 1159 -1331 
L 581 -1331 
L 581 3500 
L 1159 3500 
L 1159 2969 
Q 1341 3281 1617 3432 
Q 1894 3584 2278 3584 
Q 2916 3584 3314 3078 
Q 3713 2572 3713 1747 
Q 3713 922 3314 415 
Q 2916 -91 2278 -91 
Q 1894 -91 1617 61 
Q 1341 213 1159 525 
z
M 3116 1747 
Q 3116 2381 2855 2742 
Q 2594 3103 2138 3103 
Q 1681 3103 1420 2742 
Q 1159 2381 1159 1747 
Q 1159 1113 1420 752 
Q 1681 391 2138 391 
Q 2594 391 2855 752 
Q 3116 1113 3116 1747 
z
" transform="scale(0.015625)"/>
       <path id="DejaVuSans-6f" d="M 1959 3097 
Q 1497 3097 1228 2736 
Q 959 2375 959 1747 
Q 959 1119 1226 758 
Q 1494 397 1959 397 
Q 2419 397 2687 759 
Q 2956 1122 2956 1747 
Q 2956 2369 2687 2733 
Q 2419 3097 1959 3097 
z
M 1959 3584 
Q 2709 3584 3137 3096 
Q 3566 2609 3566 1747 
Q 3566 888 3137 398 
Q 2709 -91 1959 -91 
Q 1206 -91 779 398 
Q 353 888 353 1747 
Q 353 2609 779 3096 
Q 1206 3584 1959 3584 
z
" transform="scale(0.015625)"/>
       <path id="DejaVuSans-63" d="M 3122 3366 
L 3122 2828 
Q 2878 2963 2633 3030 
Q 2388 3097 2138 3097 
Q 1578 3097 1268 2742 
Q 959 2388 959 1747 
Q 959 1106 1268 751 
Q 1578 397 2138 397 
Q 2388 397 2633 464 
Q 2878 531 3122 666 
L 3122 134 
Q 2881 22 2623 -34 
Q 2366 -91 2075 -91 
Q 1284 -91 818 406 
Q 353 903 353 1747 
Q 353 2603 823 3093 
Q 1294 3584 2113 3584 
Q 2378 3584 2631 3529 
Q 2884 3475 3122 3366 
z
" transform="scale(0.015625)"/>
       <path id="DejaVuSans-68" d="M 3513 2113 
L 3513 0 
L 2938 0 
L 2938 2094 
Q 2938 2591 2744 2837 
Q 2550 3084 2163 3084 
Q 1697 3084 1428 2787 
Q 1159 2491 1159 1978 
L 1159 0 
L 581 0 
L 581 4863 
L 1159 4863 
L 1159 2956 
Q 1366 3272 1645 3428 
Q 1925 3584 2291 3584 
Q 2894 3584 3203 3211 
Q 3513 2838 3513 2113 
z
" transform="scale(0.015625)"/>
       <path id="DejaVuSans-73" d="M 2834 3397 
L 2834 2853 
Q 2591 2978 2328 3040 
Q 2066 3103 1784 3103 
Q 1356 3103 1142 2972 
Q 928 2841 928 2578 
Q 928 2378 1081 2264 
Q 1234 2150 1697 2047 
L 1894 2003 
Q 2506 1872 2764 1633 
Q 3022 1394 3022 966 
Q 3022 478 2636 193 
Q 2250 -91 1575 -91 
Q 1294 -91 989 -36 
Q 684 19 347 128 
L 347 722 
Q 666 556 975 473 
Q 1284 391 1588 391 
Q 1994 391 2212 530 
Q 2431 669 2431 922 
Q 2431 1156 2273 1281 
Q 2116 1406 1581 1522 
L 1381 1569 
Q 847 1681 609 1914 
Q 372 2147 372 2553 
Q 372 3047 722 3315 
Q 1072 3584 1716 3584 
Q 2034 3584 2315 3537 
Q 2597 3491 2834 3397 
z
" transform="scale(0.015625)"/>
      </defs>
      <use xlink:href="#DejaVuSans-45"/>
      <use xlink:href="#DejaVuSans-70" x="63.183594"/>
      <use xlink:href="#DejaVuSans-6f" x="126.660156"/>
      <use xlink:href="#DejaVuSans-63" x="187.841797"/>
      <use xlink:href="#DejaVuSans-68" x="242.822266"/>
      <use xlink:href="#DejaVuSans-73" x="306.201172"/>
     </g>
    </g>
   </g>
   <g id="matplotlib.axis_2">
    <g id="ytick_1">
     <g id="line2d_7">
      <path d="M 90 352.219972 
L 648 352.219972 
" clip-path="url(#p0e20cc47a3)" style="fill: none; stroke: #cccccc; stroke-width: 0.8; stroke-linecap: round"/>
     </g>
     <g id="text_8">
      <!-- 10 -->
      <g style="fill: #262626" transform="translate(70.275 356.019191)scale(0.1 -0.1)">
       <use xlink:href="#DejaVuSans-31"/>
       <use xlink:href="#DejaVuSans-30" x="63.623047"/>
      </g>
     </g>
    </g>
    <g id="ytick_2">
     <g id="line2d_8">
      <path d="M 90 287.666782 
L 648 287.666782 
" clip-path="url(#p0e20cc47a3)" style="fill: none; stroke: #cccccc; stroke-width: 0.8; stroke-linecap: round"/>
     </g>
     <g id="text_9">
      <!-- 20 -->
      <g style="fill: #262626" transform="translate(70.275 291.466001)scale(0.1 -0.1)">
       <use xlink:href="#DejaVuSans-32"/>
       <use xlink:href="#DejaVuSans-30" x="63.623047"/>
      </g>
     </g>
    </g>
    <g id="ytick_3">
     <g id="line2d_9">
      <path d="M 90 223.113592 
L 648 223.113592 
" clip-path="url(#p0e20cc47a3)" style="fill: none; stroke: #cccccc; stroke-width: 0.8; stroke-linecap: round"/>
     </g>
     <g id="text_10">
      <!-- 30 -->
      <g style="fill: #262626" transform="translate(70.275 226.912811)scale(0.1 -0.1)">
       <use xlink:href="#DejaVuSans-33"/>
       <use xlink:href="#DejaVuSans-30" x="63.623047"/>
      </g>
     </g>
    </g>
    <g id="ytick_4">
     <g id="line2d_10">
      <path d="M 90 158.560402 
L 648 158.560402 
" clip-path="url(#p0e20cc47a3)" style="fill: none; stroke: #cccccc; stroke-width: 0.8; stroke-linecap: round"/>
     </g>
     <g id="text_11">
      <!-- 40 -->
      <g style="fill: #262626" transform="translate(70.275 162.35962)scale(0.1 -0.1)">
       <use xlink:href="#DejaVuSans-34"/>
       <use xlink:href="#DejaVuSans-30" x="63.623047"/>
      </g>
     </g>
    </g>
    <g id="ytick_5">
     <g id="line2d_11">
      <path d="M 90 94.007211 
L 648 94.007211 
" clip-path="url(#p0e20cc47a3)" style="fill: none; stroke: #cccccc; stroke-width: 0.8; stroke-linecap: round"/>
     </g>
     <g id="text_12">
      <!-- 50 -->
      <g style="fill: #262626" transform="translate(70.275 97.80643)scale(0.1 -0.1)">
       <use xlink:href="#DejaVuSans-35"/>
       <use xlink:href="#DejaVuSans-30" x="63.623047"/>
      </g>
     </g>
    </g>
    <g id="text_13">
     <!-- Loss -->
     <g style="fill: #262626" transform="translate(64.195312 229.127187)rotate(-90)scale(0.1 -0.1)">
      <defs>
       <path id="DejaVuSans-4c" d="M 628 4666 
L 1259 4666 
L 1259 531 
L 3531 531 
L 3531 0 
L 628 0 
L 628 4666 
z
" transform="scale(0.015625)"/>
      </defs>
      <use xlink:href="#DejaVuSans-4c"/>
      <use xlink:href="#DejaVuSans-6f" x="53.962891"/>
      <use xlink:href="#DejaVuSans-73" x="115.144531"/>
      <use xlink:href="#DejaVuSans-73" x="167.244141"/>
     </g>
    </g>
   </g>
   <g id="line2d_12">
    <path d="M 115.363636 66.96 
L 116.380215 67.936532 
L 118.413372 70.318296 
L 119.429951 71.383996 
L 120.446529 73.208321 
L 121.463108 73.770462 
L 122.479687 74.80969 
L 123.496265 76.501089 
L 124.512844 77.358337 
L 125.529422 78.53155 
L 126.546001 79.404658 
L 131.628894 85.325686 
L 132.645473 85.917378 
L 133.662051 87.235263 
L 134.67863 88.357896 
L 135.695209 89.728307 
L 136.711787 90.730893 
L 137.728366 92.142157 
L 138.744944 93.020263 
L 139.761523 93.749338 
L 140.778102 95.006596 
L 143.827837 98.243933 
L 144.844416 99.427292 
L 145.860995 100.114159 
L 146.877573 101.057177 
L 147.894152 102.497104 
L 148.910731 103.374053 
L 149.927309 104.859291 
L 150.943888 105.671032 
L 152.977045 107.635301 
L 153.993624 108.635129 
L 155.010202 109.822182 
L 156.026781 110.675096 
L 157.043359 111.930483 
L 159.076517 113.978429 
L 160.093095 114.678471 
L 162.126253 117.120245 
L 163.142831 117.957695 
L 166.192567 121.014456 
L 169.242303 123.740946 
L 170.258881 125.00047 
L 171.27546 126.012487 
L 172.292039 126.802312 
L 173.308617 127.967005 
L 175.341774 129.7309 
L 176.358353 130.898006 
L 177.374932 131.708984 
L 178.39151 132.674337 
L 179.408089 133.368937 
L 180.424668 134.690738 
L 181.441246 135.509103 
L 182.457825 136.539269 
L 184.490982 138.317718 
L 185.507561 139.422842 
L 186.524139 140.29228 
L 187.540718 141.520801 
L 188.557296 142.462145 
L 189.573875 143.109981 
L 190.590454 143.903229 
L 192.623611 145.865332 
L 194.656768 147.770747 
L 195.673347 148.496621 
L 196.689925 149.561828 
L 198.723083 151.240422 
L 199.739661 152.456335 
L 200.75624 152.937509 
L 201.772818 154.134239 
L 203.805976 155.753068 
L 206.855711 158.592267 
L 207.87229 159.377881 
L 208.888869 160.556487 
L 209.905447 161.360102 
L 210.922026 161.987229 
L 211.938604 163.055096 
L 216.004919 166.559 
L 217.021498 167.212623 
L 219.054655 168.863785 
L 220.071233 170.082997 
L 221.087812 170.707342 
L 222.104391 171.780503 
L 223.120969 172.356607 
L 224.137548 173.101171 
L 225.154126 174.30556 
L 226.170705 175.131017 
L 228.203862 176.443362 
L 229.220441 177.621254 
L 231.253598 179.129048 
L 237.35307 184.227426 
L 238.369648 184.831553 
L 239.386227 185.857632 
L 240.402806 186.311866 
L 241.419384 187.453904 
L 242.435963 187.855514 
L 243.452541 188.784668 
L 245.485699 190.273476 
L 247.518856 192.144884 
L 248.535435 192.735172 
L 251.58517 195.311671 
L 252.601749 195.838845 
L 253.618328 196.717468 
L 254.634906 197.765388 
L 255.651485 198.433295 
L 256.668063 198.955937 
L 257.684642 199.886347 
L 259.717799 201.239865 
L 260.734378 202.169265 
L 261.750956 202.930944 
L 262.767535 203.549871 
L 263.784114 204.671987 
L 266.83385 206.543272 
L 267.850428 207.4659 
L 268.867007 208.102286 
L 269.883585 209.124104 
L 271.916743 210.623107 
L 272.933321 211.106288 
L 273.9499 212.299719 
L 274.966478 212.85494 
L 275.983057 213.252623 
L 279.032793 215.969928 
L 280.049371 216.126531 
L 282.082529 217.682935 
L 283.099107 218.310308 
L 287.165422 221.351174 
L 288.182 222.046808 
L 290.215158 223.238687 
L 291.231736 223.996561 
L 292.248315 224.995072 
L 294.281472 225.999492 
L 295.298051 226.97962 
L 296.314629 227.578847 
L 297.331208 228.437807 
L 298.347786 229.07588 
L 299.364365 229.896868 
L 301.397522 231.012618 
L 305.463837 233.695448 
L 306.480415 234.62587 
L 307.496994 234.975669 
L 308.513573 235.887893 
L 310.54673 237.426506 
L 311.563308 237.662155 
L 312.579887 238.183481 
L 313.596466 239.200091 
L 314.613044 239.731956 
L 315.629623 240.553424 
L 316.646201 240.958322 
L 317.66278 241.557795 
L 318.679359 242.457842 
L 320.712516 243.616145 
L 321.729095 244.401562 
L 323.762252 245.524429 
L 324.77883 246.312604 
L 326.811988 247.271813 
L 328.845145 248.896145 
L 329.861723 249.216222 
L 330.878302 250.06266 
L 331.894881 250.44659 
L 333.928038 251.991826 
L 334.944617 252.350762 
L 335.961195 253.350503 
L 336.977774 253.918789 
L 337.994352 254.321557 
L 339.010931 255.086867 
L 340.02751 255.504694 
L 341.044088 256.25225 
L 342.060667 256.783548 
L 343.077245 257.46815 
L 345.110403 258.481928 
L 347.14356 259.98002 
L 352.226453 262.630332 
L 353.243032 263.117798 
L 354.25961 263.858693 
L 355.276189 264.363347 
L 356.292767 265.279499 
L 357.309346 265.54007 
L 358.325925 266.501741 
L 362.392239 268.558034 
L 364.425396 269.973767 
L 365.441975 270.055166 
L 366.458553 271.130863 
L 368.491711 271.910949 
L 370.524868 273.261217 
L 371.541447 273.757154 
L 372.558025 274.094246 
L 373.574604 274.794941 
L 374.591182 275.31703 
L 375.607761 275.979198 
L 378.657497 277.504784 
L 379.674075 278.429407 
L 380.690654 278.550082 
L 381.707233 279.294018 
L 382.723811 279.551954 
L 383.74039 280.110278 
L 384.756968 280.832471 
L 385.773547 281.150356 
L 386.790126 282.069266 
L 387.806704 282.288515 
L 388.823283 282.853772 
L 389.839862 283.650516 
L 390.85644 283.999577 
L 391.873019 284.720686 
L 392.889597 284.988508 
L 397.97249 287.658077 
L 398.989069 288.37681 
L 400.005648 288.648818 
L 401.022226 289.360816 
L 403.055383 290.332953 
L 404.071962 290.683318 
L 405.088541 291.242542 
L 406.105119 291.672951 
L 407.121698 292.291743 
L 409.154855 293.162991 
L 412.204591 294.834136 
L 413.22117 295.093832 
L 414.237748 295.762181 
L 415.254327 296.248822 
L 416.270905 296.906251 
L 418.304063 297.679626 
L 420.33722 298.82026 
L 421.353799 299.077469 
L 425.420113 301.017852 
L 426.436692 301.807948 
L 428.469849 302.447375 
L 430.503006 303.690942 
L 432.536163 304.199487 
L 433.552742 304.993831 
L 434.56932 305.311113 
L 436.602478 306.299293 
L 437.619056 306.621673 
L 439.652214 307.763772 
L 441.685371 308.548697 
L 442.701949 309.127768 
L 443.718528 309.436123 
L 446.768264 311.015367 
L 448.801421 311.547651 
L 449.818 312.04914 
L 450.834578 312.321149 
L 451.851157 313.207628 
L 453.884314 313.826592 
L 454.900893 314.379413 
L 455.917471 314.666646 
L 456.93405 315.481872 
L 457.950629 315.675265 
L 459.983786 316.429106 
L 461.000364 317.037734 
L 464.0501 318.293133 
L 465.066679 318.472798 
L 467.099836 319.541188 
L 470.149572 320.7116 
L 471.16615 321.050995 
L 474.215886 322.413298 
L 475.232465 322.634481 
L 476.249044 323.087244 
L 477.265622 323.672496 
L 480.315358 324.707125 
L 481.331937 325.537138 
L 482.348515 325.600499 
L 485.398251 326.697226 
L 486.41483 327.298823 
L 487.431408 327.642897 
L 489.464565 328.581766 
L 490.481144 328.721156 
L 492.514301 329.423365 
L 493.53088 330.002018 
L 494.547459 330.213929 
L 495.564037 330.820986 
L 496.580616 331.042046 
L 497.597194 331.626393 
L 498.613773 331.685875 
L 499.630352 332.360319 
L 502.680087 333.456967 
L 503.696666 333.701808 
L 507.762981 335.349608 
L 508.779559 335.472487 
L 509.796138 336.077525 
L 510.812716 336.326725 
L 511.829295 336.803085 
L 513.862452 337.251914 
L 514.879031 337.52601 
L 515.895609 338.171126 
L 517.928767 338.827594 
L 519.961924 339.475732 
L 521.995081 340.410562 
L 524.028238 340.924112 
L 525.044817 341.313558 
L 526.061396 341.554736 
L 528.094553 342.63116 
L 529.111131 342.755443 
L 530.12771 343.002605 
L 531.144289 343.068582 
L 532.160867 343.821352 
L 536.227182 345.095073 
L 538.260339 345.679955 
L 539.276917 345.907503 
L 540.293496 346.517276 
L 541.310075 346.541366 
L 542.326653 347.223745 
L 543.343232 347.427875 
L 544.359811 347.48048 
L 545.376389 347.943167 
L 550.459282 349.56532 
L 554.525597 350.993963 
L 555.542175 351.075454 
L 556.558754 351.523993 
L 557.575332 351.632436 
L 559.60849 352.631488 
L 560.625068 353.00169 
L 561.641647 352.792709 
L 562.658226 353.446505 
L 565.707961 354.336289 
L 566.72454 354.523348 
L 567.741119 355.146233 
L 568.757697 355.057509 
L 569.774276 355.614571 
L 570.790854 355.789502 
L 572.824012 356.331229 
L 573.84059 356.802609 
L 574.857169 357.041226 
L 575.873747 357.075258 
L 577.906905 358.089922 
L 578.923483 358.156311 
L 579.940062 358.334178 
L 580.956641 358.775848 
L 582.989798 359.214981 
L 584.006376 359.666457 
L 586.039534 360.070303 
L 587.056112 360.290248 
L 588.072691 360.711571 
L 589.089269 360.805337 
L 592.139005 361.824009 
L 593.155584 361.792643 
L 594.172163 362.262816 
L 595.188741 362.868839 
L 597.221898 362.997007 
L 598.238477 363.185487 
L 599.255056 363.726968 
L 601.288213 364.048867 
L 607.387684 365.723232 
L 609.420842 366.419758 
L 610.43742 366.309309 
L 611.453999 366.683105 
L 612.470578 366.849451 
L 613.487156 367.425108 
L 614.503735 367.3649 
L 619.586628 368.660703 
L 621.619785 369.164545 
L 622.636364 369.36 
L 622.636364 369.36 
" clip-path="url(#p0e20cc47a3)" style="fill: none; stroke: #1f77b4; stroke-width: 1.5; stroke-linecap: round"/>
   </g>
   <g id="line2d_13">
    <path d="M 115.363636 68.667331 
L 120.446529 74.609316 
L 128.579158 83.660488 
L 137.728366 93.533499 
L 147.894152 104.179786 
L 157.043359 113.47487 
L 168.225724 124.49504 
L 179.408089 135.160781 
L 191.607032 146.40403 
L 201.772818 155.433286 
L 210.922026 163.350548 
L 226.170705 176.037491 
L 233.286755 181.648293 
L 250.568592 194.908386 
L 260.734378 202.23691 
L 265.817271 205.730299 
L 268.867007 207.769946 
L 270.900164 209.185913 
L 273.9499 211.201969 
L 274.966478 211.793722 
L 291.231736 223.321908 
L 293.264893 224.564034 
L 302.414101 230.731843 
L 305.463837 232.63205 
L 307.496994 233.795881 
L 319.695937 241.688197 
L 321.729095 243.039031 
L 326.811988 246.119888 
L 333.928038 250.640993 
L 337.994352 252.937738 
L 343.077245 256.002317 
L 348.160138 259.016613 
L 355.276189 263.662554 
L 360.359082 266.493614 
L 364.425396 268.70134 
L 371.541447 272.564979 
L 373.574604 273.654061 
L 376.62434 275.339032 
L 402.038805 288.462394 
L 405.088541 290.090396 
L 427.45327 300.928328 
L 432.536163 303.405562 
L 436.602478 305.260496 
L 441.685371 307.605728 
L 445.751685 309.371655 
L 453.884314 312.828574 
L 455.917471 313.634467 
L 461.000364 315.799788 
L 463.033522 316.605914 
L 476.249044 322.153374 
L 482.348515 324.43535 
L 486.41483 325.875598 
L 489.464565 327.078601 
L 498.613773 330.372422 
L 504.713245 332.631171 
L 510.812716 334.877065 
L 512.845874 335.494163 
L 515.895609 336.501853 
L 518.945345 337.507991 
L 524.028238 339.288101 
L 527.077974 340.193356 
L 535.210603 343.008139 
L 537.24376 343.754169 
L 543.343232 345.576641 
L 549.442704 347.452167 
L 554.525597 349.201134 
L 556.558754 349.768163 
L 560.625068 350.992147 
L 566.72454 352.548169 
L 573.84059 354.648166 
L 585.022955 357.354592 
L 589.089269 358.421788 
L 616.536892 365.880241 
L 622.636364 366.982614 
L 622.636364 366.982614 
" clip-path="url(#p0e20cc47a3)" style="fill: none; stroke-dasharray: 6,2.25; stroke-dashoffset: 0; stroke: #ff7f0e; stroke-width: 1.5"/>
   </g>
   <g id="line2d_14"/>
   <g id="line2d_15"/>
   <g id="patch_3">
    <path d="M 90 384.48 
L 90 51.84 
" style="fill: none; stroke: #cccccc; stroke-width: 0.8; stroke-linejoin: miter; stroke-linecap: square"/>
   </g>
   <g id="patch_4">
    <path d="M 648 384.48 
L 648 51.84 
" style="fill: none; stroke: #cccccc; stroke-width: 0.8; stroke-linejoin: miter; stroke-linecap: square"/>
   </g>
   <g id="patch_5">
    <path d="M 90 384.48 
L 648 384.48 
" style="fill: none; stroke: #cccccc; stroke-width: 0.8; stroke-linejoin: miter; stroke-linecap: square"/>
   </g>
   <g id="patch_6">
    <path d="M 90 51.84 
L 648 51.84 
" style="fill: none; stroke: #cccccc; stroke-width: 0.8; stroke-linejoin: miter; stroke-linecap: square"/>
   </g>
   <g id="legend_1">
    <g id="patch_7">
     <path d="M 559.61875 89.19625 
L 641 89.19625 
Q 643 89.19625 643 87.19625 
L 643 58.84 
Q 643 56.84 641 56.84 
L 559.61875 56.84 
Q 557.61875 56.84 557.61875 58.84 
L 557.61875 87.19625 
Q 557.61875 89.19625 559.61875 89.19625 
z
" style="fill: #ffffff; opacity: 0.8; stroke: #cccccc; stroke-linejoin: miter"/>
    </g>
    <g id="line2d_16">
     <path d="M 561.61875 64.938437 
L 571.61875 64.938437 
L 581.61875 64.938437 
" style="fill: none; stroke: #1f77b4; stroke-width: 1.5; stroke-linecap: round"/>
    </g>
    <g id="text_14">
     <!-- Training -->
     <g style="fill: #262626" transform="translate(589.61875 68.438437)scale(0.1 -0.1)">
      <defs>
       <path id="DejaVuSans-54" d="M -19 4666 
L 3928 4666 
L 3928 4134 
L 2272 4134 
L 2272 0 
L 1638 0 
L 1638 4134 
L -19 4134 
L -19 4666 
z
" transform="scale(0.015625)"/>
       <path id="DejaVuSans-72" d="M 2631 2963 
Q 2534 3019 2420 3045 
Q 2306 3072 2169 3072 
Q 1681 3072 1420 2755 
Q 1159 2438 1159 1844 
L 1159 0 
L 581 0 
L 581 3500 
L 1159 3500 
L 1159 2956 
Q 1341 3275 1631 3429 
Q 1922 3584 2338 3584 
Q 2397 3584 2469 3576 
Q 2541 3569 2628 3553 
L 2631 2963 
z
" transform="scale(0.015625)"/>
       <path id="DejaVuSans-61" d="M 2194 1759 
Q 1497 1759 1228 1600 
Q 959 1441 959 1056 
Q 959 750 1161 570 
Q 1363 391 1709 391 
Q 2188 391 2477 730 
Q 2766 1069 2766 1631 
L 2766 1759 
L 2194 1759 
z
M 3341 1997 
L 3341 0 
L 2766 0 
L 2766 531 
Q 2569 213 2275 61 
Q 1981 -91 1556 -91 
Q 1019 -91 701 211 
Q 384 513 384 1019 
Q 384 1609 779 1909 
Q 1175 2209 1959 2209 
L 2766 2209 
L 2766 2266 
Q 2766 2663 2505 2880 
Q 2244 3097 1772 3097 
Q 1472 3097 1187 3025 
Q 903 2953 641 2809 
L 641 3341 
Q 956 3463 1253 3523 
Q 1550 3584 1831 3584 
Q 2591 3584 2966 3190 
Q 3341 2797 3341 1997 
z
" transform="scale(0.015625)"/>
       <path id="DejaVuSans-69" d="M 603 3500 
L 1178 3500 
L 1178 0 
L 603 0 
L 603 3500 
z
M 603 4863 
L 1178 4863 
L 1178 4134 
L 603 4134 
L 603 4863 
z
" transform="scale(0.015625)"/>
       <path id="DejaVuSans-6e" d="M 3513 2113 
L 3513 0 
L 2938 0 
L 2938 2094 
Q 2938 2591 2744 2837 
Q 2550 3084 2163 3084 
Q 1697 3084 1428 2787 
Q 1159 2491 1159 1978 
L 1159 0 
L 581 0 
L 581 3500 
L 1159 3500 
L 1159 2956 
Q 1366 3272 1645 3428 
Q 1925 3584 2291 3584 
Q 2894 3584 3203 3211 
Q 3513 2838 3513 2113 
z
" transform="scale(0.015625)"/>
       <path id="DejaVuSans-67" d="M 2906 1791 
Q 2906 2416 2648 2759 
Q 2391 3103 1925 3103 
Q 1463 3103 1205 2759 
Q 947 2416 947 1791 
Q 947 1169 1205 825 
Q 1463 481 1925 481 
Q 2391 481 2648 825 
Q 2906 1169 2906 1791 
z
M 3481 434 
Q 3481 -459 3084 -895 
Q 2688 -1331 1869 -1331 
Q 1566 -1331 1297 -1286 
Q 1028 -1241 775 -1147 
L 775 -588 
Q 1028 -725 1275 -790 
Q 1522 -856 1778 -856 
Q 2344 -856 2625 -561 
Q 2906 -266 2906 331 
L 2906 616 
Q 2728 306 2450 153 
Q 2172 0 1784 0 
Q 1141 0 747 490 
Q 353 981 353 1791 
Q 353 2603 747 3093 
Q 1141 3584 1784 3584 
Q 2172 3584 2450 3431 
Q 2728 3278 2906 2969 
L 2906 3500 
L 3481 3500 
L 3481 434 
z
" transform="scale(0.015625)"/>
      </defs>
      <use xlink:href="#DejaVuSans-54"/>
      <use xlink:href="#DejaVuSans-72" x="46.333984"/>
      <use xlink:href="#DejaVuSans-61" x="87.447266"/>
      <use xlink:href="#DejaVuSans-69" x="148.726562"/>
      <use xlink:href="#DejaVuSans-6e" x="176.509766"/>
      <use xlink:href="#DejaVuSans-69" x="239.888672"/>
      <use xlink:href="#DejaVuSans-6e" x="267.671875"/>
      <use xlink:href="#DejaVuSans-67" x="331.050781"/>
     </g>
    </g>
    <g id="line2d_17">
     <path d="M 561.61875 79.616562 
L 571.61875 79.616562 
L 581.61875 79.616562 
" style="fill: none; stroke-dasharray: 6,2.25; stroke-dashoffset: 0; stroke: #ff7f0e; stroke-width: 1.5"/>
    </g>
    <g id="text_15">
     <!-- Validation -->
     <g style="fill: #262626" transform="translate(589.61875 83.116562)scale(0.1 -0.1)">
      <defs>
       <path id="DejaVuSans-56" d="M 1831 0 
L 50 4666 
L 709 4666 
L 2188 738 
L 3669 4666 
L 4325 4666 
L 2547 0 
L 1831 0 
z
" transform="scale(0.015625)"/>
       <path id="DejaVuSans-6c" d="M 603 4863 
L 1178 4863 
L 1178 0 
L 603 0 
L 603 4863 
z
" transform="scale(0.015625)"/>
       <path id="DejaVuSans-64" d="M 2906 2969 
L 2906 4863 
L 3481 4863 
L 3481 0 
L 2906 0 
L 2906 525 
Q 2725 213 2448 61 
Q 2172 -91 1784 -91 
Q 1150 -91 751 415 
Q 353 922 353 1747 
Q 353 2572 751 3078 
Q 1150 3584 1784 3584 
Q 2172 3584 2448 3432 
Q 2725 3281 2906 2969 
z
M 947 1747 
Q 947 1113 1208 752 
Q 1469 391 1925 391 
Q 2381 391 2643 752 
Q 2906 1113 2906 1747 
Q 2906 2381 2643 2742 
Q 2381 3103 1925 3103 
Q 1469 3103 1208 2742 
Q 947 2381 947 1747 
z
" transform="scale(0.015625)"/>
       <path id="DejaVuSans-74" d="M 1172 4494 
L 1172 3500 
L 2356 3500 
L 2356 3053 
L 1172 3053 
L 1172 1153 
Q 1172 725 1289 603 
Q 1406 481 1766 481 
L 2356 481 
L 2356 0 
L 1766 0 
Q 1100 0 847 248 
Q 594 497 594 1153 
L 594 3053 
L 172 3053 
L 172 3500 
L 594 3500 
L 594 4494 
L 1172 4494 
z
" transform="scale(0.015625)"/>
      </defs>
      <use xlink:href="#DejaVuSans-56"/>
      <use xlink:href="#DejaVuSans-61" x="60.658203"/>
      <use xlink:href="#DejaVuSans-6c" x="121.9375"/>
      <use xlink:href="#DejaVuSans-69" x="149.720703"/>
      <use xlink:href="#DejaVuSans-64" x="177.503906"/>
      <use xlink:href="#DejaVuSans-61" x="240.980469"/>
      <use xlink:href="#DejaVuSans-74" x="302.259766"/>
      <use xlink:href="#DejaVuSans-69" x="341.46875"/>
      <use xlink:href="#DejaVuSans-6f" x="369.251953"/>
      <use xlink:href="#DejaVuSans-6e" x="430.433594"/>
     </g>
    </g>
   </g>
  </g>
 </g>
 <defs>
  <clipPath id="p0e20cc47a3">
   <rect x="90" y="51.84" width="558" height="332.64"/>
  </clipPath>
 </defs>
</svg>
