<?xml version="1.0" encoding="utf-8" standalone="no"?>
<!DOCTYPE svg PUBLIC "-//W3C//DTD SVG 1.1//EN"
  "http://www.w3.org/Graphics/SVG/1.1/DTD/svg11.dtd">
<svg xmlns:xlink="http://www.w3.org/1999/xlink" width="720pt" height="432pt" viewBox="0 0 720 432" xmlns="http://www.w3.org/2000/svg" version="1.1">
 <metadata>
  <rdf:RDF xmlns:dc="http://purl.org/dc/elements/1.1/" xmlns:cc="http://creativecommons.org/ns#" xmlns:rdf="http://www.w3.org/1999/02/22-rdf-syntax-ns#">
   <cc:Work>
    <dc:type rdf:resource="http://purl.org/dc/dcmitype/StillImage"/>
    <dc:date>2022-06-26T17:56:05.310490</dc:date>
    <dc:format>image/svg+xml</dc:format>
    <dc:creator>
     <cc:Agent>
      <dc:title>Matplotlib v3.5.2, https://matplotlib.org/</dc:title>
     </cc:Agent>
    </dc:creator>
   </cc:Work>
  </rdf:RDF>
 </metadata>
 <defs>
  <style type="text/css">*{stroke-linejoin: round; stroke-linecap: butt}</style>
 </defs>
 <g id="figure_1">
  <g id="patch_1">
   <path d="M 0 432 
L 720 432 
L 720 0 
L 0 0 
z
" style="fill: #ffffff"/>
  </g>
  <g id="axes_1">
   <g id="patch_2">
    <path d="M 90 384.48 
L 648 384.48 
L 648 51.84 
L 90 51.84 
z
" style="fill: #ffffff"/>
   </g>
   <g id="matplotlib.axis_1">
    <g id="xtick_1">
     <g id="line2d_1">
      <path d="M 115.363636 384.48 
L 115.363636 51.84 
" clip-path="url(#pfe782cda71)" style="fill: none; stroke: #cccccc; stroke-width: 0.8; stroke-linecap: round"/>
     </g>
     <g id="text_1">
      <!-- 0 -->
      <g style="fill: #262626" transform="translate(112.182386 399.078438)scale(0.1 -0.1)">
       <defs>
        <path id="DejaVuSans-30" d="M 2034 4250 
Q 1547 4250 1301 3770 
Q 1056 3291 1056 2328 
Q 1056 1369 1301 889 
Q 1547 409 2034 409 
Q 2525 409 2770 889 
Q 3016 1369 3016 2328 
Q 3016 3291 2770 3770 
Q 2525 4250 2034 4250 
z
M 2034 4750 
Q 2819 4750 3233 4129 
Q 3647 3509 3647 2328 
Q 3647 1150 3233 529 
Q 2819 -91 2034 -91 
Q 1250 -91 836 529 
Q 422 1150 422 2328 
Q 422 3509 836 4129 
Q 1250 4750 2034 4750 
z
" transform="scale(0.015625)"/>
       </defs>
       <use xlink:href="#DejaVuSans-30"/>
      </g>
     </g>
    </g>
    <g id="xtick_2">
     <g id="line2d_2">
      <path d="M 217.021498 384.48 
L 217.021498 51.84 
" clip-path="url(#pfe782cda71)" style="fill: none; stroke: #cccccc; stroke-width: 0.8; stroke-linecap: round"/>
     </g>
     <g id="text_2">
      <!-- 100 -->
      <g style="fill: #262626" transform="translate(207.477748 399.078438)scale(0.1 -0.1)">
       <defs>
        <path id="DejaVuSans-31" d="M 794 531 
L 1825 531 
L 1825 4091 
L 703 3866 
L 703 4441 
L 1819 4666 
L 2450 4666 
L 2450 531 
L 3481 531 
L 3481 0 
L 794 0 
L 794 531 
z
" transform="scale(0.015625)"/>
       </defs>
       <use xlink:href="#DejaVuSans-31"/>
       <use xlink:href="#DejaVuSans-30" x="63.623047"/>
       <use xlink:href="#DejaVuSans-30" x="127.246094"/>
      </g>
     </g>
    </g>
    <g id="xtick_3">
     <g id="line2d_3">
      <path d="M 318.679359 384.48 
L 318.679359 51.84 
" clip-path="url(#pfe782cda71)" style="fill: none; stroke: #cccccc; stroke-width: 0.8; stroke-linecap: round"/>
     </g>
     <g id="text_3">
      <!-- 200 -->
      <g style="fill: #262626" transform="translate(309.135609 399.078438)scale(0.1 -0.1)">
       <defs>
        <path id="DejaVuSans-32" d="M 1228 531 
L 3431 531 
L 3431 0 
L 469 0 
L 469 531 
Q 828 903 1448 1529 
Q 2069 2156 2228 2338 
Q 2531 2678 2651 2914 
Q 2772 3150 2772 3378 
Q 2772 3750 2511 3984 
Q 2250 4219 1831 4219 
Q 1534 4219 1204 4116 
Q 875 4013 500 3803 
L 500 4441 
Q 881 4594 1212 4672 
Q 1544 4750 1819 4750 
Q 2544 4750 2975 4387 
Q 3406 4025 3406 3419 
Q 3406 3131 3298 2873 
Q 3191 2616 2906 2266 
Q 2828 2175 2409 1742 
Q 1991 1309 1228 531 
z
" transform="scale(0.015625)"/>
       </defs>
       <use xlink:href="#DejaVuSans-32"/>
       <use xlink:href="#DejaVuSans-30" x="63.623047"/>
       <use xlink:href="#DejaVuSans-30" x="127.246094"/>
      </g>
     </g>
    </g>
    <g id="xtick_4">
     <g id="line2d_4">
      <path d="M 420.33722 384.48 
L 420.33722 51.84 
" clip-path="url(#pfe782cda71)" style="fill: none; stroke: #cccccc; stroke-width: 0.8; stroke-linecap: round"/>
     </g>
     <g id="text_4">
      <!-- 300 -->
      <g style="fill: #262626" transform="translate(410.79347 399.078438)scale(0.1 -0.1)">
       <defs>
        <path id="DejaVuSans-33" d="M 2597 2516 
Q 3050 2419 3304 2112 
Q 3559 1806 3559 1356 
Q 3559 666 3084 287 
Q 2609 -91 1734 -91 
Q 1441 -91 1130 -33 
Q 819 25 488 141 
L 488 750 
Q 750 597 1062 519 
Q 1375 441 1716 441 
Q 2309 441 2620 675 
Q 2931 909 2931 1356 
Q 2931 1769 2642 2001 
Q 2353 2234 1838 2234 
L 1294 2234 
L 1294 2753 
L 1863 2753 
Q 2328 2753 2575 2939 
Q 2822 3125 2822 3475 
Q 2822 3834 2567 4026 
Q 2313 4219 1838 4219 
Q 1578 4219 1281 4162 
Q 984 4106 628 3988 
L 628 4550 
Q 988 4650 1302 4700 
Q 1616 4750 1894 4750 
Q 2613 4750 3031 4423 
Q 3450 4097 3450 3541 
Q 3450 3153 3228 2886 
Q 3006 2619 2597 2516 
z
" transform="scale(0.015625)"/>
       </defs>
       <use xlink:href="#DejaVuSans-33"/>
       <use xlink:href="#DejaVuSans-30" x="63.623047"/>
       <use xlink:href="#DejaVuSans-30" x="127.246094"/>
      </g>
     </g>
    </g>
    <g id="xtick_5">
     <g id="line2d_5">
      <path d="M 521.995081 384.48 
L 521.995081 51.84 
" clip-path="url(#pfe782cda71)" style="fill: none; stroke: #cccccc; stroke-width: 0.8; stroke-linecap: round"/>
     </g>
     <g id="text_5">
      <!-- 400 -->
      <g style="fill: #262626" transform="translate(512.451331 399.078438)scale(0.1 -0.1)">
       <defs>
        <path id="DejaVuSans-34" d="M 2419 4116 
L 825 1625 
L 2419 1625 
L 2419 4116 
z
M 2253 4666 
L 3047 4666 
L 3047 1625 
L 3713 1625 
L 3713 1100 
L 3047 1100 
L 3047 0 
L 2419 0 
L 2419 1100 
L 313 1100 
L 313 1709 
L 2253 4666 
z
" transform="scale(0.015625)"/>
       </defs>
       <use xlink:href="#DejaVuSans-34"/>
       <use xlink:href="#DejaVuSans-30" x="63.623047"/>
       <use xlink:href="#DejaVuSans-30" x="127.246094"/>
      </g>
     </g>
    </g>
    <g id="xtick_6">
     <g id="line2d_6">
      <path d="M 623.652942 384.48 
L 623.652942 51.84 
" clip-path="url(#pfe782cda71)" style="fill: none; stroke: #cccccc; stroke-width: 0.8; stroke-linecap: round"/>
     </g>
     <g id="text_6">
      <!-- 500 -->
      <g style="fill: #262626" transform="translate(614.109192 399.078438)scale(0.1 -0.1)">
       <defs>
        <path id="DejaVuSans-35" d="M 691 4666 
L 3169 4666 
L 3169 4134 
L 1269 4134 
L 1269 2991 
Q 1406 3038 1543 3061 
Q 1681 3084 1819 3084 
Q 2600 3084 3056 2656 
Q 3513 2228 3513 1497 
Q 3513 744 3044 326 
Q 2575 -91 1722 -91 
Q 1428 -91 1123 -41 
Q 819 9 494 109 
L 494 744 
Q 775 591 1075 516 
Q 1375 441 1709 441 
Q 2250 441 2565 725 
Q 2881 1009 2881 1497 
Q 2881 1984 2565 2268 
Q 2250 2553 1709 2553 
Q 1456 2553 1204 2497 
Q 953 2441 691 2322 
L 691 4666 
z
" transform="scale(0.015625)"/>
       </defs>
       <use xlink:href="#DejaVuSans-35"/>
       <use xlink:href="#DejaVuSans-30" x="63.623047"/>
       <use xlink:href="#DejaVuSans-30" x="127.246094"/>
      </g>
     </g>
    </g>
    <g id="text_7">
     <!-- Epochs -->
     <g style="fill: #262626" transform="translate(351.084375 412.756563)scale(0.1 -0.1)">
      <defs>
       <path id="DejaVuSans-45" d="M 628 4666 
L 3578 4666 
L 3578 4134 
L 1259 4134 
L 1259 2753 
L 3481 2753 
L 3481 2222 
L 1259 2222 
L 1259 531 
L 3634 531 
L 3634 0 
L 628 0 
L 628 4666 
z
" transform="scale(0.015625)"/>
       <path id="DejaVuSans-70" d="M 1159 525 
L 1159 -1331 
L 581 -1331 
L 581 3500 
L 1159 3500 
L 1159 2969 
Q 1341 3281 1617 3432 
Q 1894 3584 2278 3584 
Q 2916 3584 3314 3078 
Q 3713 2572 3713 1747 
Q 3713 922 3314 415 
Q 2916 -91 2278 -91 
Q 1894 -91 1617 61 
Q 1341 213 1159 525 
z
M 3116 1747 
Q 3116 2381 2855 2742 
Q 2594 3103 2138 3103 
Q 1681 3103 1420 2742 
Q 1159 2381 1159 1747 
Q 1159 1113 1420 752 
Q 1681 391 2138 391 
Q 2594 391 2855 752 
Q 3116 1113 3116 1747 
z
" transform="scale(0.015625)"/>
       <path id="DejaVuSans-6f" d="M 1959 3097 
Q 1497 3097 1228 2736 
Q 959 2375 959 1747 
Q 959 1119 1226 758 
Q 1494 397 1959 397 
Q 2419 397 2687 759 
Q 2956 1122 2956 1747 
Q 2956 2369 2687 2733 
Q 2419 3097 1959 3097 
z
M 1959 3584 
Q 2709 3584 3137 3096 
Q 3566 2609 3566 1747 
Q 3566 888 3137 398 
Q 2709 -91 1959 -91 
Q 1206 -91 779 398 
Q 353 888 353 1747 
Q 353 2609 779 3096 
Q 1206 3584 1959 3584 
z
" transform="scale(0.015625)"/>
       <path id="DejaVuSans-63" d="M 3122 3366 
L 3122 2828 
Q 2878 2963 2633 3030 
Q 2388 3097 2138 3097 
Q 1578 3097 1268 2742 
Q 959 2388 959 1747 
Q 959 1106 1268 751 
Q 1578 397 2138 397 
Q 2388 397 2633 464 
Q 2878 531 3122 666 
L 3122 134 
Q 2881 22 2623 -34 
Q 2366 -91 2075 -91 
Q 1284 -91 818 406 
Q 353 903 353 1747 
Q 353 2603 823 3093 
Q 1294 3584 2113 3584 
Q 2378 3584 2631 3529 
Q 2884 3475 3122 3366 
z
" transform="scale(0.015625)"/>
       <path id="DejaVuSans-68" d="M 3513 2113 
L 3513 0 
L 2938 0 
L 2938 2094 
Q 2938 2591 2744 2837 
Q 2550 3084 2163 3084 
Q 1697 3084 1428 2787 
Q 1159 2491 1159 1978 
L 1159 0 
L 581 0 
L 581 4863 
L 1159 4863 
L 1159 2956 
Q 1366 3272 1645 3428 
Q 1925 3584 2291 3584 
Q 2894 3584 3203 3211 
Q 3513 2838 3513 2113 
z
" transform="scale(0.015625)"/>
       <path id="DejaVuSans-73" d="M 2834 3397 
L 2834 2853 
Q 2591 2978 2328 3040 
Q 2066 3103 1784 3103 
Q 1356 3103 1142 2972 
Q 928 2841 928 2578 
Q 928 2378 1081 2264 
Q 1234 2150 1697 2047 
L 1894 2003 
Q 2506 1872 2764 1633 
Q 3022 1394 3022 966 
Q 3022 478 2636 193 
Q 2250 -91 1575 -91 
Q 1294 -91 989 -36 
Q 684 19 347 128 
L 347 722 
Q 666 556 975 473 
Q 1284 391 1588 391 
Q 1994 391 2212 530 
Q 2431 669 2431 922 
Q 2431 1156 2273 1281 
Q 2116 1406 1581 1522 
L 1381 1569 
Q 847 1681 609 1914 
Q 372 2147 372 2553 
Q 372 3047 722 3315 
Q 1072 3584 1716 3584 
Q 2034 3584 2315 3537 
Q 2597 3491 2834 3397 
z
" transform="scale(0.015625)"/>
      </defs>
      <use xlink:href="#DejaVuSans-45"/>
      <use xlink:href="#DejaVuSans-70" x="63.183594"/>
      <use xlink:href="#DejaVuSans-6f" x="126.660156"/>
      <use xlink:href="#DejaVuSans-63" x="187.841797"/>
      <use xlink:href="#DejaVuSans-68" x="242.822266"/>
      <use xlink:href="#DejaVuSans-73" x="306.201172"/>
     </g>
    </g>
   </g>
   <g id="matplotlib.axis_2">
    <g id="ytick_1">
     <g id="line2d_7">
      <path d="M 90 352.378482 
L 648 352.378482 
" clip-path="url(#pfe782cda71)" style="fill: none; stroke: #cccccc; stroke-width: 0.8; stroke-linecap: round"/>
     </g>
     <g id="text_8">
      <!-- 10 -->
      <g style="fill: #262626" transform="translate(70.275 356.177701)scale(0.1 -0.1)">
       <use xlink:href="#DejaVuSans-31"/>
       <use xlink:href="#DejaVuSans-30" x="63.623047"/>
      </g>
     </g>
    </g>
    <g id="ytick_2">
     <g id="line2d_8">
      <path d="M 90 287.376904 
L 648 287.376904 
" clip-path="url(#pfe782cda71)" style="fill: none; stroke: #cccccc; stroke-width: 0.8; stroke-linecap: round"/>
     </g>
     <g id="text_9">
      <!-- 20 -->
      <g style="fill: #262626" transform="translate(70.275 291.176123)scale(0.1 -0.1)">
       <use xlink:href="#DejaVuSans-32"/>
       <use xlink:href="#DejaVuSans-30" x="63.623047"/>
      </g>
     </g>
    </g>
    <g id="ytick_3">
     <g id="line2d_9">
      <path d="M 90 222.375326 
L 648 222.375326 
" clip-path="url(#pfe782cda71)" style="fill: none; stroke: #cccccc; stroke-width: 0.8; stroke-linecap: round"/>
     </g>
     <g id="text_10">
      <!-- 30 -->
      <g style="fill: #262626" transform="translate(70.275 226.174545)scale(0.1 -0.1)">
       <use xlink:href="#DejaVuSans-33"/>
       <use xlink:href="#DejaVuSans-30" x="63.623047"/>
      </g>
     </g>
    </g>
    <g id="ytick_4">
     <g id="line2d_10">
      <path d="M 90 157.373748 
L 648 157.373748 
" clip-path="url(#pfe782cda71)" style="fill: none; stroke: #cccccc; stroke-width: 0.8; stroke-linecap: round"/>
     </g>
     <g id="text_11">
      <!-- 40 -->
      <g style="fill: #262626" transform="translate(70.275 161.172966)scale(0.1 -0.1)">
       <use xlink:href="#DejaVuSans-34"/>
       <use xlink:href="#DejaVuSans-30" x="63.623047"/>
      </g>
     </g>
    </g>
    <g id="ytick_5">
     <g id="line2d_11">
      <path d="M 90 92.372169 
L 648 92.372169 
" clip-path="url(#pfe782cda71)" style="fill: none; stroke: #cccccc; stroke-width: 0.8; stroke-linecap: round"/>
     </g>
     <g id="text_12">
      <!-- 50 -->
      <g style="fill: #262626" transform="translate(70.275 96.171388)scale(0.1 -0.1)">
       <use xlink:href="#DejaVuSans-35"/>
       <use xlink:href="#DejaVuSans-30" x="63.623047"/>
      </g>
     </g>
    </g>
    <g id="text_13">
     <!-- Loss -->
     <g style="fill: #262626" transform="translate(64.195312 229.127187)rotate(-90)scale(0.1 -0.1)">
      <defs>
       <path id="DejaVuSans-4c" d="M 628 4666 
L 1259 4666 
L 1259 531 
L 3531 531 
L 3531 0 
L 628 0 
L 628 4666 
z
" transform="scale(0.015625)"/>
      </defs>
      <use xlink:href="#DejaVuSans-4c"/>
      <use xlink:href="#DejaVuSans-6f" x="53.962891"/>
      <use xlink:href="#DejaVuSans-73" x="115.144531"/>
      <use xlink:href="#DejaVuSans-73" x="167.244141"/>
     </g>
    </g>
   </g>
   <g id="line2d_12">
    <path d="M 115.363636 66.96 
L 116.380215 68.638723 
L 117.396794 69.727199 
L 119.429951 72.327917 
L 121.463108 74.630411 
L 122.479687 75.891344 
L 123.496265 76.802354 
L 125.529422 79.517605 
L 126.546001 80.514311 
L 127.56258 81.814174 
L 128.579158 82.546652 
L 129.595737 84.006177 
L 130.612316 85.256224 
L 131.628894 86.089375 
L 132.645473 87.264612 
L 133.662051 88.925482 
L 134.67863 89.534376 
L 135.695209 90.635101 
L 136.711787 91.95309 
L 138.744944 93.856813 
L 139.761523 94.846303 
L 140.778102 96.009093 
L 141.79468 96.771202 
L 142.811259 98.150487 
L 143.827837 99.025245 
L 144.844416 100.363319 
L 145.860995 101.329798 
L 150.943888 106.900423 
L 151.960466 107.945258 
L 152.977045 108.789169 
L 155.010202 110.786275 
L 156.026781 112.039694 
L 157.043359 112.822161 
L 158.059938 113.992762 
L 159.076517 114.737043 
L 161.109674 117.433498 
L 164.15941 119.866842 
L 166.192567 122.080244 
L 167.209146 123.308868 
L 168.225724 124.307235 
L 169.242303 125.054913 
L 172.292039 128.058915 
L 173.308617 129.218754 
L 174.325196 129.980268 
L 175.341774 131.159894 
L 176.358353 132.110925 
L 177.374932 133.215271 
L 178.39151 134.089979 
L 179.408089 134.664803 
L 180.424668 136.041336 
L 181.441246 137.11729 
L 182.457825 137.634363 
L 183.474403 138.91005 
L 184.490982 139.372696 
L 186.524139 141.820769 
L 187.540718 142.76932 
L 188.557296 143.338813 
L 189.573875 144.197032 
L 190.590454 145.439914 
L 192.623611 147.003434 
L 195.673347 150.019165 
L 196.689925 150.831337 
L 197.706504 151.965289 
L 198.723083 152.646389 
L 203.805976 157.106743 
L 204.822554 158.313372 
L 205.839133 158.946566 
L 207.87229 160.576441 
L 208.888869 161.947915 
L 210.922026 163.661948 
L 211.938604 163.890891 
L 212.955183 165.131466 
L 213.971762 165.887426 
L 214.98834 167.179875 
L 217.021498 168.491764 
L 218.038076 169.335899 
L 219.054655 170.633307 
L 220.071233 171.052857 
L 221.087812 172.244336 
L 222.104391 172.926305 
L 223.120969 173.90357 
L 224.137548 174.453424 
L 225.154126 175.217219 
L 226.170705 176.333417 
L 227.187284 176.925698 
L 229.220441 178.816056 
L 230.237019 179.479675 
L 234.303334 183.014116 
L 235.319913 183.72936 
L 236.336491 184.641833 
L 239.386227 186.76706 
L 240.402806 187.856875 
L 241.419384 188.739444 
L 242.435963 189.248261 
L 244.46912 190.925546 
L 245.485699 191.519165 
L 246.502277 192.767923 
L 247.518856 193.25973 
L 253.618328 198.099042 
L 255.651485 199.406344 
L 256.668063 200.376493 
L 257.684642 200.879979 
L 258.701221 201.569237 
L 259.717799 202.463881 
L 260.734378 203.047954 
L 261.750956 204.213596 
L 262.767535 204.866949 
L 263.784114 205.70062 
L 264.800692 206.192178 
L 265.817271 206.933161 
L 266.83385 207.888259 
L 268.867007 209.054818 
L 269.883585 209.988665 
L 274.966478 213.780329 
L 275.983057 214.333146 
L 279.032793 216.458956 
L 280.049371 217.59137 
L 281.06595 217.882403 
L 282.082529 218.864925 
L 283.099107 219.564411 
L 284.115686 219.947412 
L 286.148843 221.82262 
L 287.165422 222.335454 
L 290.215158 224.370906 
L 292.248315 225.758151 
L 294.281472 227.378293 
L 295.298051 227.805084 
L 297.331208 229.190345 
L 298.347786 230.153662 
L 299.364365 230.2555 
L 300.380944 231.269699 
L 301.397522 231.836812 
L 302.414101 232.545287 
L 303.43068 233.457685 
L 304.447258 233.918583 
L 305.463837 234.807091 
L 306.480415 235.179392 
L 307.496994 235.831593 
L 309.530151 237.387525 
L 312.579887 239.237515 
L 313.596466 240.138756 
L 314.613044 240.58578 
L 316.646201 241.858182 
L 317.66278 242.741048 
L 319.695937 243.969721 
L 320.712516 244.299894 
L 322.745673 245.853384 
L 324.77883 246.858384 
L 325.795409 247.614294 
L 327.828566 248.747465 
L 328.845145 249.687425 
L 330.878302 250.652862 
L 333.928038 252.575827 
L 334.944617 253.101865 
L 335.961195 253.967002 
L 336.977774 254.341349 
L 337.994352 255.006121 
L 339.010931 255.872907 
L 340.02751 256.179759 
L 341.044088 257.013852 
L 343.077245 257.889391 
L 344.093824 258.737728 
L 347.14356 260.465089 
L 349.176717 261.813602 
L 351.209874 262.772097 
L 352.226453 263.321629 
L 353.243032 264.11415 
L 354.25961 264.577168 
L 355.276189 265.177384 
L 356.292767 265.619933 
L 357.309346 266.214817 
L 358.325925 266.999267 
L 359.342503 267.51587 
L 360.359082 268.186382 
L 361.37566 268.571974 
L 362.392239 269.255653 
L 363.408818 269.744175 
L 364.425396 270.365442 
L 365.441975 270.713815 
L 366.458553 271.476346 
L 368.491711 272.478717 
L 369.508289 273.333353 
L 370.524868 273.669613 
L 372.558025 274.873602 
L 374.591182 275.754001 
L 376.62434 276.751401 
L 377.640918 277.772332 
L 378.657497 278.033621 
L 379.674075 278.800095 
L 380.690654 279.072183 
L 381.707233 279.764082 
L 384.756968 281.233786 
L 385.773547 281.953766 
L 388.823283 283.300568 
L 389.839862 284.036282 
L 393.906176 285.843561 
L 394.922755 286.7708 
L 395.939333 287.326295 
L 396.955912 287.583295 
L 400.005648 289.063413 
L 401.022226 289.764003 
L 402.038805 289.971981 
L 403.055383 290.533068 
L 404.071962 291.414744 
L 405.088541 291.735407 
L 406.105119 292.364398 
L 407.121698 292.439841 
L 408.138277 293.165438 
L 409.154855 293.702088 
L 410.171434 294.084977 
L 412.204591 295.193997 
L 413.22117 295.385497 
L 414.237748 296.306847 
L 415.254327 296.354853 
L 419.320641 298.577181 
L 421.353799 299.412538 
L 422.370377 300.16225 
L 423.386956 300.26767 
L 424.403534 301.050509 
L 425.420113 301.185549 
L 426.436692 301.984021 
L 427.45327 302.450325 
L 428.469849 302.605847 
L 429.486427 303.241384 
L 430.503006 303.541367 
L 431.519585 304.301208 
L 432.536163 304.858191 
L 433.552742 305.036574 
L 435.585899 305.890528 
L 436.602478 306.6679 
L 437.619056 307.173865 
L 438.635635 307.378433 
L 442.701949 309.381179 
L 444.735107 309.867171 
L 445.751685 310.672587 
L 446.768264 310.922445 
L 447.784842 311.297214 
L 448.801421 312.013562 
L 449.818 312.234495 
L 450.834578 312.934044 
L 455.917471 314.854858 
L 457.950629 316.013742 
L 458.967207 316.242921 
L 461.000364 317.042106 
L 462.016943 317.693693 
L 465.066679 318.637924 
L 466.083257 319.205805 
L 467.099836 319.465216 
L 468.116415 320.013408 
L 469.132993 320.392802 
L 470.149572 320.906336 
L 472.182729 321.774944 
L 473.199308 322.188953 
L 475.232465 322.788635 
L 476.249044 323.464751 
L 477.265622 323.924149 
L 478.282201 323.926418 
L 479.298779 324.5353 
L 481.331937 325.202898 
L 482.348515 325.849786 
L 483.365094 326.208568 
L 484.381672 326.412981 
L 485.398251 327.056174 
L 486.41483 327.296355 
L 488.447987 328.34946 
L 489.464565 328.472554 
L 490.481144 329.032234 
L 491.497723 329.097237 
L 492.514301 329.777196 
L 494.547459 330.35649 
L 497.597194 331.413357 
L 498.613773 332.133598 
L 499.630352 332.274465 
L 500.64693 332.797775 
L 501.663509 332.941636 
L 503.696666 333.968295 
L 504.713245 334.142884 
L 505.729823 334.7202 
L 506.746402 334.718291 
L 507.762981 335.107225 
L 508.779559 335.760218 
L 509.796138 336.25024 
L 510.812716 336.345618 
L 511.829295 336.724106 
L 512.845874 336.982761 
L 513.862452 337.623387 
L 514.879031 337.663539 
L 515.895609 338.336109 
L 516.912188 338.323017 
L 517.928767 339.031027 
L 518.945345 339.341567 
L 519.961924 339.780893 
L 520.978502 339.847285 
L 521.995081 340.142049 
L 524.028238 340.994571 
L 525.044817 341.267421 
L 527.077974 342.048127 
L 528.094553 342.265571 
L 532.160867 343.816885 
L 533.177446 344.102357 
L 534.194024 344.551316 
L 535.210603 344.819579 
L 536.227182 344.927969 
L 538.260339 345.79266 
L 542.326653 346.971419 
L 544.359811 347.790918 
L 545.376389 347.946998 
L 546.392968 348.482346 
L 547.409546 348.479854 
L 550.459282 349.775477 
L 551.475861 349.865865 
L 552.492439 350.347226 
L 554.525597 350.592193 
L 555.542175 351.22969 
L 557.575332 351.805276 
L 558.591911 352.108248 
L 559.60849 352.66158 
L 561.641647 353.188473 
L 562.658226 353.307792 
L 563.674804 353.835577 
L 564.691383 354.07336 
L 565.707961 354.113071 
L 568.757697 355.341837 
L 569.774276 355.454511 
L 570.790854 355.412692 
L 573.84059 356.713702 
L 574.857169 356.886934 
L 577.906905 357.769813 
L 585.022955 359.761785 
L 586.039534 359.782093 
L 587.056112 360.446227 
L 588.072691 360.48295 
L 589.089269 360.938641 
L 590.105848 361.254004 
L 591.122427 361.696981 
L 592.139005 361.64114 
L 593.155584 362.174493 
L 594.172163 362.00162 
L 596.20532 362.89779 
L 597.221898 362.931618 
L 598.238477 363.333991 
L 599.255056 363.568612 
L 600.271634 364.024923 
L 602.304791 364.325191 
L 603.32137 364.752131 
L 606.371106 365.295731 
L 608.404263 365.968986 
L 611.453999 366.552557 
L 612.470578 367.151662 
L 613.487156 367.334925 
L 614.503735 367.356736 
L 615.520313 367.587631 
L 616.536892 367.964381 
L 617.553471 368.069302 
L 619.586628 368.908273 
L 620.603206 368.994672 
L 621.619785 369.286318 
L 622.636364 369.36 
L 622.636364 369.36 
" clip-path="url(#pfe782cda71)" style="fill: none; stroke: #1f77b4; stroke-width: 1.5; stroke-linecap: round"/>
   </g>
   <g id="line2d_13">
    <path d="M 115.363636 69.814481 
L 116.380215 71.453208 
L 117.396794 72.713745 
L 119.429951 74.737134 
L 122.479687 77.353597 
L 130.612316 84.038313 
L 133.662051 86.747489 
L 135.695209 88.689051 
L 137.728366 90.731856 
L 139.761523 92.71686 
L 144.844416 97.870464 
L 146.877573 99.721396 
L 151.960466 105.036869 
L 153.993624 106.928442 
L 156.026781 109.041495 
L 160.093095 112.947679 
L 163.142831 115.890856 
L 165.175988 117.897434 
L 175.341774 127.830269 
L 178.39151 130.726334 
L 189.573875 141.696962 
L 217.021498 166.652064 
L 226.170705 174.230656 
L 258.701221 199.738464 
L 271.916743 209.200495 
L 289.198579 221.782388 
L 292.248315 223.864346 
L 299.364365 228.83214 
L 320.712516 242.098121 
L 323.762252 243.820101 
L 326.811988 245.621007 
L 329.861723 247.498819 
L 351.209874 260.161535 
L 363.408818 267.094447 
L 381.707233 277.199839 
L 386.790126 280.085378 
L 390.85644 282.116863 
L 398.989069 286.337822 
L 413.22117 293.322273 
L 426.436692 299.527741 
L 429.486427 301.093642 
L 432.536163 302.462091 
L 435.585899 303.865837 
L 439.652214 305.665132 
L 443.718528 307.390385 
L 448.801421 309.5824 
L 451.851157 310.770234 
L 453.884314 311.648749 
L 459.983786 314.225352 
L 469.132993 318.301911 
L 477.265622 321.421916 
L 480.315358 322.538498 
L 487.431408 325.310284 
L 489.464565 326.105298 
L 491.497723 326.828607 
L 493.53088 327.520835 
L 498.613773 329.412606 
L 503.696666 331.269967 
L 516.912188 336.213771 
L 521.995081 337.91331 
L 527.077974 339.520062 
L 532.160867 341.20558 
L 563.674804 350.812278 
L 571.807433 353.084589 
L 573.84059 353.745239 
L 581.973219 356.239835 
L 590.105848 358.28657 
L 592.139005 358.9755 
L 597.221898 360.271098 
L 601.288213 361.438221 
L 622.636364 366.614169 
L 622.636364 366.614169 
" clip-path="url(#pfe782cda71)" style="fill: none; stroke-dasharray: 6,2.25; stroke-dashoffset: 0; stroke: #ff7f0e; stroke-width: 1.5"/>
   </g>
   <g id="line2d_14"/>
   <g id="line2d_15"/>
   <g id="patch_3">
    <path d="M 90 384.48 
L 90 51.84 
" style="fill: none; stroke: #cccccc; stroke-width: 0.8; stroke-linejoin: miter; stroke-linecap: square"/>
   </g>
   <g id="patch_4">
    <path d="M 648 384.48 
L 648 51.84 
" style="fill: none; stroke: #cccccc; stroke-width: 0.8; stroke-linejoin: miter; stroke-linecap: square"/>
   </g>
   <g id="patch_5">
    <path d="M 90 384.48 
L 648 384.48 
" style="fill: none; stroke: #cccccc; stroke-width: 0.8; stroke-linejoin: miter; stroke-linecap: square"/>
   </g>
   <g id="patch_6">
    <path d="M 90 51.84 
L 648 51.84 
" style="fill: none; stroke: #cccccc; stroke-width: 0.8; stroke-linejoin: miter; stroke-linecap: square"/>
   </g>
   <g id="legend_1">
    <g id="patch_7">
     <path d="M 559.61875 89.19625 
L 641 89.19625 
Q 643 89.19625 643 87.19625 
L 643 58.84 
Q 643 56.84 641 56.84 
L 559.61875 56.84 
Q 557.61875 56.84 557.61875 58.84 
L 557.61875 87.19625 
Q 557.61875 89.19625 559.61875 89.19625 
z
" style="fill: #ffffff; opacity: 0.8; stroke: #cccccc; stroke-linejoin: miter"/>
    </g>
    <g id="line2d_16">
     <path d="M 561.61875 64.938437 
L 571.61875 64.938437 
L 581.61875 64.938437 
" style="fill: none; stroke: #1f77b4; stroke-width: 1.5; stroke-linecap: round"/>
    </g>
    <g id="text_14">
     <!-- Training -->
     <g style="fill: #262626" transform="translate(589.61875 68.438437)scale(0.1 -0.1)">
      <defs>
       <path id="DejaVuSans-54" d="M -19 4666 
L 3928 4666 
L 3928 4134 
L 2272 4134 
L 2272 0 
L 1638 0 
L 1638 4134 
L -19 4134 
L -19 4666 
z
" transform="scale(0.015625)"/>
       <path id="DejaVuSans-72" d="M 2631 2963 
Q 2534 3019 2420 3045 
Q 2306 3072 2169 3072 
Q 1681 3072 1420 2755 
Q 1159 2438 1159 1844 
L 1159 0 
L 581 0 
L 581 3500 
L 1159 3500 
L 1159 2956 
Q 1341 3275 1631 3429 
Q 1922 3584 2338 3584 
Q 2397 3584 2469 3576 
Q 2541 3569 2628 3553 
L 2631 2963 
z
" transform="scale(0.015625)"/>
       <path id="DejaVuSans-61" d="M 2194 1759 
Q 1497 1759 1228 1600 
Q 959 1441 959 1056 
Q 959 750 1161 570 
Q 1363 391 1709 391 
Q 2188 391 2477 730 
Q 2766 1069 2766 1631 
L 2766 1759 
L 2194 1759 
z
M 3341 1997 
L 3341 0 
L 2766 0 
L 2766 531 
Q 2569 213 2275 61 
Q 1981 -91 1556 -91 
Q 1019 -91 701 211 
Q 384 513 384 1019 
Q 384 1609 779 1909 
Q 1175 2209 1959 2209 
L 2766 2209 
L 2766 2266 
Q 2766 2663 2505 2880 
Q 2244 3097 1772 3097 
Q 1472 3097 1187 3025 
Q 903 2953 641 2809 
L 641 3341 
Q 956 3463 1253 3523 
Q 1550 3584 1831 3584 
Q 2591 3584 2966 3190 
Q 3341 2797 3341 1997 
z
" transform="scale(0.015625)"/>
       <path id="DejaVuSans-69" d="M 603 3500 
L 1178 3500 
L 1178 0 
L 603 0 
L 603 3500 
z
M 603 4863 
L 1178 4863 
L 1178 4134 
L 603 4134 
L 603 4863 
z
" transform="scale(0.015625)"/>
       <path id="DejaVuSans-6e" d="M 3513 2113 
L 3513 0 
L 2938 0 
L 2938 2094 
Q 2938 2591 2744 2837 
Q 2550 3084 2163 3084 
Q 1697 3084 1428 2787 
Q 1159 2491 1159 1978 
L 1159 0 
L 581 0 
L 581 3500 
L 1159 3500 
L 1159 2956 
Q 1366 3272 1645 3428 
Q 1925 3584 2291 3584 
Q 2894 3584 3203 3211 
Q 3513 2838 3513 2113 
z
" transform="scale(0.015625)"/>
       <path id="DejaVuSans-67" d="M 2906 1791 
Q 2906 2416 2648 2759 
Q 2391 3103 1925 3103 
Q 1463 3103 1205 2759 
Q 947 2416 947 1791 
Q 947 1169 1205 825 
Q 1463 481 1925 481 
Q 2391 481 2648 825 
Q 2906 1169 2906 1791 
z
M 3481 434 
Q 3481 -459 3084 -895 
Q 2688 -1331 1869 -1331 
Q 1566 -1331 1297 -1286 
Q 1028 -1241 775 -1147 
L 775 -588 
Q 1028 -725 1275 -790 
Q 1522 -856 1778 -856 
Q 2344 -856 2625 -561 
Q 2906 -266 2906 331 
L 2906 616 
Q 2728 306 2450 153 
Q 2172 0 1784 0 
Q 1141 0 747 490 
Q 353 981 353 1791 
Q 353 2603 747 3093 
Q 1141 3584 1784 3584 
Q 2172 3584 2450 3431 
Q 2728 3278 2906 2969 
L 2906 3500 
L 3481 3500 
L 3481 434 
z
" transform="scale(0.015625)"/>
      </defs>
      <use xlink:href="#DejaVuSans-54"/>
      <use xlink:href="#DejaVuSans-72" x="46.333984"/>
      <use xlink:href="#DejaVuSans-61" x="87.447266"/>
      <use xlink:href="#DejaVuSans-69" x="148.726562"/>
      <use xlink:href="#DejaVuSans-6e" x="176.509766"/>
      <use xlink:href="#DejaVuSans-69" x="239.888672"/>
      <use xlink:href="#DejaVuSans-6e" x="267.671875"/>
      <use xlink:href="#DejaVuSans-67" x="331.050781"/>
     </g>
    </g>
    <g id="line2d_17">
     <path d="M 561.61875 79.616562 
L 571.61875 79.616562 
L 581.61875 79.616562 
" style="fill: none; stroke-dasharray: 6,2.25; stroke-dashoffset: 0; stroke: #ff7f0e; stroke-width: 1.5"/>
    </g>
    <g id="text_15">
     <!-- Validation -->
     <g style="fill: #262626" transform="translate(589.61875 83.116562)scale(0.1 -0.1)">
      <defs>
       <path id="DejaVuSans-56" d="M 1831 0 
L 50 4666 
L 709 4666 
L 2188 738 
L 3669 4666 
L 4325 4666 
L 2547 0 
L 1831 0 
z
" transform="scale(0.015625)"/>
       <path id="DejaVuSans-6c" d="M 603 4863 
L 1178 4863 
L 1178 0 
L 603 0 
L 603 4863 
z
" transform="scale(0.015625)"/>
       <path id="DejaVuSans-64" d="M 2906 2969 
L 2906 4863 
L 3481 4863 
L 3481 0 
L 2906 0 
L 2906 525 
Q 2725 213 2448 61 
Q 2172 -91 1784 -91 
Q 1150 -91 751 415 
Q 353 922 353 1747 
Q 353 2572 751 3078 
Q 1150 3584 1784 3584 
Q 2172 3584 2448 3432 
Q 2725 3281 2906 2969 
z
M 947 1747 
Q 947 1113 1208 752 
Q 1469 391 1925 391 
Q 2381 391 2643 752 
Q 2906 1113 2906 1747 
Q 2906 2381 2643 2742 
Q 2381 3103 1925 3103 
Q 1469 3103 1208 2742 
Q 947 2381 947 1747 
z
" transform="scale(0.015625)"/>
       <path id="DejaVuSans-74" d="M 1172 4494 
L 1172 3500 
L 2356 3500 
L 2356 3053 
L 1172 3053 
L 1172 1153 
Q 1172 725 1289 603 
Q 1406 481 1766 481 
L 2356 481 
L 2356 0 
L 1766 0 
Q 1100 0 847 248 
Q 594 497 594 1153 
L 594 3053 
L 172 3053 
L 172 3500 
L 594 3500 
L 594 4494 
L 1172 4494 
z
" transform="scale(0.015625)"/>
      </defs>
      <use xlink:href="#DejaVuSans-56"/>
      <use xlink:href="#DejaVuSans-61" x="60.658203"/>
      <use xlink:href="#DejaVuSans-6c" x="121.9375"/>
      <use xlink:href="#DejaVuSans-69" x="149.720703"/>
      <use xlink:href="#DejaVuSans-64" x="177.503906"/>
      <use xlink:href="#DejaVuSans-61" x="240.980469"/>
      <use xlink:href="#DejaVuSans-74" x="302.259766"/>
      <use xlink:href="#DejaVuSans-69" x="341.46875"/>
      <use xlink:href="#DejaVuSans-6f" x="369.251953"/>
      <use xlink:href="#DejaVuSans-6e" x="430.433594"/>
     </g>
    </g>
   </g>
  </g>
 </g>
 <defs>
  <clipPath id="pfe782cda71">
   <rect x="90" y="51.84" width="558" height="332.64"/>
  </clipPath>
 </defs>
</svg>
